<?xml version="1.0" encoding="utf-8"?>
<!-- Generator: Adobe Illustrator 23.0.1, SVG Export Plug-In . SVG Version: 6.00 Build 0)  -->
<svg version="1.1" id="Capa_1" xmlns="http://www.w3.org/2000/svg" xmlns:xlink="http://www.w3.org/1999/xlink" x="0px" y="0px"
	 viewBox="0 0 73.1 67.5" style="enable-background:new 0 0 73.1 67.5;" xml:space="preserve">
<style type="text/css">
	.st0{fill:#FFFFFF;}
</style>
<g>
	<polygon class="st0" points="16.9,20.8 16.9,17.1 9.5,17.1 5.4,17.1 5.4,20.8 5.4,25.6 5.4,29.3 5.4,34.5 5.4,38.2 9.5,38.2 
		16.9,38.2 16.9,34.5 9.5,34.5 9.5,29.3 16.9,29.3 16.9,25.6 9.5,25.6 9.5,20.8 	"/>
	<path class="st0" d="M6.8,43.3c-0.1,0.1-0.2,0.1-0.4,0.1c-0.2,0-0.4-0.1-0.5-0.2c-0.1-0.2-0.2-0.4-0.2-0.8c0-0.3,0.1-0.6,0.2-0.7
		s0.3-0.2,0.5-0.2c0.2,0,0.3,0,0.4,0.1c0.1,0.1,0.2,0.2,0.2,0.4l0.6-0.1c-0.1-0.2-0.2-0.4-0.3-0.5C7.1,41.1,6.8,41,6.5,41
		c-0.4,0-0.7,0.1-1,0.4c-0.2,0.3-0.4,0.6-0.4,1.1c0,0.5,0.1,0.8,0.4,1.1C5.7,43.8,6.1,44,6.4,44c0.3,0,0.6-0.1,0.8-0.2
		c0.2-0.2,0.3-0.4,0.4-0.7l-0.6-0.2C7,43,6.9,43.2,6.8,43.3 M9.4,41c-0.2,0-0.4,0-0.6,0.1c-0.1,0.1-0.3,0.1-0.4,0.3
		c-0.1,0.1-0.2,0.2-0.3,0.4C8.1,41.9,8,42.2,8,42.5c0,0.5,0.1,0.8,0.4,1.1C8.7,43.8,9,44,9.4,44c0.4,0,0.8-0.1,1-0.4
		c0.3-0.3,0.4-0.6,0.4-1.1c0-0.5-0.1-0.8-0.4-1.1C10.2,41.1,9.8,41,9.4,41 M10,43.2c-0.1,0.2-0.3,0.3-0.6,0.3
		c-0.2,0-0.4-0.1-0.6-0.3s-0.2-0.4-0.2-0.7c0-0.3,0.1-0.6,0.2-0.7c0.1-0.2,0.3-0.2,0.6-0.2c0.2,0,0.4,0.1,0.6,0.2
		c0.1,0.2,0.2,0.4,0.2,0.7C10.2,42.8,10.2,43,10,43.2 M13,42.9L11.9,41h-0.6v2.9h0.5V42l1.2,1.9h0.6V41H13V42.9z M16,42.3
		c-0.1-0.1-0.3-0.1-0.6-0.2c-0.3-0.1-0.5-0.1-0.5-0.2c-0.1,0-0.1-0.1-0.1-0.2c0-0.1,0-0.1,0.1-0.2c0.1-0.1,0.2-0.1,0.4-0.1
		c0.2,0,0.3,0,0.4,0.1c0.1,0.1,0.1,0.2,0.2,0.3l0.6,0c0-0.3-0.1-0.5-0.3-0.6C15.9,41,15.6,41,15.2,41c-0.2,0-0.4,0-0.6,0.1
		c-0.2,0.1-0.3,0.2-0.4,0.3c-0.1,0.1-0.1,0.3-0.1,0.4c0,0.2,0.1,0.4,0.3,0.6c0.1,0.1,0.3,0.2,0.7,0.3c0.2,0.1,0.4,0.1,0.5,0.1
		c0.1,0,0.2,0.1,0.2,0.1c0,0,0.1,0.1,0.1,0.2c0,0.1,0,0.2-0.1,0.3c-0.1,0.1-0.2,0.1-0.4,0.1c-0.2,0-0.3,0-0.4-0.1
		c-0.1-0.1-0.2-0.2-0.2-0.4L14.1,43c0,0.3,0.2,0.6,0.4,0.7c0.2,0.2,0.5,0.3,0.8,0.3c0.3,0,0.5,0,0.6-0.1c0.2-0.1,0.3-0.2,0.4-0.3
		c0.1-0.1,0.1-0.3,0.1-0.5c0-0.2,0-0.3-0.1-0.5C16.2,42.5,16.1,42.4,16,42.3 M16.7,41.5h0.9v2.4h0.6v-2.4H19V41h-2.3V41.5z
		 M21.3,42.9c-0.1-0.1-0.2-0.2-0.3-0.2c0.3,0,0.4-0.1,0.6-0.3c0.1-0.1,0.2-0.3,0.2-0.5c0-0.2,0-0.3-0.1-0.5
		c-0.1-0.1-0.2-0.2-0.3-0.3C21.1,41,20.9,41,20.6,41h-1.2v2.9H20v-1.2h0.1c0.1,0,0.2,0,0.3,0c0.1,0,0.1,0.1,0.2,0.1
		c0.1,0.1,0.2,0.2,0.3,0.4l0.4,0.6H22l-0.4-0.6C21.5,43.1,21.4,43,21.3,42.9 M20.4,42.2H20v-0.7h0.5c0.2,0,0.4,0,0.4,0
		c0.1,0,0.2,0.1,0.2,0.1c0.1,0.1,0.1,0.1,0.1,0.2c0,0.1,0,0.2-0.1,0.2c0,0.1-0.1,0.1-0.2,0.1C20.9,42.2,20.7,42.2,20.4,42.2
		 M24,42.6c0,0.2,0,0.4,0,0.5c0,0.1-0.1,0.2-0.2,0.2c-0.1,0.1-0.2,0.1-0.4,0.1c-0.2,0-0.3,0-0.4-0.1c-0.1-0.1-0.2-0.2-0.2-0.3
		c0-0.1,0-0.2,0-0.5V41h-0.6v1.5c0,0.3,0,0.6,0.1,0.7c0,0.1,0.1,0.2,0.2,0.3c0.1,0.1,0.2,0.2,0.3,0.2c0.1,0.1,0.4,0.1,0.6,0.1
		c0.2,0,0.4,0,0.6-0.1c0.1-0.1,0.3-0.1,0.3-0.2c0.1-0.1,0.1-0.2,0.2-0.4c0-0.1,0-0.4,0-0.7V41H24V42.6z M26.8,43.3
		c-0.1,0.1-0.2,0.1-0.4,0.1c-0.2,0-0.4-0.1-0.5-0.2c-0.1-0.2-0.2-0.4-0.2-0.8c0-0.3,0.1-0.6,0.2-0.7c0.1-0.2,0.3-0.2,0.5-0.2
		c0.2,0,0.3,0,0.4,0.1c0.1,0.1,0.2,0.2,0.2,0.4l0.6-0.1c-0.1-0.2-0.2-0.4-0.3-0.5c-0.2-0.2-0.5-0.3-0.9-0.3c-0.4,0-0.7,0.1-1,0.4
		c-0.2,0.3-0.4,0.6-0.4,1.1c0,0.5,0.1,0.8,0.4,1.1c0.2,0.3,0.6,0.4,0.9,0.4c0.3,0,0.6-0.1,0.8-0.2c0.2-0.2,0.3-0.4,0.4-0.7l-0.6-0.2
		C27,43,26.9,43.2,26.8,43.3 M29.8,43.3c-0.1,0.1-0.2,0.1-0.4,0.1c-0.2,0-0.4-0.1-0.5-0.2c-0.1-0.2-0.2-0.4-0.2-0.8
		c0-0.3,0.1-0.6,0.2-0.7s0.3-0.2,0.5-0.2c0.2,0,0.3,0,0.4,0.1c0.1,0.1,0.2,0.2,0.2,0.4l0.6-0.1c-0.1-0.2-0.2-0.4-0.3-0.5
		C30,41.1,29.8,41,29.4,41c-0.4,0-0.7,0.1-1,0.4C28.2,41.6,28,42,28,42.5c0,0.5,0.1,0.8,0.4,1.1c0.2,0.3,0.6,0.4,0.9,0.4
		c0.3,0,0.6-0.1,0.8-0.2c0.2-0.2,0.3-0.4,0.4-0.7L30,42.8C29.9,43,29.9,43.2,29.8,43.3 M31,43.9h0.6V41H31V43.9z M33.5,41
		c-0.2,0-0.4,0-0.6,0.1c-0.1,0.1-0.3,0.1-0.4,0.3c-0.1,0.1-0.2,0.2-0.3,0.4c-0.1,0.2-0.1,0.4-0.1,0.7c0,0.5,0.1,0.8,0.4,1.1
		c0.3,0.3,0.6,0.4,1,0.4c0.4,0,0.8-0.1,1-0.4c0.3-0.3,0.4-0.6,0.4-1.1c0-0.5-0.1-0.8-0.4-1.1C34.2,41.1,33.9,41,33.5,41 M34.1,43.2
		c-0.1,0.2-0.3,0.3-0.6,0.3c-0.2,0-0.4-0.1-0.6-0.3c-0.2-0.2-0.2-0.4-0.2-0.7c0-0.3,0.1-0.6,0.2-0.7c0.1-0.2,0.3-0.2,0.6-0.2
		c0.2,0,0.4,0.1,0.6,0.2c0.1,0.2,0.2,0.4,0.2,0.7C34.3,42.8,34.2,43,34.1,43.2 M37.1,42.9L35.9,41h-0.6v2.9h0.5V42l1.2,1.9h0.6V41
		h-0.5V42.9z M38.8,42.6h1.5v-0.5h-1.5v-0.6h1.6V41h-2.1v2.9h2.2v-0.5h-1.6V42.6z M42.7,42.3c-0.1-0.1-0.3-0.1-0.6-0.2
		c-0.3-0.1-0.5-0.1-0.5-0.2c-0.1,0-0.1-0.1-0.1-0.2c0-0.1,0-0.1,0.1-0.2c0.1-0.1,0.2-0.1,0.4-0.1c0.2,0,0.3,0,0.4,0.1
		s0.1,0.2,0.2,0.3l0.6,0c0-0.3-0.1-0.5-0.3-0.6C42.6,41,42.3,41,42,41c-0.2,0-0.4,0-0.6,0.1c-0.2,0.1-0.3,0.2-0.4,0.3
		c-0.1,0.1-0.1,0.3-0.1,0.4c0,0.2,0.1,0.4,0.3,0.6c0.1,0.1,0.3,0.2,0.7,0.3c0.2,0.1,0.4,0.1,0.5,0.1c0.1,0,0.2,0.1,0.2,0.1
		c0,0,0.1,0.1,0.1,0.2c0,0.1,0,0.2-0.1,0.3c-0.1,0.1-0.2,0.1-0.4,0.1c-0.2,0-0.3,0-0.4-0.1c-0.1-0.1-0.2-0.2-0.2-0.4L40.8,43
		c0,0.3,0.2,0.6,0.4,0.7c0.2,0.2,0.5,0.3,0.8,0.3c0.3,0,0.5,0,0.6-0.1c0.2-0.1,0.3-0.2,0.4-0.3c0.1-0.1,0.1-0.3,0.1-0.5
		c0-0.2,0-0.3-0.1-0.5C43,42.5,42.9,42.4,42.7,42.3 M46.6,42.3c-0.1-0.1-0.3-0.1-0.6-0.2c-0.3-0.1-0.5-0.1-0.5-0.2
		c-0.1,0-0.1-0.1-0.1-0.2c0-0.1,0-0.1,0.1-0.2c0.1-0.1,0.2-0.1,0.4-0.1c0.2,0,0.3,0,0.4,0.1c0.1,0.1,0.1,0.2,0.2,0.3l0.6,0
		c0-0.3-0.1-0.5-0.3-0.6C46.4,41,46.2,41,45.8,41c-0.2,0-0.4,0-0.6,0.1c-0.2,0.1-0.3,0.2-0.4,0.3c-0.1,0.1-0.1,0.3-0.1,0.4
		c0,0.2,0.1,0.4,0.3,0.6c0.1,0.1,0.3,0.2,0.7,0.3c0.2,0.1,0.4,0.1,0.5,0.1c0.1,0,0.2,0.1,0.2,0.1c0,0,0.1,0.1,0.1,0.2
		c0,0.1,0,0.2-0.1,0.3c-0.1,0.1-0.2,0.1-0.4,0.1c-0.2,0-0.3,0-0.4-0.1c-0.1-0.1-0.2-0.2-0.2-0.4L44.6,43c0,0.3,0.2,0.6,0.4,0.7
		c0.2,0.2,0.5,0.3,0.8,0.3c0.3,0,0.5,0,0.6-0.1c0.2-0.1,0.3-0.2,0.4-0.3c0.1-0.1,0.1-0.3,0.1-0.5c0-0.2,0-0.3-0.1-0.5
		C46.8,42.5,46.7,42.4,46.6,42.3 M47.5,43.9H48v-0.6h-0.6V43.9z M49.4,41l-1.1,2.9h0.6l0.2-0.7h1.2l0.3,0.7h0.6L50.1,41H49.4z
		 M49.3,42.8l0.4-1.1l0.4,1.1H49.3z M51.5,43.9h0.6v-0.6h-0.6V43.9z M55.8,41.3c-0.1-0.1-0.3-0.2-0.4-0.3c-0.1,0-0.3-0.1-0.6-0.1
		h-1.1v2.9h1.1c0.2,0,0.4,0,0.5-0.1c0.2-0.1,0.3-0.1,0.4-0.2c0.1-0.1,0.2-0.3,0.3-0.5c0.1-0.2,0.1-0.4,0.1-0.6c0-0.3,0-0.5-0.1-0.7
		C56,41.6,55.9,41.5,55.8,41.3 M55.5,43c0,0.1-0.1,0.2-0.2,0.3s-0.1,0.1-0.2,0.1c-0.1,0-0.2,0-0.4,0h-0.4v-1.9h0.3
		c0.2,0,0.4,0,0.5,0c0.1,0,0.2,0.1,0.3,0.1c0.1,0.1,0.1,0.2,0.2,0.3c0,0.1,0.1,0.3,0.1,0.5C55.6,42.7,55.6,42.9,55.5,43 M57.3,42.6
		h1.5v-0.5h-1.5v-0.6h1.6V41h-2.1v2.9h2.2v-0.5h-1.6V42.6z M62.1,43.3c-0.1,0.1-0.2,0.1-0.4,0.1c-0.2,0-0.4-0.1-0.5-0.2
		c-0.1-0.2-0.2-0.4-0.2-0.8c0-0.3,0.1-0.6,0.2-0.7c0.1-0.2,0.3-0.2,0.5-0.2c0.2,0,0.3,0,0.4,0.1c0.1,0.1,0.2,0.2,0.2,0.4l0.6-0.1
		c-0.1-0.2-0.2-0.4-0.3-0.5c-0.2-0.2-0.5-0.3-0.9-0.3c-0.4,0-0.7,0.1-1,0.4c-0.2,0.3-0.4,0.6-0.4,1.1c0,0.5,0.1,0.8,0.4,1.1
		c0.2,0.3,0.6,0.4,0.9,0.4c0.3,0,0.6-0.1,0.8-0.2s0.3-0.4,0.4-0.7l-0.6-0.2C62.3,43,62.2,43.2,62.1,43.3 M63.4,43.9H64v-0.6h-0.6
		V43.9z M66.3,41l-0.7,2.1L64.9,41h-0.6l1,2.9h0.6l1-2.9H66.3z M66.9,43.9h0.6v-0.6h-0.6V43.9z"/>
	<path class="st0" d="M36.8,22c-2.2,0-4.2,1-5.2,2.8c-0.9-1.5-2.5-3-5.4-3c-1.8,0-3.6,0.8-4.8,2.1v-1.6h-3.6v15.9h3.6v-9.8
		c0.7-2,2-2.8,3.6-2.8c1.6,0,3.3,1,3.5,3v9.6H32v-8c0.4-3.6,2.1-4.8,3.9-4.8c1.7,0,3.3,1.3,3.2,3.7v2.5v6.5h3.6V27.9
		C42.9,24.8,40.4,22,36.8,22"/>
	<path class="st0" d="M54.1,25.8c1.3-1,2.1-2.4,2.1-4.1c0-2.9-2.5-5.3-5.6-5.3c-3.1,0-5.6,2.4-5.6,5.3c0,0.2,0,0.4,0,0.6h3.6v-0.4
		c0-0.9,0.7-1.6,1.6-1.6h0.4c0.9,0,1.6,0.7,1.6,1.6v0.9c0,0.9-0.7,1.6-1.6,1.6h-1.6V28h1.4c1.7,0,3.2,1.4,3.2,3.2V32
		c0,1.6-1.3,2.9-2.9,2.9h-0.1c-1.7,0-3.1-1.4-3.1-3.1v-0.4h-4c0,0.1,0,0.3,0,0.4c0,3.7,2.1,6.8,7.1,6.8c3.9,0,7.1-3,7.1-6.8
		C57.6,28.8,56.2,26.8,54.1,25.8"/>
	<path class="st0" d="M42,20.3c0.5-4.5,4.2-7.9,8.6-7.9s8.1,3.5,8.6,7.9h8.8c-0.8-8.9-8.3-15.9-17.4-15.9s-16.6,7-17.4,15.9H42z"/>
	<path class="st0" d="M32.1,46.1C31.6,50.5,28,54,23.5,54s-8.1-3.5-8.6-7.9H6.2C7,55,14.4,62,23.5,62s16.6-7,17.4-15.9H32.1z"/>
</g>
</svg>
