<?xml version="1.0" encoding="utf-8"?>
<!-- Generator: Adobe Illustrator 23.0.1, SVG Export Plug-In . SVG Version: 6.00 Build 0)  -->
<svg version="1.1" id="Capa_1" xmlns="http://www.w3.org/2000/svg" xmlns:xlink="http://www.w3.org/1999/xlink" x="0px" y="0px"
	 viewBox="0 0 512 512" style="enable-background:new 0 0 512 512;" xml:space="preserve">
<style type="text/css">
	.st0{fill:#F83D00;}
</style>
<path class="st0" d="M497.6,331.5h-2.7v-16.7c0-7.7-6.2-13.9-13.9-13.9h-14.1l-61-61c-0.3-0.3-0.5-0.5-0.8-0.7v-83.5h44
	c2.9,0,5.5-1.6,6.8-4.2c1.3-2.6,0.9-5.7-0.8-7.9l-30.2-38.8c-1.4-1.8-3.6-2.9-6-2.9h-16L157.4,4.4c-0.2-0.1-0.5-0.2-0.7-0.3
	c-0.1,0-0.2,0-0.2-0.1C156.3,4,156.1,4,156,4c-0.1,0-0.3,0-0.4-0.1c-0.1,0-0.2,0-0.3,0c-0.2,0-0.4,0-0.5,0c-0.1,0-0.1,0-0.2,0h-0.1
	c0,0-0.1,0-0.1,0h-18.6c-3.9,0-7.2,3-7.5,6.9l-8,91.1H69.4c-0.2-9.8-8.2-17.6-18.1-17.6H18.1C8.1,84.2,0,92.3,0,102.3v54.1
	c0,10,8.1,18.1,18.1,18.1h33.3c10,0,18.1-8.1,18.1-18.1v-0.6h47.9l-9,298.2h-6.9c-14.9,0-27,12.1-27,27v19.7c0,4.2,3.4,7.5,7.5,7.5
	h13.6c4.2,0,7.5-3.4,7.5-7.5c0-4.2-3.4-7.5-7.5-7.5h-6v-12.2c0-6.6,5.3-11.9,11.9-11.9h22.3H197c6.6,0,11.9,5.3,11.9,11.9v12.2
	h-83.2c-4.2,0-7.5,3.4-7.5,7.5c0,4.2,3.4,7.5,7.5,7.5h90.7c4.2,0,7.5-3.4,7.5-7.5v-19.7c0-14.9-12.1-27-27-27h-15l-9-298.2h41.7
	v37.6c0,10.8,8.8,19.6,19.6,19.6h57.9c10.8,0,19.6-8.8,19.6-19.6v-37.6h78v82.8c-0.6,0.3-1.3,0.8-1.8,1.3l-61,61H312
	c-7.7,0-13.9,6.2-13.9,13.9v16.7h-7c-7.9,0-14.4,6.5-14.4,14.4v14.2c0,7.9,6.5,14.4,14.4,14.4h20.3c4.2,0,7.5-3.4,7.5-7.5
	s-3.4-7.5-7.5-7.5h-19.6v-12.8h205.1v12.8H341.6c-4.2,0-7.5,3.4-7.5,7.5s3.4,7.5,7.5,7.5h156c7.9,0,14.4-6.5,14.4-14.4v-14.2
	C512,338,505.5,331.5,497.6,331.5L497.6,331.5z M142.8,18.9h4.9l7.2,82.9h-19.4L142.8,18.9z M54.4,156.4c0,1.6-1.3,3-3,3H18.1
	c-1.6,0-3-1.3-3-3v-54.1c0-1.6,1.3-3,3-3h33.3c1.6,0,3,1.3,3,3v7.1v38.8V156.4z M69.4,116.9h153c4.2,0,7.5-3.4,7.5-7.5
	s-3.4-7.5-7.5-7.5h-52.3l-6.9-78.9L362,101.8H252.6c-4.2,0-7.5,3.4-7.5,7.5s3.4,7.5,7.5,7.5h148.8c0,0,0,0,0,0c0,0,0,0,0,0h13.7
	l18.5,23.7H304.4h-81.9h-153L69.4,116.9L69.4,116.9z M130.6,215.9l22.8,16.5l-24.3,33.5L130.6,215.9z M132,373.1l31.4-39.3l1.9,63.4
	L132,373.1z M134.3,284.6l26.5-36.6l1.7,57.1L134.3,284.6z M128.2,298.8l27.8,20.2l-29.6,36.9L128.2,298.8z M156,409.2l-32.4,40.4
	l1.9-62.5L156,409.2z M136.4,201.5l22.1-29.3l1.4,46.3L136.4,201.5z M152,155.7l-20.4,27l0.8-27H152z M139.5,453.9l26.5-33.1l1,33.1
	H139.5z M296.8,193.4c0,2.5-2,4.5-4.5,4.5h-57.9c-2.5,0-4.5-2-4.5-4.5v-37.6h66.8V193.4z M445.5,300.9h-40.4v-40.4L445.5,300.9z
	 M390,259.5v41.4h-41.4L390,259.5z M313.2,316h166.6v15.5H313.2V316z"/>
</svg>
