<?xml version="1.0" encoding="utf-8"?>
<!-- Generator: Adobe Illustrator 23.0.1, SVG Export Plug-In . SVG Version: 6.00 Build 0)  -->
<svg version="1.1" id="Capa_1" xmlns="http://www.w3.org/2000/svg" xmlns:xlink="http://www.w3.org/1999/xlink" x="0px" y="0px"
	 viewBox="0 0 512 512" style="enable-background:new 0 0 512 512;" xml:space="preserve">
<style type="text/css">
	.st0{fill-rule:evenodd;clip-rule:evenodd;fill:#F83D00;}
</style>
<g transform="translate(-336 -240)">
	<g id="Icon">
		<path class="st0" d="M623.9,437.2c0.1-1.7,0.1-3.5,0.1-5.2c0-53-43-96-96-96s-96,43-96,96c0,43.7,29.3,80.6,69.2,92.2
			c5.7,1.6,11.6-1.6,13.2-7.3c1.6-5.7-1.6-11.6-7.3-13.2c-31.1-9-53.8-37.7-53.8-71.7c0-41.2,33.5-74.7,74.7-74.7
			s74.7,33.5,74.7,74.7c0,1.4,0,2.7-0.1,4.1c-0.3,5.9,4.2,10.9,10.1,11.2C618.5,447.6,623.5,443.1,623.9,437.2L623.9,437.2z"/>
		<path class="st0" d="M479.7,549.7c-9.1-2.9-19.1-0.5-25.9,6.4l-8.7,8.8c-1.4,1.4-3.6,1.7-5.3,0.6c-3.9-2.6-7.7-5.4-11.4-8.3
			c-1.6-1.3-2-3.5-1.1-5.3l5.7-11.1c4.7-9.1,3.4-20.1-3.1-28c-3.2-3.9-6.3-8.1-9-12.4c-5.5-8.7-15.6-13.3-25.8-11.6l-12.2,2
			c-2,0.3-3.9-0.8-4.6-2.7c-1.7-4.4-3.1-8.9-4.4-13.4c-0.5-1.9,0.4-4,2.2-4.9l11.1-5.6c9.1-4.6,14.6-14.3,13.9-24.5
			c-0.3-5.1-0.3-10.2,0-15.3c0.7-10.3-4.8-19.9-14-24.6l-11.1-5.6c-1.8-0.9-2.7-2.9-2.2-4.9c1.3-4.5,2.7-9,4.3-13.4
			c0.7-1.9,2.7-3,4.7-2.6l12.3,2c10.1,1.6,20.2-3,25.7-11.6c2.7-4.3,5.7-8.4,9-12.4c6.6-7.9,7.8-19,3.1-28.1l-5.6-11
			c-0.9-1.8-0.5-4,1.1-5.2c3.7-2.9,7.5-5.7,11.4-8.3c1.7-1.1,3.9-0.8,5.3,0.6l8.8,8.8c7.2,7.3,18.1,9.5,27.6,5.7
			c4.7-1.9,9.6-3.4,14.6-4.7c10-2.5,17.5-10.8,19-20.9L517,276c0.3-2,2-3.5,4-3.6c4.7-0.2,9.4-0.2,14.1,0c2,0.1,3.7,1.6,4,3.6
			l1.9,12.3c1.6,10.1,9.1,18.3,19,20.8c4.9,1.3,9.8,2.9,14.6,4.8c9.5,3.8,20.5,1.6,27.7-5.7l8.7-8.8c1.4-1.4,3.6-1.7,5.3-0.6
			c3.9,2.6,7.7,5.4,11.4,8.3c1.6,1.3,2,3.5,1.1,5.3l-5.7,11.1c-4.7,9.1-3.4,20.1,3.1,28c3.2,3.9,6.3,8.1,9,12.4
			c5.5,8.7,15.6,13.3,25.8,11.6l12.2-2c2-0.3,3.9,0.8,4.6,2.7c1.7,4.4,3.1,8.9,4.4,13.4c0.5,1.9-0.4,4-2.2,4.9l-11.1,5.6
			c-9.1,4.6-14.6,14.3-13.9,24.5c0.1,2.5,0.2,5.1,0.2,7.7c0,5.9,4.8,10.7,10.7,10.7s10.7-4.8,10.7-10.7c0-3-0.1-6-0.3-9
			c0,0,0,0,0-0.1c-0.1-1.7,0.8-3.3,2.3-4.1l11-5.6c10.9-5.5,16.4-17.8,13.2-29.6v-0.1c-1.5-5.1-3.1-10.2-5-15.1c0,0,0,0,0-0.1
			c-4.3-11.4-16-18.1-28-16.1c-3.9,0.6-8.3,1.3-12.2,2c-1.7,0.3-3.4-0.5-4.3-1.9l0,0c-3.2-5.1-6.8-10-10.6-14.7l0,0
			c-1.1-1.3-1.3-3.1-0.5-4.7l5.6-11c5.6-10.8,2.8-24.1-6.7-31.7l-0.1-0.1c-4.2-3.3-8.5-6.4-12.9-9.3l0,0
			c-10.2-6.7-23.6-5.2-32.2,3.4c-2.8,2.8-6,6-8.7,8.8c-1.2,1.2-3,1.6-4.6,1c-5.6-2.3-11.4-4.1-17.2-5.6c0,0,0,0-0.1,0
			c-1.7-0.4-2.9-1.8-3.1-3.5l-1.9-12.2c-1.8-12-11.9-21.1-24.1-21.7h-0.1c-5.3-0.2-10.6-0.2-15.9,0c0,0,0,0-0.1,0
			c-12.1,0.6-22.2,9.7-24,21.7c-0.6,3.9-1.3,8.3-1.9,12.2c-0.3,1.7-1.5,3.1-3.2,3.5l0,0c-5.9,1.5-11.6,3.3-17.2,5.6c0,0,0,0-0.1,0
			c-1.6,0.6-3.4,0.3-4.6-0.9l-8.7-8.8c-8.6-8.7-22-10.1-32.2-3.4l-0.1,0.1c-4.4,3-8.7,6.1-12.9,9.4l0,0c-9.5,7.6-12.3,20.8-6.7,31.6
			c1.8,3.5,3.9,7.5,5.7,11c0.8,1.5,0.6,3.4-0.5,4.7l0,0c-3.9,4.6-7.4,9.5-10.7,14.6c0,0,0,0,0,0.1c-0.9,1.4-2.6,2.2-4.3,1.9l-12.2-2
			c-12-2-23.7,4.8-28.1,16.2v0.1c-1.8,5-3.5,10-4.9,15.2c0,0,0,0,0,0.1c-3.2,11.7,2.3,24.1,13.2,29.5c3.5,1.8,7.5,3.8,11,5.6
			c1.5,0.8,2.5,2.4,2.3,4.1l0,0c-0.4,6-0.4,12.1,0,18.1c0,0,0,0,0,0.1c0.1,1.7-0.8,3.3-2.3,4.1l-11,5.6
			c-10.9,5.5-16.4,17.8-13.2,29.6v0.1c1.5,5.1,3.1,10.2,5,15.1c0,0,0,0,0,0.1c4.3,11.4,16,18.1,28,16.1c3.9-0.6,8.3-1.3,12.2-2
			c1.7-0.3,3.4,0.5,4.3,1.9l0,0c3.2,5.1,6.8,10,10.6,14.7l0,0c1.1,1.3,1.3,3.1,0.5,4.7l-5.6,11c-5.6,10.8-2.8,24.1,6.7,31.7l0.1,0.1
			c4.2,3.3,8.5,6.4,12.9,9.3l0,0c10.2,6.7,23.6,5.2,32.2-3.4c2.8-2.8,6-6,8.7-8.8c1.1-1.1,2.8-1.5,4.3-1.1c5.6,1.8,11.6-1.4,13.4-7
			C488.4,557.5,485.3,551.5,479.7,549.7L479.7,549.7z"/>
		<path class="st0" d="M496,657.8V624c0-66.8,47.2-122.6,110.1-135.7c1.2-5,3.7-9.7,7.2-13.6c6.1-6.8,14.7-10.7,23.9-10.7h37.7
			c9.1,0,17.8,3.9,23.9,10.7c3.5,3.9,6,8.6,7.2,13.6c62.8,13.1,110,68.9,110,135.7v33.8c4.5,1.6,8.6,4.1,12,7.5
			c6,6,9.4,14.1,9.4,22.6v2.5c0,16.1-12,29.8-28,31.8c-38.4,4.8-124.5,15.6-146.7,18.3c-4.4,0.6-8.8,0.6-13.2,0
			c-22.2-2.8-108.3-13.5-146.7-18.3c-16-2-28-15.6-28-31.8V688c0-8.5,3.4-16.6,9.4-22.6C487.4,662,491.5,659.4,496,657.8L496,657.8z
			 M816,688v2.5c0,5.4-4,9.9-9.3,10.6L660,719.4c-2.6,0.3-5.3,0.3-7.9,0l-146.7-18.3c-5.3-0.7-9.3-5.2-9.3-10.6V688
			c0-2.8,1.1-5.5,3.1-7.5s4.7-3.1,7.5-3.1h298.7c2.8,0,5.5,1.1,7.5,3.1S816,685.2,816,688L816,688z M606.5,510.1L622.8,656H517.3
			v-32C517.3,568.9,555.3,522.7,606.5,510.1z M667.8,656h-23.6l-17.6-158.8c-0.3-3,0.6-6,2.6-8.3s4.9-3.6,8-3.6h37.7
			c3,0,5.9,1.3,8,3.6c2,2.3,3,5.3,2.6,8.3L667.8,656z M705.5,510.1c51.2,12.6,89.2,58.8,89.2,113.9v32H689.2L705.5,510.1z"/>
	</g>
</g>
</svg>
