<?xml version="1.0" encoding="utf-8"?>
<!-- Generator: Adobe Illustrator 23.0.1, SVG Export Plug-In . SVG Version: 6.00 Build 0)  -->
<svg version="1.1" id="Layer_1" xmlns="http://www.w3.org/2000/svg" xmlns:xlink="http://www.w3.org/1999/xlink" x="0px" y="0px"
	 viewBox="0 0 512 512" style="enable-background:new 0 0 512 512;" xml:space="preserve">
<style type="text/css">
	.st0{fill:#F83D00;}
</style>
<path class="st0" d="M373.7,195.3h-19.1l82.9-143.6c8.6-14.9,3.5-34-11.4-42.6c-7.2-4.1-15.6-5.2-23.6-3.1
	c-8.1,2.2-14.8,7.3-18.9,14.5l-95.2,165c-0.4,0.7-0.6,1.4-0.7,2.2l-1,7.6H83.3v-38.8c0-2.2-1.2-4.2-3.1-5.2
	c-6.7-3.7-14.4-5.7-22.1-5.7c-25.1,0-45.6,20.4-45.6,45.6v270.3c0,0.2,0,0.4,0,0.6c0.3,12,5,23.1,13.3,31.5
	c8.6,8.7,20,13.5,32.2,13.5h315.6c3.3,0,6-2.7,6-6V201.3C379.7,198,377,195.3,373.7,195.3L373.7,195.3z M293,236.1l3.2,1.8l-3.8,3
	L293,236.1L293,236.1z M306.4,229.9l-11.6-6.7l3.5-25l28.1,16.2L306.4,229.9L306.4,229.9z M381.9,47.3l4.3-7.5L419.5,59l-4.3,7.5
	L381.9,47.3L381.9,47.3z M387.3,64.3l-74.2,128.6l-11.4-6.6l74.2-128.6L387.3,64.3L387.3,64.3z M334.9,205.5l-11.4-6.6l74.2-128.6
	l11.4,6.6L334.9,205.5L334.9,205.5z M405.6,17.7c5-1.3,10.1-0.7,14.5,1.9c9.1,5.3,12.3,17,7,26.2l-1.6,2.9l-33.2-19.2l1.6-2.9
	C396.5,22.2,400.6,19,405.6,17.7L405.6,17.7z M24.6,191.1c0-18.5,15.1-33.6,33.6-33.6c4.5,0,9,0.9,13.2,2.7v257.6
	c-4.3-1.3-8.7-1.9-13.2-1.9c-13.3,0-25.2,5.7-33.6,14.8L24.6,191.1z M367.7,495H58.1c-18.7,0-33.4-14.9-33.6-33.9
	c0.2-18.3,15.2-33.2,33.6-33.2c5.7,0,11.3,1.5,16.3,4.2c1.9,1,4.1,1,6-0.1c1.8-1.1,3-3,3-5.2V207.3h201.5l-6.4,46.5
	c-0.3,2.4,0.8,4.8,2.9,6c0.9,0.5,2,0.8,3,0.8c1.3,0,2.6-0.4,3.7-1.3l52.7-41c0.6-0.5,1.1-1.1,1.5-1.7l5.4-9.4h20V495z M344.4,307.4
	l-109.8-60.2c-6.6-3.6-14.2-3.6-20.8,0l-109.8,60.2c-4.8,2.6-7.2,8.2-5.9,13.5s6.1,9,11.6,9h23.1v92.4h-15.5
	c-6.7,0-12.2,5.5-12.2,12.2v11c0,6.7,5.5,12.2,12.2,12.2H331c6.7,0,12.2-5.5,12.2-12.2v-11c0-6.7-5.5-12.2-12.2-12.2h-15.5V330h23.1
	c5.5,0,10.3-3.7,11.6-9C351.6,315.6,349.2,310.1,344.4,307.4L344.4,307.4z M331.2,434.5v11c0,0.1-0.1,0.2-0.2,0.2H117.3
	c-0.1,0-0.2-0.1-0.2-0.2v-11c0-0.1,0.1-0.2,0.2-0.2H331C331,434.3,331.2,434.4,331.2,434.5z M197.6,360.6v61.8H167v-61.8H197.6z
	 M309.5,318c-3.3,0-6,2.7-6,6v98.4h-93.9v-61.8h0.2c3.3,0,6-2.7,6-6s-2.7-6-6-6h-55c-3.3,0-6,2.7-6,6s2.7,6,6,6h0.2v61.8h-10.3V324
	c0-3.3-2.7-6-6-6l-29.1,0l109.8-60.2c3-1.7,6.3-1.7,9.3,0L338.6,318L309.5,318L309.5,318z M202.6,291.9c0,11.9,9.6,21.5,21.5,21.5
	s21.5-9.6,21.5-21.5s-9.6-21.5-21.5-21.5S202.6,280,202.6,291.9z M233.6,291.9c0,5.2-4.3,9.5-9.5,9.5s-9.5-4.3-9.5-9.5
	s4.3-9.5,9.5-9.5S233.6,286.7,233.6,291.9z M227.6,324v23.9c0,3.3,2.7,6,6,6h53.6c3.3,0,6-2.7,6-6V324c0-3.3-2.7-6-6-6h-53.6
	C230.3,318,227.6,320.6,227.6,324z M281.2,341.9h-14.8V330h14.8V341.9z M239.6,330h14.8v11.9h-14.8V330z M493.4,77.4h-66
	c-3.3,0-6,2.7-6,6V501c0,3.3,2.7,6,6,6h66c3.3,0,6-2.7,6-6V83.4C499.4,80.1,496.7,77.4,493.4,77.4z M487.4,495h-54v-10h6.8
	c3.3,0,6-2.7,6-6s-2.7-6-6-6h-6.8v-10h6.8c3.3,0,6-2.7,6-6s-2.7-6-6-6h-6.8v-10h6.8c3.3,0,6-2.7,6-6s-2.7-6-6-6h-6.8v-10h20.8
	c3.3,0,6-2.7,6-6s-2.7-6-6-6h-20.8v-10h6.8c3.3,0,6-2.7,6-6s-2.7-6-6-6h-6.8v-10h6.8c3.3,0,6-2.7,6-6s-2.7-6-6-6h-6.8v-10h6.8
	c3.3,0,6-2.7,6-6s-2.7-6-6-6h-6.8v-10h6.8c3.3,0,6-2.7,6-6s-2.7-6-6-6h-6.8v-10h20.8c3.3,0,6-2.7,6-6s-2.7-6-6-6h-20.8v-10h6.8
	c3.3,0,6-2.7,6-6s-2.7-6-6-6h-6.8v-10h6.8c3.3,0,6-2.7,6-6c0-3.3-2.7-6-6-6h-6.8v-10h6.8c3.3,0,6-2.7,6-6s-2.7-6-6-6h-6.8v-10h6.8
	c3.3,0,6-2.7,6-6s-2.7-6-6-6h-6.8v-10h20.8c3.3,0,6-2.7,6-6s-2.7-6-6-6h-20.8v-10h6.8c3.3,0,6-2.7,6-6s-2.7-6-6-6h-6.8v-10h6.8
	c3.3,0,6-2.7,6-6s-2.7-6-6-6h-6.8v-10h6.8c3.3,0,6-2.7,6-6s-2.7-6-6-6h-6.8v-10h6.8c3.3,0,6-2.7,6-6s-2.7-6-6-6h-6.8v-10h54
	L487.4,495L487.4,495z"/>
</svg>
