<?xml version="1.0" encoding="utf-8"?>
<!-- Generator: Adobe Illustrator 23.0.1, SVG Export Plug-In . SVG Version: 6.00 Build 0)  -->
<svg version="1.1" id="Capa_1" xmlns="http://www.w3.org/2000/svg" xmlns:xlink="http://www.w3.org/1999/xlink" x="0px" y="0px"
	 viewBox="0 0 64 64" style="enable-background:new 0 0 64 64;" xml:space="preserve">
<style type="text/css">
	.st0{fill:#F83D00;}
</style>
<g id="icons">
	<g>
		<g>
			<path class="st0" d="M0,51h64"/>
			<rect y="50" class="st0" width="64" height="2"/>
		</g>
		<g>
			<path class="st0" d="M24,7.5l39,6.9h1"/>
			<polygon class="st0" points="64,15.4 62.8,15.3 23.8,8.5 24.2,6.5 63.1,13.4 64,13.4 			"/>
		</g>
		<g>
			<path class="st0" d="M61,56V8"/>
			<rect x="60" y="8" class="st0" width="2" height="48"/>
		</g>
		<g>
			<path class="st0" d="M26,1.2L1,15.3H0"/>
			<polygon class="st0" points="1.3,16.3 0,16.3 0,14.3 0.7,14.3 25.5,0.3 26.5,2 			"/>
		</g>
		<g>
			<path class="st0" d="M3,56L3,8"/>
			<rect x="2" y="8" class="st0" width="2" height="48"/>
		</g>
		<g>
			<path class="st0" d="M24,2v50"/>
			<rect x="23" y="2" class="st0" width="2" height="50"/>
		</g>
		<g>
			<path class="st0" d="M0,26h64"/>
			<rect y="25" class="st0" width="64" height="2"/>
		</g>
		<g>
			<path class="st0" d="M0,30h64"/>
			<rect y="29" class="st0" width="64" height="2"/>
		</g>
		<g>
			<path class="st0" d="M31,38h30"/>
			<rect x="31" y="37" class="st0" width="30" height="2"/>
		</g>
		<g>
			<path class="st0" d="M37,38v13"/>
			<rect x="36" y="38" class="st0" width="2" height="13"/>
		</g>
		<g>
			<path class="st0" d="M45,38v13"/>
			<rect x="44" y="38" class="st0" width="2" height="13"/>
		</g>
		<g>
			<path class="st0" d="M53,38v13"/>
			<rect x="52" y="38" class="st0" width="2" height="13"/>
		</g>
		<g>
			<path class="st0" d="M3,19h8"/>
			<rect x="3" y="18" class="st0" width="8" height="2"/>
		</g>
		<g>
			<path class="st0" d="M11,10v16"/>
			<rect x="10" y="10" class="st0" width="2" height="16"/>
		</g>
		<g>
			<g>
				<path class="st0" d="M11.2,29.9L24,42.7"/>
				
					<rect x="16.6" y="27.2" transform="matrix(0.7071 -0.7071 0.7071 0.7071 -20.4927 23.0886)" class="st0" width="2" height="18.1"/>
			</g>
			<g>
				<path class="st0" d="M17.1,30.1L24,37"/>
				
					<rect x="19.5" y="28.7" transform="matrix(0.7071 -0.7071 0.7071 0.7071 -17.6961 24.3384)" class="st0" width="2" height="9.7"/>
			</g>
			<g>
				<path class="st0" d="M5.7,30l18.2,18.2"/>
				
					<rect x="13.8" y="26.2" transform="matrix(0.7071 -0.7071 0.7071 0.7071 -23.3329 21.9454)" class="st0" width="2" height="25.8"/>
			</g>
			<g>
				<path class="st0" d="M3.1,33.1l18.1,18.1"/>
				
					<rect x="11.2" y="29.4" transform="matrix(0.7071 -0.7071 0.7071 0.7071 -26.233 20.9475)" class="st0" width="2" height="25.6"/>
			</g>
			<g>
				<path class="st0" d="M2.9,38.5L15.4,51"/>
				<rect x="8.1" y="36" transform="matrix(0.7071 -0.7071 0.7071 0.7071 -28.9726 19.5624)" class="st0" width="2" height="17.6"/>
			</g>
			<g>
				<path class="st0" d="M3.2,44.5L9.7,51"/>
				
					<rect x="5.5" y="43.1" transform="matrix(0.7071 -0.7071 0.7071 0.7071 -31.8652 18.5458)" class="st0" width="2" height="9.2"/>
			</g>
		</g>
	</g>
	<g>
		<g>
			<circle class="st0" cx="39" cy="14" r="1"/>
		</g>
		<g>
			<circle class="st0" cx="39" cy="18" r="1"/>
		</g>
		<g>
			<circle class="st0" cx="39" cy="22" r="1"/>
		</g>
		<g>
			<circle class="st0" cx="61" cy="1" r="1"/>
		</g>
		<g>
			<circle class="st0" cx="61" cy="5" r="1"/>
		</g>
		<g>
			<circle class="st0" cx="3" cy="1" r="1"/>
		</g>
		<g>
			<circle class="st0" cx="3" cy="5" r="1"/>
		</g>
		<g>
			<circle class="st0" cx="61" cy="59" r="1"/>
		</g>
		<g>
			<circle class="st0" cx="61" cy="63" r="1"/>
		</g>
		<g>
			<circle class="st0" cx="3" cy="59" r="1"/>
		</g>
		<g>
			<circle class="st0" cx="3" cy="63" r="1"/>
		</g>
	</g>
	<g>
		<path class="st0" d="M29,38h-2"/>
		<rect x="27" y="37" class="st0" width="2" height="2"/>
	</g>
</g>
</svg>
