<?xml version="1.0" encoding="utf-8"?>
<!-- Generator: Adobe Illustrator 23.0.1, SVG Export Plug-In . SVG Version: 6.00 Build 0)  -->
<svg version="1.1" id="Layer_1" xmlns="http://www.w3.org/2000/svg" xmlns:xlink="http://www.w3.org/1999/xlink" x="0px" y="0px"
	 viewBox="0 0 512 512" style="enable-background:new 0 0 512 512;" xml:space="preserve">
<style type="text/css">
	.st0{fill-rule:evenodd;clip-rule:evenodd;fill:#F83D00;}
</style>
<path class="st0" d="M296.8,143.1l16.5-21.7V87.2H202.9v34.1l16.5,21.7H258c-3.3,0-6,2.7-6,6V183c0,2.2,1.2,4.2,3.1,5.2
	c4.9,3.3,9.1,7.1,13,11.3c3.9,4.3,7.4,9.1,10.6,14.2c1.7,2.8,2.4,5.5,2.4,8.2c0,3.2-1,6.2-2.8,9c-1.9,2.9-4.5,5.5-7.7,7.4
	c-3.7,2.3-8.1,3.6-12.5,3.6c-6.6,0-12.6-2.7-16.9-7c-4.3-4.3-7-10.3-7-16.9c0-3.3-2.7-6-6-6s-6,2.7-6,6c0,9.9,4,18.9,10.5,25.4
	c2.3,2.3,4.9,4.3,7.8,5.9L68.1,327.2c-2.3,0.9-3.9,3-3.9,5.6v155.1c0,3.3,2.7,6,6,6s6-2.7,6-6V336.6l181.8-82.1l181.8,82.1v151.2
	c0,3.3,2.7,6,6,6s6-2.7,6-6V332.8c0-2.6-1.6-4.8-3.9-5.6l-172.5-77.9c0.4-0.2,0.9-0.5,1.3-0.8c4.7-2.9,8.7-6.7,11.5-11.1
	c3-4.6,4.7-9.9,4.7-15.4c0-4.8-1.3-9.7-4.2-14.4c-3.5-5.7-7.4-11.1-12-16.1c-3.9-4.2-8.1-8.1-12.8-11.5v-30.8c0-3.3-2.7-6-6-6
	L296.8,143.1z M283.1,24.9v50.3h12V24.9c0-3.3-2.7-6-6-6S283.1,21.5,283.1,24.9z M233,75.2V24.9c0-3.3-2.7-6-6-6c-3.3,0-6,2.7-6,6
	v50.3H233z M487.4,434h-27.7v32.6h27.7V434z M459.6,338.8v32.6h27.7v-32.6H459.6z M56.5,371.4v-32.6H29.4v32.6H56.5z M84,371.4
	v-29.8l6.3-2.8h335.6l6.3,2.8v29.8H84z M109.2,422c1.7-3.2,2.7-6.9,2.7-10.8v-17.1c0-3.9-1-7.5-2.7-10.8h298.4
	c-1.7,3.2-2.7,6.9-2.7,10.8v17.1c0,3.9,1,7.5,2.7,10.8H109.2z M56.5,466.6V434H29.4v32.6H56.5z M432.2,434v32.6H84V434H432.2z"/>
</svg>
