<?xml version="1.0" encoding="utf-8"?>
<!-- Generator: Adobe Illustrator 23.0.1, SVG Export Plug-In . SVG Version: 6.00 Build 0)  -->
<svg version="1.1" id="Layer_1" xmlns="http://www.w3.org/2000/svg" xmlns:xlink="http://www.w3.org/1999/xlink" x="0px" y="0px"
	 viewBox="0 0 512 512" style="enable-background:new 0 0 512 512;" xml:space="preserve">
<style type="text/css">
	.st0{fill:#F83D00;}
</style>
<path class="st0" d="M159.2,280c6.4-4.8,13.6-7.2,21.6-8.8l42.4-7.2c10.4,4.8,21.6,7.2,32.8,7.2s22.4-2.4,32.8-7.2l42.4,7.2
	c13.6,2.4,26.4,9.6,34.4,21.6c1.6,2.4,7.2,5.6,11.2,1.6c3.2-3.2,4-7.2,1.6-11.2c-10.4-15.2-26.4-24.8-44.8-28l-37.6-5.6V220
	c16.8-11.2,28-28.8,31.2-49.6c0.8-4-2.4-8.8-6.4-8.8c-4-0.8-8.8,2.4-8.8,6.4c-4,27.2-28,48-55.2,48s-51.2-20.8-55.2-48
	c-0.8-4-4.8-7.2-8.8-6.4s-7.2,4.8-6.4,8.8c3.2,20.8,15.2,38.4,31.2,49.6v29.6l-40,6.4c-10.4,1.6-19.2,5.6-28,11.2
	c-4,2.4-4.8,7.2-2.4,11.2C150.4,282.4,157.6,280.8,159.2,280L159.2,280z M232,228c7.2,2.4,16,4,24,4s16.8-1.6,24-4v23.2
	c-15.2,6.4-32.8,6.4-48,0V228z"/>
<path class="st0" d="M176,152h160c13.6,0,24-10.4,24-24c0-10.4-7.2-19.2-16.8-22.4c-0.8-12.8-4.8-24.8-10.4-36
	c-2.4-4-7.2-5.6-11.2-3.2s-5.6,7.2-3.2,11.2c4.8,8,7.2,17.6,8.8,27.2H184.8c3.2-27.2,21.6-50.4,47.2-60V80c0,4.8,3.2,8,8,8
	s8-3.2,8-8V24h16v56c0,4.8,3.2,8,8,8s8-3.2,8-8V44c7.2,2.4,13.6,5.6,19.2,10.4c1.6,0.8,7.2,4,11.2-1.6c2.4-3.2,1.6-8.8-1.6-11.2
	c-8.8-6.4-18.4-11.2-28.8-14.4V16c0-4.8-3.2-8-8-8h-32c-4.8,0-8,3.2-8,8v11.2c-36,10.4-60.8,40.8-64,77.6c-9.6,3.2-16,12-16,22.4
	C152,141.6,162.4,152,176,152L176,152z M176,120h160c4.8,0,8,3.2,8,8s-3.2,8-8,8H176c-4.8,0-8-3.2-8-8S171.2,120,176,120z"/>
<path class="st0" d="M400,432c-4.8,0-8,3.2-8,8v44.8l-80-26.4V299.2l80,26.4V344c0,4.8,3.2,8,8,8s8-3.2,8-8v-24
	c0-3.2-2.4-6.4-5.6-7.2l-93.6-31.2c-2.4-0.8-6.4-0.8-9.6,0L208,311.2L114.4,280c-2.4-0.8-4.8-0.8-7.2,0.8c-1.6,2.4-3.2,4.8-3.2,7.2
	v56c0,4.8,3.2,8,8,8s8-3.2,8-8v-44.8l80,26.4V392c0,4.8,3.2,8,8,8s8-3.2,8-8v-66.4l80-26.4v159.2l-80,26.4V464c0-4.8-3.2-8-8-8
	s-8,3.2-8,8v20.8l-80-26.4v-17.6c0-4.8-3.2-8-8-8s-8,3.2-8,8V464c0,3.2,2.4,6.4,5.6,7.2l94.4,31.2c2.4,0.8,6.4,0.8,8.8,0l91.2-29.6
	l93.6,31.2c0.8,0,4,1.6,7.2-0.8c2.4-1.6,3.2-4,3.2-6.4v-56C408,435.2,404.8,432,400,432L400,432z"/>
<path class="st0" d="M400,360c-13.6,0-24,10.4-24,24v16c0,13.6,10.4,24,24,24s24-10.4,24-24v-16C424,370.4,413.6,360,400,360z
	 M408,400c0,4.8-3.2,8-8,8s-8-3.2-8-8v-16c0-4.8,3.2-8,8-8s8,3.2,8,8V400z"/>
<path class="st0" d="M136,400v-16c0-13.6-10.4-24-24-24s-24,10.4-24,24v16c0,13.6,10.4,24,24,24S136,413.6,136,400z M104,400v-16
	c0-4.8,3.2-8,8-8s8,3.2,8,8v16c0,4.8-3.2,8-8,8S104,404.8,104,400z"/>
<path class="st0" d="M208,448c4.8,0,8-3.2,8-8v-19.2c0-4.8-3.2-8-8-8s-8,3.2-8,8V440C200,444,203.2,448,208,448z"/>
</svg>
