<?xml version="1.0" encoding="utf-8"?>
<!-- Generator: Adobe Illustrator 23.0.1, SVG Export Plug-In . SVG Version: 6.00 Build 0)  -->
<svg version="1.1" id="svg14514" xmlns:svg="http://www.w3.org/2000/svg"
	 xmlns="http://www.w3.org/2000/svg" xmlns:xlink="http://www.w3.org/1999/xlink" x="0px" y="0px" viewBox="0 0 512 512"
	 style="enable-background:new 0 0 512 512;" xml:space="preserve">
<style type="text/css">
	.st0{fill:#F83D00;}
</style>
<g id="layer1" transform="translate(0 -280.067)">
	<path id="path12703" vector-effect="none" class="st0" d="M336.1,623.9V568c0-1-0.2-2-0.6-3l-32-80c-1.7-4.3-3.7-9-7.2-13.2
		c-3-3.6-7.4-7-13.2-7.5l4.5-13.7c2.8-8.5,6.1-15.4,18.6-22.7l72.7-45.9c4.3-2.7,4.6-7.7,2.4-11.1c-2.2-3.3-6.9-5-10.9-2.4
		L298,414.1c-15.7,9.1-22.2,21.2-25.6,31.4l-6.2,18.5h-62.9l10.4-29.3c5.1-14.4,15.4-29.2,29.4-35.4l144.5-59.1
		c0.2,0.6,0.3,1.1,0.5,1.7L455,526.7l-69.4,92.5c-4,5.3-0.2,12.8,6.4,12.8h48c30.9,0,56-25.1,56-56v-16c0-10.7-16-10.7-16,0v16
		c0,22.3-17.7,40-40,40h-32l59.9-80l20,0c5,0,8.8-4.6,7.8-9.5l-38.2-203.3c-3.3-17.6-20.7-29.9-40.2-26.9
		c-16.7,2.6-26.8,14.5-30,26.7l-150.6,61.6c-19.9,8.7-32,27.4-38.2,44.7L186.4,464H184c-14.5,0-21,11.4-23.8,22.6l-14.4,57.4H40
		c-13.2,0-24,10.8-24,24v56c0,13.2,10.9,24,24,24h24v16.7c-27.1,3.9-48,27.2-48,55.3c0,30.9,25.2,56,56,56h248c30.9,0,56-25.1,56-56
		c0-30.9-25.1-56-56-56h-8l0-16C325.2,648.1,336.4,637.3,336.1,623.9L336.1,623.9z M441.9,326.2l36.5,193.8l-8.7,0l-66.4-183.5
		c-3.5-9.8,3.6-22,16.4-24.2C430.5,310.5,440.2,317.2,441.9,326.2L441.9,326.2z M424,328.1c-4.4,0-8,3.6-8,8s3.6,8,8,8
		c4.4,0,8-3.6,8-8C432,331.6,428.4,328.1,424,328.1z M312,632.1H40c-4.6,0-8-3.4-8-8v-56c0-4.6,3.5-8,8-8h112c3.7,0,6.9-2.5,7.8-6.1
		l16.1-64.5c1.5-6.1,3.6-9.4,8.1-9.4h96c2.1,0,2.5,0.4,3.9,2.1c1.4,1.7,3.1,5,4.7,8.9l31.4,78.5v54.6
		C320.1,628.6,316.6,632.1,312,632.1L312,632.1z M200,496.1c-3.6,0-6.8,2.4-7.7,6l-12.8,48c-1.4,5.1,2.5,10.1,7.7,10.1H224v24
		c0,1.6,0.5,3.1,1.4,4.4l16,24c1.5,2.2,4,3.6,6.7,3.5h48c4.4,0,8-3.6,8-8v-32c0-1.1-0.2-2.1-0.7-3.1l-30.3-72
		c-1.3-3-4.2-4.9-7.4-4.9L200,496.1z M206.2,512.1H224v32h-26.4L206.2,512.1z M240,512.1h20.4l27.6,65.6v22.4h-35.7L240,581.6V552
		L240,512.1z M55.9,575.9c-4.4,0.1-8,3.7-7.9,8.1v24c-0.2,10.9,16.2,10.9,16,0v-24C64,579.5,60.4,575.9,55.9,575.9z M87.9,575.9
		c-4.4,0.1-8,3.7-7.9,8.1v24c-0.2,10.9,16.2,10.9,16,0v-24C96.1,579.5,92.4,575.9,87.9,575.9z M119.9,575.9
		c-4.4,0.1-7.9,3.7-7.9,8.1v24c0.2,10.4,15.8,10.4,16,0v-24C128.1,579.5,124.4,575.9,119.9,575.9z M80,648.1h216v16h-40
		c-10.7,0-10.7,16,0,16h64c22.3,0,40,17.7,40,40c0,22.3-17.7,40-40,40H72c-22.3,0-40-17.7-40-40c0-22.3,17.7-40,40-40h152
		c10.7,0,10.7-16,0-16H80L80,648.1z M88,696.1c-13.2,0-24,10.8-24,24c0,13.2,10.9,24,24,24c13.2,0,24-10.9,24-24
		C112,706.9,101.2,696.1,88,696.1z M160,696.1c-13.2,0-24,10.8-24,24c0,13.2,10.9,24,24,24c13.2,0,24-10.9,24-24
		C184,706.9,173.2,696.1,160,696.1z M232,696.1c-13.2,0-24,10.8-24,24c0,13.2,10.8,24,24,24s24-10.9,24-24
		C256,706.9,245.2,696.1,232,696.1L232,696.1z M304,696.1c-13.2,0-24,10.8-24,24c0,13.2,10.8,24,24,24c13.2,0,24-10.9,24-24
		C328,706.9,317.1,696.1,304,696.1z M88,712.1c4.5,0,8,3.5,8,8c0,4.5-3.5,8-8,8c-4.5,0-8-3.5-8-8C80,715.5,83.5,712.1,88,712.1z
		 M160,712.1c4.5,0,8,3.5,8,8c0,4.5-3.5,8-8,8c-4.5,0-8-3.5-8-8C152,715.5,155.5,712.1,160,712.1z M232,712.1c4.5,0,8,3.5,8,8
		c0,4.5-3.5,8-8,8s-8-3.5-8-8C224,715.5,227.5,712.1,232,712.1z M304,712.1c4.5,0,8,3.5,8,8c0,4.5-3.5,8-8,8c-4.5,0-8-3.5-8-8
		C296,715.5,299.5,712.1,304,712.1L304,712.1z"/>
</g>
</svg>
