<?xml version="1.0" encoding="UTF-8"?>
<svg id="Capa_1" xmlns="http://www.w3.org/2000/svg" version="1.1" viewBox="0 0 554 211.62">
  <!-- Generator: Adobe Illustrator 29.7.1, SVG Export Plug-In . SVG Version: 2.1.1 Build 8)  -->
  <defs>
    <style>
      .st0 {
        fill: #606060;
      }
    </style>
  </defs>
  <rect class="st0" x="501.47" y="112.38" width="19.02" height="19"/>
  <path class="st0" d="M322.91,68.47c3.46-4.07,7.13-7.86,12.22-9.87,10.37-4.1,26.85-1.69,31,10.12,4.87-5.98,11.05-11.27,19.13-11.85,17.1-1.23,28.4,6.38,29.29,24.05v50.46h-20.02v-45.77c-.37-7-2.7-12.41-10.49-12.95-10.21-.71-14.13,5.89-14.72,15.17v43.55s-19.99,0-19.99,0v-45.53c-.16-8.48-3.58-13.9-12.73-13.2-6.29.48-12.46,6.57-12.46,12.96v45.76h-20V58.6h18.77v9.87Z"/>
  <path class="st0" d="M97.18,131.38h-20.25l-1.36-6.66c-8.91,9.69-30.03,11.64-40.71,4.39-7.8-5.3-10-15.88-7.45-24.62,4.38-15.02,23.54-14.58,36.02-16.57,7.08-1.13,13.79-2.94,10.96-11.86-1.24-3.92-5.11-5.56-8.95-5.86-8.4-.66-15.96,1.14-16.67,10.85h-20c.39-13.9,11.21-21.43,23.9-23.61,13.83-2.38,40.62-1.22,42.25,17.35,1.34,16.31-2.02,35.79.84,51.71.32,1.77.87,3.21,1.41,4.88ZM74.95,96.1c-8.11,5.65-29.58.63-28.39,15.66.79,10.05,16.19,10.04,22.45,5.66,6.93-4.85,5.9-13.85,5.95-21.32Z"/>
  <path class="st0" d="M494.56,131.38h-20.13c-1.05-1.8-1.09-4.03-1.36-6.05-.05-.34.14-.43-.36-.36-9.58,9.64-31.76,11.75-42.23,2.95-6.41-5.38-8.04-14.73-6.09-22.6,3.96-16.01,23.7-15.34,36.64-17.43,3.97-.64,10.5-1.84,11.06-6.71.76-6.64-3.1-10.49-9.51-10.98-6.25-.47-13.42.17-15.8,6.91-.46,1.32-.43,2.82-.99,3.94h-19.88c.5-13.3,10.41-20.93,22.67-23.36,13.76-2.73,41.77-1.83,43.49,16.86,1.25,13.58-.86,28.9.02,42.66.58,4.74.18,9.84,2.48,14.18ZM472.08,96.1c-7.66,5.49-27.96.86-28.4,14.19-.33,9.92,10.89,11.06,18.28,9.12,10.7-2.81,10.46-14.36,10.12-23.32Z"/>
  <path class="st0" d="M253.46,56.7c21.42-1.5,38.48,10.3,41.02,32.15,3.17,27.31-13.27,46.23-41.1,44.51-44.79-2.77-45.18-73.49.08-76.66ZM256.93,71.73c-16.53.3-18.93,19.65-16.18,32.31,1.56,7.17,6.29,13.62,14.13,14.26,16.77,1.36,20.75-12.84,19.88-26.76-.67-10.63-6.02-20.02-17.82-19.81Z"/>
  <path class="st0" d="M117.83,56.65l25.16,24.9,24.98-24.9,13.32,13.06-24.83,25.29,24.92,24.95-13.44,13.65-24.98-24.9-25.16,24.9-13.46-13.44,24.92-24.95-24.92-25.13,13.49-13.43ZM142.78,81.81l-13.24,13.18,13.46,13.44,13.2-13.41-13.41-13.21Z"/>
  <rect class="st0" x="190.78" y="58.85" width="19.76" height="72.53"/>
  <rect class="st0" x="190.78" y="29.74" width="19.76" height="19.74"/>
  <path class="st0" d="M408.12,172.09h-4.45v-10.49c0-1.4-1.79-2.26-3.07-2.09s-2.37,1.67-2.37,2.83v9.74h-4.45v-10.98c0-.85-1.72-1.65-2.56-1.59-.92.07-2.62,1.15-2.62,2.09v10.49h-4.45v-15.54h4.2v1.73c2.44-2.9,7.22-3.28,9.26.24,2.07-3.27,8.29-3.51,9.88.25.13.32.62,1.89.62,2.1v11.23Z"/>
  <path class="st0" d="M261.29,173.07c.28.09.78,1.54,2.33,1.86,3.67.77,4.69-2.23,4.21-5.32-1.62,1.67-3.21,2.2-5.55,1.97-6.06-.58-7.14-8.99-4.04-13.15,2.23-3,7.07-3.39,9.47-.41l.49-1.73h3.83v16.65c0,.71-1.12,2.55-1.67,3.09-3.33,3.19-12.95,2.94-13.14-2.96,1.04.2,3.21-.27,4.08,0ZM263.82,159.31c-4.14.6-3.86,9.23.67,9.09,1.49-.05,3.1-1.39,3.33-2.86.44-2.85-.31-6.75-4-6.22Z"/>
  <path class="st0" d="M433.31,150.62v7.65c.48-.36.56-.77,1.15-1.19,3.62-2.54,8.21-.61,9.66,3.34,2.85,7.78-3.41,16.3-11.06,10.18v1.73h-3.83l-.37-.37v-21.34h4.45ZM436.21,159.31c-3.93.65-4,8.86-.39,9.9,5.91,1.7,6.16-10.85.39-9.9Z"/>
  <path class="st0" d="M348.6,172.09h-4.45c.11-2.26-.38-.88-1.31-.44-4.24,1.99-10.09.95-9.29-4.84.57-4.13,5.95-3.45,8.82-4.26s1.41-4.23-2.24-3.47c-1.56.32-1.39,1.28-2.03,2.41h-4.08c-.87-6.6,13.28-7.15,14.06-2.08.6,3.87-.65,8.71.51,12.69ZM343.9,164.69c-1.77.85-6.01.2-6.1,2.88-.07,2.07,2.24,2.31,3.84,1.89,2.27-.6,2.27-2.78,2.27-4.76Z"/>
  <path class="st0" d="M483.69,172.09h-4.45c.11-2.26-.38-.88-1.31-.44-4.24,1.99-10.09.95-9.29-4.84.57-4.13,5.95-3.45,8.82-4.26s1.41-4.23-2.24-3.47c-1.56.32-1.39,1.28-2.03,2.41h-4.08c-.87-6.6,13.28-7.15,14.06-2.08.6,3.87-.65,8.71.51,12.69ZM479,164.69c-1.77.85-6.01.2-6.1,2.88-.07,2.07,2.24,2.31,3.84,1.89,2.27-.6,2.27-2.78,2.27-4.76Z"/>
  <path class="st0" d="M519.5,172.09h-4.45c.11-2.26-.38-.88-1.31-.44-4.24,1.99-10.09.95-9.29-4.84.57-4.13,5.95-3.45,8.82-4.26s1.41-4.23-2.24-3.47c-1.56.32-1.39,1.28-2.03,2.41h-4.08c-.87-6.6,13.28-7.15,14.06-2.08.6,3.87-.65,8.71.51,12.69ZM514.81,164.69c-1.77.85-6.01.2-6.1,2.88-.07,2.07,2.24,2.31,3.84,1.89,2.27-.6,2.27-2.78,2.27-4.76Z"/>
  <path class="st0" d="M240.42,165.43h-11.36c-.09,3.69,3.68,5.06,6.48,2.96.25-.19.61-.99.81-.99h3.58c-.54,2.99-3.11,4.89-6.05,5.18-11.73,1.16-11.92-15.39-2.44-16.5,5.99-.7,9.12,3.79,8.99,9.35ZM235.98,162.71c-.6-4.69-6.4-4.55-6.92,0h6.92Z"/>
  <path class="st0" d="M290.31,165.43h-11.36c-.09,3.69,3.68,5.06,6.48,2.96.25-.19.61-.99.81-.99h3.58c-.54,2.99-3.11,4.89-6.05,5.18-11.73,1.16-11.92-15.39-2.44-16.5,5.99-.7,9.12,3.79,8.99,9.35ZM285.87,162.71c-.6-4.69-6.4-4.55-6.92,0h6.92Z"/>
  <path class="st0" d="M416.95,156.12c12.11-1.65,12.61,15.13,3.33,16.4-12.34,1.69-12.74-15.12-3.33-16.4ZM417.93,159.32c-3.22.51-3.65,5.08-2.78,7.59,1.28,3.66,6.46,3.16,7.02-.88.41-3-.25-7.34-4.24-6.71Z"/>
  <path class="st0" d="M381.2,172.09h-4.45v-10.49c0-1.44-1.78-2.22-3.06-2.08-1.48.16-2.87,1.62-2.87,3.07v9.5h-4.45v-15.54h4.2l.12,1.97c1.61-3.02,7.37-3.41,9.37-.73.37.49,1.13,2.55,1.13,3.07v11.23Z"/>
  <path class="st0" d="M212.27,172.09h-4.45v-10.49c0-1.44-1.78-2.22-3.06-2.08-1.48.16-2.87,1.62-2.87,3.07v9.5h-4.45v-15.54h4.2l.12,1.97c1.61-3.02,7.37-3.41,9.37-.73.37.49,1.13,2.55,1.13,3.07v11.23Z"/>
  <path class="st0" d="M306.86,172.09h-4.45v-10.49c0-1.44-1.78-2.22-3.06-2.08-1.48.16-2.87,1.62-2.87,3.07v9.5h-4.45v-15.54h4.2l.12,1.97c1.61-3.02,7.37-3.41,9.37-.73.37.49,1.13,2.55,1.13,3.07v11.23Z"/>
  <path class="st0" d="M324.64,161.97h-4.45c-.17-2.34-2.42-3.26-4.45-2.34-3.45,1.56-3.03,10.75,2.24,9.64,1.67-.35,2.1-1.59,2.46-3.1h4.2c-.69,8.31-13.05,8.66-15.14.94-.71-2.62-.26-6.14,1.46-8.32,3.71-4.69,13.15-3.39,13.69,3.19Z"/>
  <path class="st0" d="M220.66,151.86v4.69l2.97.14v2.82s-2.97,0-2.97,0v8.51c0,.99,2.27,1.09,2.96.62-.15.75.38,3.41-.4,3.67-1.77.39-7-.02-7-2.56v-10.24l-2.72-.14v-2.82s2.72,0,2.72,0v-4.69h4.45Z"/>
  <rect class="st0" x="242.4" y="150.62" width="4.45" height="21.46"/>
  <rect class="st0" x="454.55" y="150.62" width="4.45" height="21.46"/>
  <path class="st0" d="M496.29,156.05v4.19c-1.93-.69-4.41.09-5.24,2.04-.08.19-.44,1.44-.44,1.53v8.26h-4.45v-15.42l.37-.37h3.83l.12,2.71c1.32-2.09,3.25-3.29,5.8-2.96Z"/>
  <rect class="st0" x="249.81" y="156.55" width="4.45" height="15.54"/>
  <rect class="st0" x="497.77" y="156.55" width="4.45" height="15.54"/>
  <rect class="st0" x="461.96" y="156.55" width="4.45" height="15.54"/>
  <rect class="st0" x="447.14" y="156.55" width="4.45" height="15.54"/>
  <rect class="st0" x="359.22" y="156.55" width="4.45" height="15.54"/>
  <rect class="st0" x="326.86" y="156.55" width="4.45" height="15.54"/>
  <rect class="st0" x="190.29" y="156.55" width="4.45" height="15.54"/>
  <rect class="st0" x="249.81" y="150.62" width="4.45" height="3.45"/>
  <rect class="st0" x="461.96" y="150.62" width="4.45" height="3.45"/>
  <rect class="st0" x="497.77" y="150.62" width="4.45" height="3.45"/>
  <rect class="st0" x="447.14" y="150.62" width="4.45" height="3.45"/>
  <rect class="st0" x="359.22" y="150.62" width="4.45" height="3.45"/>
  <rect class="st0" x="326.86" y="150.62" width="4.45" height="3.45"/>
  <rect class="st0" x="190.29" y="150.62" width="4.45" height="3.45"/>
</svg>