<?xml version="1.0" encoding="utf-8"?>
<!-- Generator: Adobe Illustrator 23.0.1, SVG Export Plug-In . SVG Version: 6.00 Build 0)  -->
<svg version="1.1" id="Capa_1" xmlns="http://www.w3.org/2000/svg" xmlns:xlink="http://www.w3.org/1999/xlink" x="0px" y="0px"
	 viewBox="0 0 554 211.6" style="enable-background:new 0 0 554 211.6;" xml:space="preserve">
<style type="text/css">
	.st0{fill:#FFFFFF;}
</style>
<rect x="501.5" y="112.4" class="st0" width="19" height="19"/>
<path class="st0" d="M322.9,68.5c3.5-4.1,7.1-7.9,12.2-9.9c10.4-4.1,26.9-1.7,31,10.1c4.9-6,11-11.3,19.1-11.8
	c17.1-1.2,28.4,6.4,29.3,24v50.5h-20V85.6c-0.4-7-2.7-12.4-10.5-12.9c-10.2-0.7-14.1,5.9-14.7,15.2v43.6h-20V85.8
	c-0.2-8.5-3.6-13.9-12.7-13.2c-6.3,0.5-12.5,6.6-12.5,13v45.8h-20V58.6h18.8L322.9,68.5L322.9,68.5z"/>
<path class="st0" d="M97.2,131.4H76.9l-1.4-6.7c-8.9,9.7-30,11.6-40.7,4.4c-7.8-5.3-10-15.9-7.5-24.6c4.4-15,23.5-14.6,36-16.6
	c7.1-1.1,13.8-2.9,11-11.9c-1.2-3.9-5.1-5.6-8.9-5.9c-8.4-0.7-16,1.1-16.7,10.8h-20C29.2,67.1,40,59.6,52.7,57.4
	c13.8-2.4,40.6-1.2,42.2,17.3c1.3,16.3-2,35.8,0.8,51.7C96.1,128.3,96.6,129.7,97.2,131.4L97.2,131.4z M74.9,96.1
	c-8.1,5.7-29.6,0.6-28.4,15.7c0.8,10.1,16.2,10,22.4,5.7C75.9,112.6,74.9,103.6,74.9,96.1L74.9,96.1z"/>
<path class="st0" d="M494.6,131.4h-20.1c-1-1.8-1.1-4-1.4-6.1c0-0.3,0.1-0.4-0.4-0.4c-9.6,9.6-31.8,11.8-42.2,2.9
	c-6.4-5.4-8-14.7-6.1-22.6c4-16,23.7-15.3,36.6-17.4c4-0.6,10.5-1.8,11.1-6.7c0.8-6.6-3.1-10.5-9.5-11c-6.2-0.5-13.4,0.2-15.8,6.9
	c-0.5,1.3-0.4,2.8-1,3.9h-19.9c0.5-13.3,10.4-20.9,22.7-23.4c13.8-2.7,41.8-1.8,43.5,16.9c1.2,13.6-0.9,28.9,0,42.7
	C492.7,121.9,492.3,127,494.6,131.4L494.6,131.4z M472.1,96.1c-7.7,5.5-28,0.9-28.4,14.2c-0.3,9.9,10.9,11.1,18.3,9.1
	C472.7,116.6,472.4,105,472.1,96.1L472.1,96.1z"/>
<path class="st0" d="M253.5,56.7c21.4-1.5,38.5,10.3,41,32.2c3.2,27.3-13.3,46.2-41.1,44.5C208.6,130.6,208.2,59.9,253.5,56.7z
	 M256.9,71.7C240.4,72,238,91.4,240.8,104c1.6,7.2,6.3,13.6,14.1,14.3c16.8,1.4,20.8-12.8,19.9-26.8
	C274.1,80.9,268.7,71.5,256.9,71.7L256.9,71.7z"/>
<path class="st0" d="M117.8,56.6L143,81.5l25-24.9l13.3,13.1L156.5,95l24.9,24.9l-13.4,13.6l-25-24.9l-25.2,24.9l-13.5-13.4
	l24.9-24.9l-24.9-25.1C104.3,70.1,117.8,56.6,117.8,56.6z M142.8,81.8L129.5,95l13.5,13.4L156.2,95L142.8,81.8L142.8,81.8z"/>
<rect x="190.8" y="58.8" class="st0" width="19.8" height="72.5"/>
<rect x="190.8" y="29.7" class="st0" width="19.8" height="19.7"/>
<path class="st0" d="M408.1,172.1h-4.5v-10.5c0-1.4-1.8-2.3-3.1-2.1s-2.4,1.7-2.4,2.8v9.7h-4.5v-11c0-0.9-1.7-1.6-2.6-1.6
	c-0.9,0.1-2.6,1.1-2.6,2.1v10.5h-4.5v-15.5h4.2v1.7c2.4-2.9,7.2-3.3,9.3,0.2c2.1-3.3,8.3-3.5,9.9,0.2c0.1,0.3,0.6,1.9,0.6,2.1
	L408.1,172.1L408.1,172.1z"/>
<path class="st0" d="M261.3,173.1c0.3,0.1,0.8,1.5,2.3,1.9c3.7,0.8,4.7-2.2,4.2-5.3c-1.6,1.7-3.2,2.2-5.5,2c-6.1-0.6-7.1-9-4-13.1
	c2.2-3,7.1-3.4,9.5-0.4l0.5-1.7h3.8v16.6c0,0.7-1.1,2.6-1.7,3.1c-3.3,3.2-13,2.9-13.1-3C258.3,173.3,260.4,172.8,261.3,173.1
	L261.3,173.1z M263.8,159.3c-4.1,0.6-3.9,9.2,0.7,9.1c1.5-0.1,3.1-1.4,3.3-2.9C268.3,162.7,267.5,158.8,263.8,159.3L263.8,159.3z"/>
<path class="st0" d="M433.3,150.6v7.6c0.5-0.4,0.6-0.8,1.1-1.2c3.6-2.5,8.2-0.6,9.7,3.3c2.9,7.8-3.4,16.3-11.1,10.2v1.7h-3.8
	l-0.4-0.4v-21.3L433.3,150.6L433.3,150.6z M436.2,159.3c-3.9,0.6-4,8.9-0.4,9.9C441.7,170.9,442,158.4,436.2,159.3z"/>
<path class="st0" d="M348.6,172.1h-4.5c0.1-2.3-0.4-0.9-1.3-0.4c-4.2,2-10.1,0.9-9.3-4.8c0.6-4.1,6-3.4,8.8-4.3s1.4-4.2-2.2-3.5
	c-1.6,0.3-1.4,1.3-2,2.4H334c-0.9-6.6,13.3-7.1,14.1-2.1C348.7,163.3,347.4,168.1,348.6,172.1L348.6,172.1z M343.9,164.7
	c-1.8,0.9-6,0.2-6.1,2.9c-0.1,2.1,2.2,2.3,3.8,1.9C343.9,168.9,343.9,166.7,343.9,164.7L343.9,164.7z"/>
<path class="st0" d="M483.7,172.1h-4.5c0.1-2.3-0.4-0.9-1.3-0.4c-4.2,2-10.1,0.9-9.3-4.8c0.6-4.1,6-3.4,8.8-4.3s1.4-4.2-2.2-3.5
	c-1.6,0.3-1.4,1.3-2,2.4h-4.1c-0.9-6.6,13.3-7.1,14.1-2.1C483.8,163.3,482.5,168.1,483.7,172.1L483.7,172.1z M479,164.7
	c-1.8,0.9-6,0.2-6.1,2.9c-0.1,2.1,2.2,2.3,3.8,1.9C479,168.9,479,166.7,479,164.7L479,164.7z"/>
<path class="st0" d="M519.5,172.1H515c0.1-2.3-0.4-0.9-1.3-0.4c-4.2,2-10.1,0.9-9.3-4.8c0.6-4.1,6-3.4,8.8-4.3
	c2.9-0.8,1.4-4.2-2.2-3.5c-1.6,0.3-1.4,1.3-2,2.4h-4.1c-0.9-6.6,13.3-7.1,14.1-2.1C519.6,163.3,518.3,168.1,519.5,172.1L519.5,172.1
	z M514.8,164.7c-1.8,0.9-6,0.2-6.1,2.9c-0.1,2.1,2.2,2.3,3.8,1.9C514.8,168.9,514.8,166.7,514.8,164.7L514.8,164.7z"/>
<path class="st0" d="M240.4,165.4h-11.4c-0.1,3.7,3.7,5.1,6.5,3c0.2-0.2,0.6-1,0.8-1h3.6c-0.5,3-3.1,4.9-6.1,5.2
	c-11.7,1.2-11.9-15.4-2.4-16.5C237.4,155.4,240.6,159.9,240.4,165.4L240.4,165.4z M236,162.7c-0.6-4.7-6.4-4.6-6.9,0H236z"/>
<path class="st0" d="M290.3,165.4H279c-0.1,3.7,3.7,5.1,6.5,3c0.2-0.2,0.6-1,0.8-1h3.6c-0.5,3-3.1,4.9-6,5.2
	c-11.7,1.2-11.9-15.4-2.4-16.5C287.3,155.4,290.5,159.9,290.3,165.4L290.3,165.4z M285.9,162.7c-0.6-4.7-6.4-4.6-6.9,0H285.9z"/>
<path class="st0" d="M417,156.1c12.1-1.6,12.6,15.1,3.3,16.4C407.9,174.2,407.5,157.4,417,156.1z M417.9,159.3
	c-3.2,0.5-3.6,5.1-2.8,7.6c1.3,3.7,6.5,3.2,7-0.9C422.6,163,421.9,158.7,417.9,159.3L417.9,159.3z"/>
<path class="st0" d="M381.2,172.1h-4.5v-10.5c0-1.4-1.8-2.2-3.1-2.1c-1.5,0.2-2.9,1.6-2.9,3.1v9.5h-4.5v-15.5h4.2l0.1,2
	c1.6-3,7.4-3.4,9.4-0.7c0.4,0.5,1.1,2.6,1.1,3.1L381.2,172.1L381.2,172.1z"/>
<path class="st0" d="M212.3,172.1h-4.4v-10.5c0-1.4-1.8-2.2-3.1-2.1c-1.5,0.2-2.9,1.6-2.9,3.1v9.5h-4.4v-15.5h4.2l0.1,2
	c1.6-3,7.4-3.4,9.4-0.7c0.4,0.5,1.1,2.6,1.1,3.1L212.3,172.1L212.3,172.1z"/>
<path class="st0" d="M306.9,172.1h-4.5v-10.5c0-1.4-1.8-2.2-3.1-2.1c-1.5,0.2-2.9,1.6-2.9,3.1v9.5H292v-15.5h4.2l0.1,2
	c1.6-3,7.4-3.4,9.4-0.7c0.4,0.5,1.1,2.6,1.1,3.1L306.9,172.1L306.9,172.1z"/>
<path class="st0" d="M324.6,162h-4.5c-0.2-2.3-2.4-3.3-4.5-2.3c-3.5,1.6-3,10.8,2.2,9.6c1.7-0.4,2.1-1.6,2.5-3.1h4.2
	c-0.7,8.3-13,8.7-15.1,0.9c-0.7-2.6-0.3-6.1,1.5-8.3C314.7,154.1,324.1,155.4,324.6,162L324.6,162z"/>
<path class="st0" d="M220.7,151.9v4.7l3,0.1v2.8h-3v8.5c0,1,2.3,1.1,3,0.6c-0.1,0.8,0.4,3.4-0.4,3.7c-1.8,0.4-7,0-7-2.6v-10.2
	l-2.7-0.1v-2.8h2.7v-4.7L220.7,151.9L220.7,151.9z"/>
<rect x="242.4" y="150.6" class="st0" width="4.4" height="21.5"/>
<rect x="454.5" y="150.6" class="st0" width="4.5" height="21.5"/>
<path class="st0" d="M496.3,156v4.2c-1.9-0.7-4.4,0.1-5.2,2c-0.1,0.2-0.4,1.4-0.4,1.5v8.3h-4.5v-15.4l0.4-0.4h3.8l0.1,2.7
	C491.8,156.9,493.7,155.7,496.3,156L496.3,156z"/>
<rect x="249.8" y="156.5" class="st0" width="4.4" height="15.5"/>
<rect x="497.8" y="156.5" class="st0" width="4.5" height="15.5"/>
<rect x="462" y="156.5" class="st0" width="4.5" height="15.5"/>
<rect x="447.1" y="156.5" class="st0" width="4.5" height="15.5"/>
<rect x="359.2" y="156.5" class="st0" width="4.5" height="15.5"/>
<rect x="326.9" y="156.5" class="st0" width="4.5" height="15.5"/>
<rect x="190.3" y="156.5" class="st0" width="4.4" height="15.5"/>
<rect x="249.8" y="150.6" class="st0" width="4.4" height="3.4"/>
<rect x="462" y="150.6" class="st0" width="4.5" height="3.4"/>
<rect x="497.8" y="150.6" class="st0" width="4.5" height="3.4"/>
<rect x="447.1" y="150.6" class="st0" width="4.5" height="3.4"/>
<rect x="359.2" y="150.6" class="st0" width="4.5" height="3.4"/>
<rect x="326.9" y="150.6" class="st0" width="4.5" height="3.4"/>
<rect x="190.3" y="150.6" class="st0" width="4.4" height="3.4"/>
</svg>
