<?xml version="1.0" encoding="UTF-8"?>
<svg id="Capa_1" xmlns="http://www.w3.org/2000/svg" version="1.1" viewBox="0 0 554 211.62">
  <!-- Generator: Adobe Illustrator 29.7.1, SVG Export Plug-In . SVG Version: 2.1.1 Build 8)  -->
  <defs>
    <style>
      .st0 {
        fill: #606060;
      }
    </style>
  </defs>
  <path class="st0" d="M271.81,52.35v21.99h-66.67c-8.23,0-8.34,17.69-7.56,23.37h71.48v21.99s-71.48,0-71.48,0c.93,7.33-2.45,14.36,3.82,20.06,3.93,3.57,13.15,1.93,18.24,1.93h52.16v23.37h-79.04c-8.62,0-18.59-9.7-20.66-17.83s-1.92-65.89-.33-74.63c1.2-6.57,11.28-20.25,18.24-20.25h81.79Z"/>
  <path class="st0" d="M390.02,52.35v21.99h-68.04c-.39,0-5.15,4.82-5.47,5.52-1.27,2.8-1.47,48.92-.63,54.18.43,2.71,3.41,7.65,6.1,7.65h68.04v23.37h-80.41c-7.05,0-17.23-9.97-18.99-16.75-2.43-9.37-2.27-63.62-.61-74.33,1.2-7.74,9.68-21.64,18.23-21.64h81.79Z"/>
  <path class="st0" d="M482.12,52.35l-57.72,57.7,70.09,55.01h-32.3l-72.17-55.71c-.43-1.74,8.58-10.07,10.27-11.68,16.21-15.37,32.86-30.44,49.52-45.32h32.3Z"/>
  <path class="st0" d="M143.89,109.31c7.51-11.68,12.08-22.01,9.1-36.43-1.62-7.83-9.96-18.91-17.95-20.54H52.57l-2.06,2.06v108.59l2.06,2.06h83.85c7.13,0,18.72-11.37,19.84-18.64,2.02-13.11.96-30.52-12.37-37.1ZM75.25,75.71h35.72c7.96,0,16.67.85,16.47,11.34-.05,2.84-.94,9.28-4.77,9.28h-47.42s0-20.62,0-20.62ZM123.4,141.04c-6.39,1.66-36.08,1.58-43.4.72-2-.23-3.53-.17-4.74-2.13v-19.93h48.8c6.76,0,13.17,17.76-.65,21.34Z"/>
</svg>