<?xml version="1.0" encoding="utf-8"?>
<!-- Generator: Adobe Illustrator 23.0.1, SVG Export Plug-In . SVG Version: 6.00 Build 0)  -->
<svg version="1.1" id="Capa_1" xmlns="http://www.w3.org/2000/svg" xmlns:xlink="http://www.w3.org/1999/xlink" x="0px" y="0px"
	 viewBox="0 0 554 211.6" style="enable-background:new 0 0 554 211.6;" xml:space="preserve">
<style type="text/css">
	.st0{fill:#FFFFFF;}
</style>
<path class="st0" d="M271.8,52.3v22h-66.7c-8.2,0-8.3,17.7-7.6,23.4h71.5v22h-71.5c0.9,7.3-2.4,14.4,3.8,20.1
	c3.9,3.6,13.1,1.9,18.2,1.9h52.2v23.4h-79c-8.6,0-18.6-9.7-20.7-17.8s-1.9-65.9-0.3-74.6C173,66,183,52.3,190,52.3L271.8,52.3
	L271.8,52.3z"/>
<path class="st0" d="M390,52.3v22h-68c-0.4,0-5.1,4.8-5.5,5.5c-1.3,2.8-1.5,48.9-0.6,54.2c0.4,2.7,3.4,7.6,6.1,7.6h68v23.4h-80.4
	c-7,0-17.2-10-19-16.8c-2.4-9.4-2.3-63.6-0.6-74.3c1.2-7.7,9.7-21.6,18.2-21.6L390,52.3L390,52.3z"/>
<path class="st0" d="M482.1,52.3L424.4,110l70.1,55h-32.3L390,109.3c-0.4-1.7,8.6-10.1,10.3-11.7c16.2-15.4,32.9-30.4,49.5-45.3
	H482.1L482.1,52.3z"/>
<path class="st0" d="M143.9,109.3c7.5-11.7,12.1-22,9.1-36.4C151.4,65,143,54,135,52.3H52.6l-2.1,2.1V163l2.1,2.1h83.8
	c7.1,0,18.7-11.4,19.8-18.6C158.3,133.3,157.2,115.9,143.9,109.3z M75.2,75.7H111c8,0,16.7,0.8,16.5,11.3c-0.1,2.8-0.9,9.3-4.8,9.3
	H75.3C75.3,96.3,75.3,75.7,75.2,75.7z M123.4,141c-6.4,1.7-36.1,1.6-43.4,0.7c-2-0.2-3.5-0.2-4.7-2.1v-19.9h48.8
	C130.8,119.7,137.2,137.5,123.4,141L123.4,141z"/>
</svg>
