<?xml version="1.0" encoding="utf-8"?>
<!-- Generator: Adobe Illustrator 23.0.1, SVG Export Plug-In . SVG Version: 6.00 Build 0)  -->
<svg version="1.1" id="Capa_1" xmlns="http://www.w3.org/2000/svg" xmlns:xlink="http://www.w3.org/1999/xlink" x="0px" y="0px"
	 viewBox="0 0 391 254.6" style="enable-background:new 0 0 391 254.6;" xml:space="preserve">
<style type="text/css">
	.st0{fill:#FFFFFF;}
</style>
<g>
	<path class="st0" d="M155.8,106.2c0,2.9,0.9,3.3,3.5,3.3c10.6-0.1,21.2-0.1,31.8-0.1l0,0c10.8,0,21.6-0.1,32.4,0.1
		c2.3,0,2.7-0.7,2.7-2.8c-0.1-15.2-0.1-30.4,0-45.7c0-3,0-6.1-0.6-9.1c-2.2-11.6-7.5-21-18.8-26c-7.2-3.2-14.8-3.6-22.5-2.5
		c-18,2.4-27.7,16.4-28.2,31.9C155.5,72.2,156,89.2,155.8,106.2z M197,100.4c-1.2,1.7-2.9,2.5-5.7,2.5s-5.3-2.2-5.1-5.2
		c0.2-2.8,2.8-5,5.6-4.8c0.6,0,1.3-0.1,1.5,0.6c0.2,0.8-0.5,0.9-1.1,1.1c-1.4,0.5-2.5,1.3-2.6,2.8s0.2,2.8,1.9,3.2
		c1.6,0.4,2.4-0.6,2.7-1.9c0.3-1,0.4-2,1.8-1.9c0.7,0,1.4,0,1.7,0.8C198.2,98.8,197.6,99.6,197,100.4z M213.6,85.8
		c-1.2-1.8-2.4-3.6-3.8-5.2c-4.5-5.2-7.4-11-7.7-18c-0.2-4.1-2.3-6.8-6.4-8.2c-4.6-1.5-4.5-1.7-3.4-6.4c0.2-1,0.2-2.2,0.1-3.2
		c-0.2-1.4-1.4-2.2-2.6-2.5c-1.2-0.3-1.7,0.6-2,1.6c-0.4,1-1.2,1.4-2.1,0.7c-0.8-0.7-0.8-1.5-0.1-2.3c1.3-1.6,3.1-2.1,5-1.7
		c1.8,0.3,3,1.4,3.5,3.2c0.1,0.5,0.3,1,0.2,1.4c-1.5,4.8,0.6,7.3,5.1,9c3.7,1.4,5.5,5.2,5.4,8.8c-0.3,7.4,3.9,12.5,7.9,17.8
		c1.5,2,2.9,4,4.2,6c1.1,1.8,1.5,3.8,0,5.5c-1.4,1.6-3,0.5-4.6,0c-11-3.7-22.3-4.3-33.7-2.7c-2,0.3-4.1,0.6-6.1,1.1
		c-1.2,0.3-2.2,0.1-3.5-0.7c2-2.1,4.5-1.9,6.7-2.1c10.1-1,20.2-1.8,30.1,0.9c1.5,0.4,3,0.8,4.5,1.3s3.2,1.5,4.4,0
		C215.9,88.6,214.5,87.1,213.6,85.8z M169.2,76.1c4.6-3.6,5.3-8.7,5.7-14c0.5-6,3.1-9.2,8.8-10.6c-5.2,3.8-6.1,8.9-5.8,14.1
		c0.3,4.7-1.7,8.1-4.7,11.2c-0.7,0.8-1.6,1.5-2.7,1.7c-0.7,0.1-1.4,0-1.8-0.7C168.2,77.2,168.6,76.6,169.2,76.1z"/>
	<path class="st0" d="M369.8,138.8L369.8,138.8L369.8,138.8z"/>
	<path class="st0" d="M369.8,138.9L369.8,138.9L369.8,138.9L369.8,138.9c0.1,0.3,0.4,0.3,0.6,0.2c0.1-0.1,0.2-0.1,0.3-0.2
		c0,0,0,0-0.1-0.1C370.4,138.8,370.1,138.8,369.8,138.9L369.8,138.9L369.8,138.9z"/>
	<path class="st0" d="M369.8,138.9L369.8,138.9L369.8,138.9z"/>
	<path class="st0" d="M369.8,138.9L369.8,138.9L369.8,138.9L369.8,138.9L369.8,138.9z"/>
	<path class="st0" d="M369.8,138.8C369.8,138.9,369.8,138.9,369.8,138.8C369.8,138.9,369.8,138.9,369.8,138.8
		C369.8,138.9,369.8,138.9,369.8,138.8z"/>
	<path class="st0" d="M369.8,138.9L369.8,138.9L369.8,138.9L369.8,138.9L369.8,138.9z"/>
	<path class="st0" d="M369.8,138.9L369.8,138.9L369.8,138.9C369.8,138.8,369.8,138.8,369.8,138.9L369.8,138.9L369.8,138.9z"/>
	<path class="st0" d="M369.8,138.8L369.8,138.8L369.8,138.8L369.8,138.8C369.8,138.9,369.8,138.9,369.8,138.8z"/>
	<path class="st0" d="M370.7,138.8L370.7,138.8C370.7,138.8,370.8,138.8,370.7,138.8C370.8,138.8,370.7,138.8,370.7,138.8z"/>
	<path class="st0" d="M370.8,138.8C370.8,138.8,370.7,138.8,370.8,138.8C370.7,138.8,370.8,138.8,370.8,138.8L370.8,138.8z"/>
	<path class="st0" d="M370.8,138.8L370.8,138.8c-0.1,0-0.1,0-0.1,0C370.7,138.8,370.8,138.9,370.8,138.8
		C370.8,138.9,370.8,138.8,370.8,138.8z"/>
	<path class="st0" d="M370.8,138.8L370.8,138.8c0.1-0.1,0.2-0.1,0.2-0.1C370.9,138.7,370.8,138.8,370.8,138.8L370.8,138.8
		C370.8,138.8,370.7,138.8,370.8,138.8C370.7,138.8,370.8,138.8,370.8,138.8L370.8,138.8z"/>
	<path class="st0" d="M371.8,138.7c-0.2-0.1-0.4-0.1-0.6,0c-0.1,0-0.2,0-0.3,0l0,0C371.2,138.9,371.5,138.8,371.8,138.7z"/>
	<path class="st0" d="M370.9,138.8C370.8,138.8,370.8,138.8,370.9,138.8C370.8,138.8,370.8,138.8,370.9,138.8
		C370.8,138.8,370.8,138.8,370.9,138.8C370.8,138.8,370.9,138.8,370.9,138.8z"/>
	<path class="st0" d="M140.5,162.2c3.1,0.4,5.9,0.4,8.7,0.4c0.4,0,0.8-0.1,0.9-0.6c0.1-0.7-0.5-0.8-0.9-0.9
		c-1.7-0.6-2.6-1.8-2.6-3.5c0-6.4,0-12.9,0-20c0.5,1.1,0.7,1.5,0.8,1.9c2.4,7.2,4.8,14.3,7.3,21.5c0.2,0.7,0.2,1.7,1.3,1.6
		c0.9-0.1,0.9-1,1.1-1.6c1.2-3.5,2.5-7,3.7-10.6c1.4-4,2.7-8,4.1-12.1c0.5,6.9,0.6,13.7,0.5,20.6c0,1.6-1.1,2.2-2.5,2.4
		c-0.5,0.1-1,0.2-0.8,0.9c0.1,0.5,0.6,0.5,0.9,0.5c2.2,0,4.3,0.1,6.5,0c1.7-0.1,3.6,0.5,6.2-1.1c-5.3-0.1-4.5-3.3-4.5-6.1
		c0-4.2,0-8.5,0-12.7c0-3.1-1.2-6.8,3.8-7.9c-2.9-0.9-5.6-0.3-8.1-0.6c-1.7-0.2-2.4,0.6-2.9,2.1c-1.6,4.7-3.3,9.4-4.9,14.2
		c-0.2,0.5-0.2,1.3-0.9,1.4c-1,0.1-1-0.8-1.2-1.4c-1.6-4.7-3.2-9.5-4.8-14.2c-0.3-0.8-0.4-1.9-1.5-2c-3.2-0.1-6.3,0-9.5,0
		c-0.2,0.4-0.3,0.8-0.5,1.2c3.9-0.2,4,2.2,3.9,4.7c-0.1,4,0,8.1,0,12.1C144.5,155.9,145.9,160.2,140.5,162.2z"/>
	<path class="st0" d="M11.1,172.1c121.6,0,243.2,0,364.8,0c0-0.2,0-0.4,0-0.6c-121.6,0-243.2,0-364.8,0
		C11.1,171.7,11.1,171.9,11.1,172.1z"/>
	<path class="st0" d="M292.7,140.8c-0.1,4.9,0,9.8,0,14.7c0,2.8,0.3,5.7-3.7,6.6c4.5,0.4,8.8,0.8,13.4-0.2c-4.6-0.4-3.8-3.6-3.8-6.2
		c0-1.2-0.1-2.4,0-3.5c0.1-1-0.6-2.5,0.5-2.9c1.4-0.5,2.3,1,2.9,2.1c1.5,2.6,2.8,5.4,4.2,8.1c0.9,1.9,1.5,3.9,4.3,3.3
		c1.9-0.4,4,0.5,6-0.7c-3.4-1.9-3.4-1.9-5.5-5.7c-1.2-2.2-2.2-4.4-3.5-6.5c-0.9-1.4-0.4-1.7,0.9-2.1c3.7-1.3,5.2-3.4,5-6.7
		c-0.2-3.2-2.1-5.3-5.8-6c-5.9-1.2-11.9-0.6-17.9-0.6c-0.2,0-0.5,0.3-1.3,0.8C292.7,135.4,292.8,137.9,292.7,140.8z M300.2,136
		c1.9-0.6,3.9-0.5,5.5,0.9c1.7,1.5,2,5.8,0.7,8c-1.1,1.8-4.7,3.1-6.8,2.5c-1-0.3-1.1-1-1.1-1.8c0-1.3,0-2.5,0-3.8c0-0.7,0-1.4,0-2.1
		C298.7,138.3,298.3,136.6,300.2,136z"/>
	<path class="st0" d="M348.1,163.2c7.6,0,13.5-6.4,13.6-14.8c0-8.2-5.7-14.6-13.3-14.6c-7.6,0-13.5,6.3-13.6,14.7
		C334.6,156.6,340.6,163.2,348.1,163.2z M342.8,138.8c0.9-2.5,3-3.9,5.7-3.9c2.6,0.1,4.2,1.7,5.1,4.2c1.2,3.1,1.3,6.3,1.5,9.4
		c-0.1,3-0.3,5.9-1.2,8.6c-0.8,2.5-2.2,4.6-5.3,4.7c-3,0.1-5.2-1.5-6.1-4.2C340.6,151.3,340.6,145,342.8,138.8z"/>
	<path class="st0" d="M23.9,139c-0.1,6.3,0,12.6,0,18.8c0,1.4-0.3,2.8-2,3.2c-0.5,0.2-1.7-0.1-1.4,1c0.2,0.9,1.2,0.5,1.8,0.5
		c5.2,0,10.4,0,15.6,0c5.7,0,5.7,0,7.2-5.3c0.2-0.8,1.1-1.8,0.1-2.4c-1.2-0.7-1.7,0.6-2.3,1.3c-2.6,2.5-5.4,4.5-9.2,4.8
		c-3.2,0.3-3.9-0.2-4-3.4c0-1.9,0-3.7,0-5.6c0-3.6,1.3-4.4,4.6-2.8c1.4,0.7,2.3,1.7,2.7,3.3c0.1,0.6,0.4,1.2,1.2,1
		c0.6-0.2,0.5-0.8,0.5-1.2c0-2.7,0-5.5,0-8.2c0-0.6,0.1-1.3-0.7-1.4c-0.6-0.1-0.7,0.5-0.9,1c-0.9,2.4-2.8,3.3-5.3,3.5
		c-1.5,0.1-2.2-0.3-2.1-1.9c0.1-2.2,0.1-4.3,0-6.5c0-2.4,1.3-3.3,3.6-3.2c3.1,0.1,5.6,1.5,7.8,3.6c1,0.9,2,3.2,3.1,2.4
		c1.3-0.9-0.4-2.7-0.6-4.2c-0.3-2.5-1.7-3.2-4.2-3.1c-5.5,0.2-11,0-16.5,0.1c-0.9,0-2-0.5-3.2,1.1C22.7,135.4,23.9,136.5,23.9,139z"
		/>
	<path class="st0" d="M233.3,142.2c0,4.5,0,9,0,13.6c0,2.3-0.1,4.6-3,5.4c-0.4,0.1-0.8,0.3-0.6,0.8c0.1,0.2,0.4,0.5,0.6,0.5
		c2.9,0,5.9,0,8.8,0c0.2-0.3,0.3-0.7,0.5-1c-4.6-0.7-4.3-3.9-4.4-7c0-2.1,0-4.1,0-6.2c0-2.7,0-5.3,0-8c1.7,1.4,2.7,3,3.8,4.5
		c3.7,5.5,7.4,10.9,11,16.4c0.9,1.4,2.1,1.4,3.3,1.2c1.5-0.2,0.8-1.6,0.9-2.4c0.1-5.6,0-11.2,0-16.8c0-3.4-0.5-7,4-8.6
		c-3.4-0.7-6.4-0.6-10-0.4c3.9,3.2,4.1,3.3,4.2,5.1c0.1,4.6,0,9.2,0,13.8c-0.2,0.1-0.4,0.1-0.6,0.2c-3.6-5.3-7.2-10.5-10.8-15.8
		c-2.4-3.6-7.1-4.7-12-2.4C234.4,135.6,233.3,139.2,233.3,142.2z"/>
	<path class="st0" d="M189.5,149.5c2.5,0.2,4.9,0,7.2-0.9c3.1-1.1,4.9-3.4,5-6.5c0.1-3.2-1.7-6.1-4.8-7c-6.3-1.8-12.7-0.7-19.1-0.7
		c3.3,1.9,3.3,1.9,3.3,5.8c0,5.5,0,11,0,16.5c0,2,0.1,4.1-2.7,4.4c-0.4,0-0.7,0.3-0.6,0.8c0.1,0.5,0.5,0.5,0.9,0.5
		c3.7,0,7.5,0,11.2,0c0.4,0,0.8-0.2,0.8-0.6c0-0.5-0.3-0.7-0.7-0.7c-2.8-0.2-2.8-2.2-2.8-4.3c0-1.7,0.1-3.3,0-5
		C187,150.1,187.6,149.4,189.5,149.5z M187.2,145.6c0.1-1.1,0-2.2,0-3.2c0-0.9,0-1.8,0-2.7c0.1-1.8-0.2-3.9,2.5-4.2
		c2.8-0.3,4.9,1.1,5.5,3.7c1.3,5.6-0.5,8.4-5.5,8.7C187.9,148.1,186.9,147.7,187.2,145.6z"/>
	<path class="st0" d="M111.9,162.3c2.6,0,5.2,0.4,8-0.3c-1.2-1.5-3.6-1.3-3.4-3.8c0.3-3.6,1.7-5.2,5.2-5.2c1.5,0,2.9,0,4.4,0
		c0.7,0,1.3,0,1.8,0.7c2.1,3.1,1.7,6.3-1.2,8.8c3.8,0,7.5,0,11.3,0c0.4,0,0.8-0.1,0.8-0.6s-0.2-0.7-0.7-0.8c-2.4-0.3-2.8-2.2-3.3-4
		c-2.2-7.1-4.4-14.2-6.4-21.4c-0.5-1.9-1.3-2.2-3.1-1.6c-1.6,0.5-2.4,1.3-3,2.9c-2.2,6.1-4.4,12.1-6.7,18.2c-0.8,2.3-1.4,4.7-4,5.9
		C110.9,161.4,110.9,162.3,111.9,162.3z M123.6,138.4c1.4,4.7,2.5,8.7,3.7,12.8c-3,0-5.4,0-8.3,0
		C120.4,147.1,121.9,143.1,123.6,138.4z"/>
	<path class="st0" d="M214.9,162.2c4.8,0,8.8,0,12.8,0c-3.2-1.2-3.7-3.9-4.5-6.6c-1.9-6.7-4-13.3-6-20c-0.5-1.7-1.1-2-2.9-1.6
		c-2.1,0.5-2.8,1.8-3.5,3.5c-3.4,8.2-4.7,17.4-10.9,24.8c2.9,0,5.6,0.3,8.5-0.2c-0.6-1.7-2.9-1.2-3.1-3.1c-0.4-3.4,1.6-6,4.9-6
		c0.6,0,1.2,0,1.8,0c4.6,0,4.4,0.1,5.9,4.4C219,160.3,217,160.8,214.9,162.2z M214.5,151.3c-2.1-0.1-4.3,0-6.9,0
		c1.6-4.4,3.1-8.3,4.8-12.8c1.2,4.2,2.2,7.7,3.3,11.3C216,150.9,215.8,151.3,214.5,151.3z"/>
	<path class="st0" d="M259.9,162.3c2.5,0.2,5.1,0.1,8.1,0.1c-1-1.9-3.1-1.4-3.4-3.4c-0.5-3.2,1.7-6,5-6c0.6,0,1.2,0,1.8,0
		c4.5,0,4.3,0.1,5.8,4.2c1.1,2.9-0.8,3.6-2.6,5c3.9,0.3,7.6,0.3,11.4,0.3c0.4,0,0.8-0.1,0.9-0.6s-0.3-0.7-0.7-0.7
		c-2.3-0.4-2.7-2.3-3.3-4.1c-2.2-7.1-4.4-14.2-6.4-21.4c-0.5-1.8-1.1-2.1-2.8-1.6c-1.6,0.5-2.7,1.2-3.3,2.9c-2.2,6.4-4.6,12.7-7,19
		c-0.7,1.9-1.3,3.9-3.5,4.9C259.3,161.2,258.8,162.2,259.9,162.3z M271.3,139.4c0.2,0,0.4,0,0.6-0.1c1,3.7,2.1,7.3,3.1,11
		c0.3,1.2-0.7,0.9-1.3,0.9c-2.2,0-4.3,0-6.8,0C268.5,147,269.9,143.2,271.3,139.4z"/>
	<path class="st0" d="M48.2,161.4c1.5,1.4,2.5,1.1,3.5,1.1c4.9,0,9.8,0,14.7,0c5.3,0,5.3,0,6.8-5.1c0.3-0.9,1.1-2,0-2.6
		c-1-0.6-1.5,0.7-2.1,1.2c-2.5,2.3-4.9,4.5-8.5,4.9c-3.1,0.4-4.2-0.5-4.2-3.6c0-4.8-0.1-9.6,0-14.4c0.1-3.3-1.2-7.3,3.8-8.4
		c-4.4,0-8.9,0-13.3,0c3.4,1.9,3.4,1.9,3.4,5.7c0,5.3-0.1,10.6,0,15.9C52.4,158.8,52.4,161.2,48.2,161.4z"/>
	<path class="st0" d="M96.8,162.9c5.4,1.1,10.9-1.6,13.2-6.6c0.2-0.5,0.8-1,0.1-1.5c-0.7-0.5-1.1,0.1-1.4,0.6
		c-0.3,0.4-0.5,0.8-0.8,1.2c-4.1,5.2-10.3,4.6-13.4-1.2c-2.1-4.1-2.4-8.5-1.7-12.9c0.6-3.4,2.1-6.6,5.7-7.5c3.4-0.8,5.5,1.8,7.6,4.2
		c0.9,1,1.3,3.5,2.9,2.6c1.4-0.7-0.1-2.7-0.4-4c-0.5-2-0.4-5.4-4.2-3.2c-0.4,0.2-1.1-0.3-1.7-0.4c-1.7-0.4-3.4-0.7-5.2-0.4
		c-6.4,1-10.9,7.2-10.9,15.1C86.6,156.8,90,161.6,96.8,162.9z"/>
	<path class="st0" d="M321.8,138.9c-0.2,6.3-0.1,12.5-0.1,18.8c0,1.7-0.4,3.1-2.4,3.4c-0.5,0.1-1,0.1-1.1,0.7c0,0.7,0.5,0.7,1,0.7
		c3.6,0,7.3,0,10.9,0c0.4,0,0.8,0.1,0.9-0.5c0.2-0.7-0.3-0.8-0.8-0.9c-2.4-0.3-2.6-2-2.6-3.9c0-6.1,0-12.2,0-18.2
		c0-1.8,0.3-3.4,2.6-3.5c0.5,0,1-0.2,0.8-0.9s-0.8-0.5-1.2-0.5c-3.6,0-7.3,0-10.9,0c-0.4,0-0.7,0.2-0.8,0.9
		C320.1,135.6,321.9,136.2,321.8,138.9z"/>
	<path class="st0" d="M150.5,228.4c-1-1.6,0.8-1.9,1.2-2.8c0.3-0.6,0.7-1.1,1-1.8c1.8-3.6,0.9-8.2-2-10.8c-2.6-2.3-6.4-2.7-9.2-0.9
		c-3.1,2-4.8,6.4-3.7,10.4c1,3.9,3.7,6,7.8,6.1c0.9,0,1.3,0.2,1.8,1c2,3,4.4,2.8,6.8-0.6C152.7,229.6,151.4,229.8,150.5,228.4z
		 M145.3,227.8c-1.1-0.2-2.2-0.5-2.2-1.9c0-1.1,0.9-1.5,1.8-1.5c1.2,0.1,1.8,0.9,1.8,1.9C146.9,227.8,146.1,227.9,145.3,227.8z
		 M148.9,225.8c-2.1-2.2-4.2-3.1-6.8-1.3c-0.8-3.5-0.9-6.7,0.2-9.9c0.6-1.7,1.8-2.8,3.4-2.9c1.6-0.1,2.9,1.1,3.4,2.7
		C150.2,218,150.3,221.7,148.9,225.8z"/>
	<path class="st0" d="M244,216.9c-3.3-0.1-5.9,2.4-5.9,5.9c0,3.4,2.3,5.8,5.5,5.9c3.3,0.1,5.7-2.3,5.8-5.6
		C249.4,219.6,247.1,217,244,216.9z M246,222.8c-0.4,1.9,0.5,4.9-2.3,4.8c-2.9,0-2-3-2.4-4.9c0.4-1.8-0.6-4.8,2.4-4.8
		c2.8-0.1,1.9,2.8,2.3,4.6C246,222.6,246,222.7,246,222.8z"/>
	<path class="st0" d="M199.9,227.1c-2.3-0.1-3.5-1.8-3.5-3.7c0-2,2-0.6,3-0.9c0.6-0.2,1.4,0,2-0.1c0.9-0.1,2.2,0.6,2.6-0.6
		c0.3-1-0.3-2.1-0.9-3c-0.9-1.2-2-1.8-3.5-1.6l0.1,0.1l0,0l0,0l0,0c0.1,0.2,0.2,0.4,0.4,0.6c0.8,0.9,1.8,2.3,0.9,3
		c-1.1,0.9-3,0.5-4.5,0.2c-0.6-0.1-0.3-1-0.1-1.5c0.5-1.5,1.7-2.2,3.2-2.3l0,0c-2.8-0.8-5.2,0.5-6.3,3.4c-1.2,3.1,0.2,6.3,3.3,7.5
		s6,0.2,7.7-3.2C202.7,226.7,201.3,227.2,199.9,227.1z"/>
	<path class="st0" d="M225.1,219.6c-0.4-1.6-1.3-2.3-2.9-2.3c-0.1-0.1-0.2-0.1-0.3-0.1c0.1,0,0.2,0.1,0.3,0.1
		c-0.2,0.2-0.5,0.4-0.7,0.6c1.3,2.1,1,3.4-1.7,3.8c-0.8,0.1-1.7,0.5-2.5,0.9c-1.7,0.9-2.9,2.3-2.1,4.3c0.8,2.1,2.8,2.1,4.5,1.5
		c1.5-0.6,2.6-1.1,4.2,0.1c0.8,0.6,3.1-0.7,2.7-1C223.8,225,225.7,222.1,225.1,219.6z M219.9,227.2c-1.3,0.1-1.8-0.9-1.7-1.9
		c0.1-1.7,1.1-2.6,2.8-2.8c1.6-0.2,1,1,1.2,1.7C222.5,225.9,221.7,227,219.9,227.2z"/>
	<path class="st0" d="M177.9,217.3c-1.4,0.2-1.5,0.2-1,0.9c0.7,1,1.6,2.2,0.4,3c-1.2,0.7-3.2,0.8-4.2,0c-1-0.9,0-2.2,1-3.1
		c0.2-0.1,0.3-0.3,0.4-0.5c0,0,0,0,0-0.1c-0.2-0.1-0.4-0.2-0.6-0.2c-0.2,0-0.4,0.1-0.7,0.1c-0.2,0.1-0.5,0.1-0.7,0.1
		c-0.7,0.8-1.6,1.5-2.2,2.4c-1.6,2.6-1,5.9,1.3,7.6c2.4,1.8,5.7,1.6,7.7-0.5c-0.9-0.4-1.7,0.2-2.6,0.2c-2.4,0-3.9-1.5-3.9-3.6
		s2.1-0.7,3.2-1c0.5-0.2,1.2,0,1.8,0c0.9-0.1,2.2,0.5,2.7-0.5c0.5-1.1-0.2-2.3-1-3.2C179.1,218.2,178.5,217.8,177.9,217.3z"/>
	<path class="st0" d="M236.9,217.4c-1-0.8-2-0.4-2.9,0.3c-0.5,0.4-1.2,1.5-1.5,0.9c-1.6-3.1-3.1,0.1-5.1-0.5
		c2.4,2.4,2.6,7.2,0.8,10.4c1.9,0,3.7,0,6,0c-1.9-1.8-2.4-6.1-1.4-7.8c0.5-0.7,1-1.2,1.9-0.8c1.1,0.5,2.1,0.6,2.6-0.8
		C237.5,218.4,237.4,217.8,236.9,217.4z"/>
	<path class="st0" d="M191.4,217.4c-1.2-0.9-2.2-0.4-3.1,0.4c-0.4,0.3-1,1.3-1.3,0.7c-1.8-3.2-3.2,0.1-4.8-0.1
		c2.5,1.2,1.4,3.3,1.5,5s0.4,3.5-1.4,5.1c2,0,3.6,0,5.1,0c0.3,0,0.5-0.1,1-0.2c-2.6-2-1.5-4.8-1.4-7.2c0-0.8,0.9-1.8,2.2-1.3
		c1.1,0.5,2.1,0.6,2.7-0.7C192.1,218.4,192,217.8,191.4,217.4z"/>
	<path class="st0" d="M213.2,217.4c-3.9,0.8-2.7-2.7-3.9-4.7c-0.9,2.3-1.6,4.1-3.9,4.8c1.7,0.6,1.9,1.6,1.8,3c-0.1,1.5,0,2.9,0,4.4
		c0,1.4-0.1,3,1.5,3.5s3.4,0.4,4.5-1.6c-1.2-0.2-2.9,1-3-1.2c-0.1-1.7,0.2-3.4-0.2-5C209.5,218,211.7,218.3,213.2,217.4z"/>
	<path class="st0" d="M163.6,226c-3.2,1.5-3.9,1.1-3.9-2.5c0-1.8,0-3.5,0-5.3c0-1.3-0.8-1.2-1.6-0.8c-0.9,0.5-3,0.6-2.4,1.3
		c1.9,2.1,0.7,4.5,1.1,6.7c0.6,3.2,2.1,4.1,5.2,2.8c0.9-0.4,1.7-1.1,2.3,0.3C164.4,227.4,164,226.7,163.6,226z"/>
	<path class="st0" d="M166.8,224.4c0-1.7-0.1-3.3,0-5c0.2-2.1-0.6-2.7-2.4-1.8c-0.6,0.2-1.4,0-1.7,0.8c1.9,2.3,1,5,1,7.6
		c1.1,0.5,1.4,1.3,0.7,2.4c1.4,0.4,2.6,0.1,4.4-0.5C166.2,227.4,166.8,225.8,166.8,224.4z"/>
	<path class="st0" d="M221.9,217.1c-1.8-0.5-3.4,0-5,0.7c-0.7,0.3-1.3,1-1.1,1.9c0.1,0.4,0.5,0.9,0.9,1c0.9,0.3,1.5-0.3,1.8-1.1
		c0.6-1.3,1.4-2.1,2.9-1.8C221.4,217.4,221.5,217.1,221.9,217.1z"/>
	<path class="st0" d="M201.5,213.5c0.6-0.4,1.1-1,0.5-1.7s-1.2-0.4-1.8,0.1c-1.2,1-2.4,1.9-3.6,2.9
		C198.8,215.4,200.1,214.3,201.5,213.5z"/>
	<polygon class="st0" points="163.5,226.2 164,225.6 165.2,226.3 165.2,227.7 164.7,228.4 164.3,228.3 	"/>
	<g>
		<path class="st0" d="M273.1,187.7c0,0.1,0,0.1,0,0.2c0.6-0.1,1.2-0.1,1.9-0.2v-0.1c0.3-0.8,0.8-0.7,1.5-0.5l0,0l0,0
			c-1.4-0.9-2.9-0.9-4.3,0C272.7,186.9,272.9,187.2,273.1,187.7z"/>
		<path class="st0" d="M276.4,187.1c-0.4,0.2-0.8,0.4-1.2,0.5l0,0c2.1,2.7,1.5,5.7,0.9,8.6c-0.2,0.9-1.1,1.5-2.1,1.3
			c-1-0.1-1.5-0.8-1.7-1.8c-0.6-2.7-0.9-5.4,0.6-8c-0.2-0.3-0.5-0.5-0.7-0.8c-3.4,2-4.5,4.7-3.1,7.8c1.1,2.6,3.2,3.8,5.9,3.5
			c2.6-0.3,4.2-1.9,4.9-4.4C280.4,191.3,279.1,188.8,276.4,187.1z"/>
	</g>
	<g>
		<path class="st0" d="M275,187.8c0.1,0,0.1-0.1,0.2-0.1C275.1,187.7,275.1,187.7,275,187.8C275,187.7,275,187.7,275,187.8z"/>
		<path class="st0" d="M101.9,191.6c-0.8-1.3-1.4-2.2,0.7-3c1.6-0.6,2.4-1.9,2.2-3.7c-0.3-1.9-1.4-2.8-3.2-3.3
			c-3.7-1-7.5-0.7-11.5-0.7c3.1,2.6,3.2,14.7,0.2,16.8c2.5,0,4.8,0,7.5,0c-3.1-1.9-1.5-4.6-1.9-6.9c-0.1-0.4,0.2-0.9,0.6-0.7
			c1.9,0.8,2.6,2.8,3.1,4.4c1.1,3.5,3.4,4.1,7,3.2C103.8,196.3,103.2,193.7,101.9,191.6z M97.7,189c-2.9,0.2-1.6-1.9-2-3.2
			c0.4-1.5-0.9-3.8,2.2-3.8c2.2,0,3.1,1.4,3.1,3.4C101,187.6,100,188.9,97.7,189z"/>
		<path class="st0" d="M142.8,186.6c-2.6,0.2-4.8,2.9-4.8,6.1c0,3.1,1.9,6,4.3,5.6c2.5-0.4,4.9,0.4,8-0.5c-1.7-0.8-1.5-2.1-1.5-3.2
			c0-3.2,0-6.5,0-9.7c0-4.1,0-4.1-4.1-2.9c-0.1,0-0.2,0.3-0.4,0.5c1.6,1,1.7,2.7,1.2,4.1C145,188,143.7,186.5,142.8,186.6z
			 M145.7,192.1c0,0.5,0,0.6,0,0.7c-0.2,1.7,0.8,4.4-2.1,4.2c-2.5-0.1-2.2-2.7-2.2-4.5c0.1-1.8-0.4-4.5,2.4-4.5
			C146.8,188.1,145.2,190.9,145.7,192.1z"/>
		<path class="st0" d="M241.4,195.6c-1.7,1-3.4,1.8-4.5-0.7c-0.2-0.2-0.5-0.5-0.7-0.7l0,0c-0.6-0.9-1.3-1.7-1.9-2.6
			c-1.3-1.9-2.9-3.7,0.5-5.3c1.1-0.5,1.6-2,1.1-3.4c-0.5-1.5-1.7-2.1-3.2-2.2c-4.1-0.4-6,2.9-4.2,7.4l0,0l0,0
			c0.2,0.5,0.5,0.9,0.7,1.4l0,0l0,0c0.9,2.6,2.8,4.6,4.1,7c0,0.3,0.1,0.6,0.1,0.9l0,0l0,0c1.1-0.3,1.8,0.4,2.7,0.7
			C238.5,199,240.5,198.1,241.4,195.6z M230.5,183.6c-0.1-1.1,0.5-1.8,1.6-1.9c1.4,0.2,1.8,1.1,1.8,2.3c-0.1,1.2-0.6,2.6-1.8,2.6
			C230.4,186.4,230.6,184.7,230.5,183.6z"/>
		<path class="st0" d="M168.7,189.9c0.1-0.9,1.3-1.2,2.2-1.1c0.9,0.1,1.5,0.6,1.5,1.5c-0.1,2.5,0.9,5.2-1,7.7c1.8,0,3.4,0,5.2,0
			c-1.6-2.1-0.9-4.4-1-6.6c-0.2-4.4-1.7-5.5-5.7-3.8c-0.4,0.2-1.1,0.5-1.2,0.5c-1.7-2.8-3.2,0.3-5.1-0.2c2.3,2.3,2.6,7.1,0.9,10.2
			c1.7,0,3.3,0,5,0C167.9,195.2,168.4,192.5,168.7,189.9z"/>
		<path class="st0" d="M254.8,193.9c-0.7-2.9-0.7-5.9,0.2-8.7c1.2-4,4.7-4.7,7.7-1.8c0.8,0.8,1,2.1,2.4,2.4c0.1-3.2-0.7-5-4.4-5.1
			c-3.3-0.1-6.7,1-8.6,4c-1.9,3.1-1.9,7.8,0.2,10.6c2,2.8,5.1,3.7,8.9,2.7c0-0.3,0-0.5-0.1-0.8C257.3,198.1,255.6,197.3,254.8,193.9
			z"/>
		<path class="st0" d="M202.9,191.2c-1.6,0.4-3.3,0.8-4.6,1.9c-1.7,1.3-1.8,3.9-0.1,4.7c2,0.9,4,1,5.5-1.1l0,0l0,0
			c-1.2,0.2-2.7,1.3-3.3-0.8c-0.6-2,0.7-2.8,2.2-3.5c1.4-0.6,1.7-0.1,1.7,1.2c0,1,0,2.1-0.5,3l0,0c0,0,0,0.1-0.1,0.1
			c1.3,0.9,2.4,2.5,4.4,1.3c0.4-0.3,1-0.9,0.6-1.1c-2.7-1.1-1.4-3.4-1.4-5.1c-0.2-4.6-1.7-5.9-6.4-4.8c-1.3,0.3-2.6,0.5-3,2
			c-0.2,0.6,0.1,1.2,0.7,1.4c1.6,0.5,1.9-1,2.5-1.9c0.5-0.8,1.2-1,2.1-0.7c0.9,0.3,1,1.1,1.1,1.9C204.4,190.7,203.8,191,202.9,191.2
			z"/>
		<path class="st0" d="M294.4,180.8c-2.4,0.1-3.8,1.6-4.3,3.7c-0.3,1.4-0.7,2.4-2.6,2.5c2.9,1.6,3.2,8.3,0.8,10.8
			c2.1,0.3,4.1,0.3,6.2,0c-3.3-2.3-1.3-5.7-1.8-8.5c-0.4-2,1.9-1,2.7-2.3c-4-0.2-2.8-2.5-2.7-4.9c0.7,0.3,0.9,0.4,1.1,0.6
			c0.6,0.6,1.3,1.3,2.3,0.7c0.6-0.3,0.8-0.9,0.4-1.5C296.2,181,295.3,180.8,294.4,180.8z"/>
		<path class="st0" d="M157.9,192.1c0.6-0.2,1.4,0,2,0c0.8-0.1,1.9,0.5,2.4-0.5c0.4-0.9-0.2-1.7-0.7-2.4c-0.6-0.9-1.2-1.7-2.4-2.1
			c-3-1.1-6,0-7.4,2.9c-1.3,2.6-0.5,6.1,1.8,7.6c2.8,1.8,6.5,1.1,9-2.2c-1.7,0.7-2.8,1.3-4,1.5c-1.9,0.3-4-1.5-3.9-3.5
			C154.9,191,156.8,192.4,157.9,192.1z M154.6,190c0.1-1.5,1-2.6,2.7-2.5c1.6,0.1,2.2,1.3,2.2,2.6c-0.1,1.8-1.6,0.8-2.5,1.1
			C156.2,190.9,154.5,191.9,154.6,190z"/>
		<path class="st0" d="M116,187.7c-0.9-0.5-2-0.7-2.9-1.1c0.2,0.3,0.4,0.7,0.7,0.8c1.3,0.7,2.2,1.9,1.4,3.1c-1,1.4-2.9,0.6-4.3,0.5
			c-0.7-0.1-0.5-0.8-0.4-1.5c0.3-1.2,1.2-1.7,2-2.4l0,0c-0.4-0.1-0.9-0.5-1.3-0.4c-2.1,0.4-4,3.4-4,5.9c0,2.9,1.8,5.1,4.6,5.7
			c2.7,0.5,5.4-0.7,6.4-2.9c-1,0.4-1.9,0.9-2.9,1.3c-1.5,0.5-2.7,0.1-3.7-1.1c-0.7-0.8-1.4-2-0.9-2.9c0.6-1.2,2.1-0.4,3.2-0.6
			c0.4-0.1,0.8,0,1.2,0c1.1-0.2,2.8,0.7,3.1-0.5C118.5,190,117.4,188.6,116,187.7z"/>
		<path class="st0" d="M214.3,185.2c0-4.4,0-4.4-4.1-3.2c-0.1,0-0.2,0.3-0.3,0.4c1.9,2.1,2.1,12.9,0.1,15.5c1.8,0,3.5,0,5.2,0
			c-1-1-0.9-2.2-0.9-3.4C214.3,191.4,214.3,188.3,214.3,185.2z"/>
		<path class="st0" d="M285.8,194.6c0-3.1,0-6.3,0-9.4c0-4.6,0-4.6-4.5-2.9c2.6,2.2,1.3,5.2,1.4,7.9c0.1,2.6,0.9,5.4-1.1,7.9
			c1.8,0,3.5,0,5.1,0C285.6,196.9,285.8,195.7,285.8,194.6z"/>
		<path class="st0" d="M185.1,189c0.5,0.9,0.9,1.8,2.1,1.5c0.6-0.1,1.1-0.6,1-1.3c-0.1-1.1-0.8-1.7-1.7-2.2c-2.5-1.3-6.1,0.1-7.7,3
			c-1.6,2.9-0.7,6.4,1.9,7.7c3,1.5,5.9,0.6,7.5-2.6c-1.9,1.6-3.9,2.8-5.9,0.3c-1.5-1.9-1.4-4.3-0.4-6.4
			C182.7,187.3,184.2,187.3,185.1,189z"/>
		<path class="st0" d="M127.6,191.9c-0.9-0.6-2-0.8-3-1.2s-2.7-0.4-2.3-2.1c0.4-1.4,1.8-1.2,3-0.9c0-0.3,0.1-0.5,0.1-0.8l0,0
			c-2.5-1-4.2-0.1-5.1,2.2c-0.8,2.1,0.4,3.7,3.1,4.6c0.7,0.2,1.5,0.4,2.2,0.7c1.3,0.5,1.5,1.4,0.7,2.6c0,0.3,0.1,0.6,0.1,1l0,0l0,0
			C129.6,196.5,130.1,193.6,127.6,191.9z"/>
		<path class="st0" d="M135.1,186.7c-1.4,0.4-2.9,0.8-4.5,1.3c2.1,2.3,2.4,6.7,0.7,10.1c1.7,0,3.3,0,5.1,0
			C134.3,194.3,136.1,190.4,135.1,186.7z"/>
		<path class="st0" d="M190.3,198c1.7,0,3.3,0,5.1,0c-2-3.7-0.3-7.6-1.3-11.3c-1.6,0.5-3.1,0.6-4.5,1.5
			C191.7,189.9,192.1,195.2,190.3,198z"/>
		<path class="st0" d="M232.6,196.8c-2.6,0.8-4.2,0.1-5.2-2.8c-0.6-1.7-1.1-3.6,1.1-4.3c-0.2-0.5-0.2-1,0-1.6
			c-1,0.8-2.1,1.4-3.1,2.3c-3,2.8-2.2,6.5,1.8,7.7c2.1,0.7,4.2,0.6,6.2-0.6c-0.2-0.1-0.5-0.3-0.6-0.5
			C232.7,196.9,232.7,196.8,232.6,196.8z"/>
		<path class="st0" d="M261,197.2c0.3,0.2,0.3,0.5,0.1,0.8c2.8,0,5-0.5,4.2-4.1c-0.3-1.5,1.3-1.9,1.8-3.1c-2.4,0-4.6,0-7,0
			C262.7,192.8,262.8,193.8,261,197.2z"/>
		<path class="st0" d="M236.8,194.9c2-1.9,1.8-5.3,4.5-6.9c-1.8,0-3.6,0-5.7,0c2.7,2.3,2.7,3.2,0.4,6.2l0,0
			C236.7,194,237,194.2,236.8,194.9z"/>
		<path class="st0" d="M126.5,197.1c-3,1.6-4.2-1.6-6.4-2.7c0,1.6,0.7,3.8,0.9,3.7c1.9-0.8,3.8,1.3,5.7,0
			C126.3,197.7,126.3,197.4,126.5,197.1z"/>
		<path class="st0" d="M135.4,182.4c0-0.9-0.4-1.6-1.4-1.8s-1.7,0.4-1.8,1.4c-0.2,1,0.2,1.7,1.3,1.8
			C134.4,183.9,135.2,183.6,135.4,182.4z"/>
		<path class="st0" d="M194.4,182.2c0-1-0.6-1.6-1.6-1.6c-0.9,0-1.4,0.5-1.5,1.4c-0.1,1,0.4,1.6,1.4,1.7
			C193.8,183.8,194.4,183.3,194.4,182.2z"/>
		<path class="st0" d="M125.4,187.8c0.9,0.8,1.8,1.6,2.9,2.7c0.2-2.5-0.3-3.9-2.9-3.5l0,0C125.7,187.3,125.7,187.5,125.4,187.8z"/>
	</g>
</g>
</svg>
