<?xml version="1.0" encoding="utf-8"?>
<!-- Generator: Adobe Illustrator 23.0.1, SVG Export Plug-In . SVG Version: 6.00 Build 0)  -->
<svg version="1.1" id="Capa_1" xmlns="http://www.w3.org/2000/svg" xmlns:xlink="http://www.w3.org/1999/xlink" x="0px" y="0px"
	 viewBox="0 0 554 181.3" style="enable-background:new 0 0 554 181.3;" xml:space="preserve">
<style type="text/css">
	.st0{fill:#FFFFFF;}
</style>
<g>
	<path class="st0" d="M116.3,73.6c0,6-2,10.5-5.2,14.2c-6.5,7.6-14.9,11.5-24.9,11.1c-8.2-0.4-15.1-3.6-18.8-11.5
		c-2.2-4.6-2.1-9.4-0.1-14.1C70.2,66.7,75,62,81.5,59.1c3.2-1.4,6.5-2.6,10.1-3c7.3-0.8,13.8,0.9,19.2,5.8
		C114.5,65.2,116.5,69.4,116.3,73.6z"/>
	<path class="st0" d="M402.5,72.2c2.2,0,4.4,0,6.6,0c2.2,0,2.7-0.4,3-2.5c0.6-3.5,1.1-7,1.6-10.4c0.1-0.7,0.2-1.4,0.3-2.1
		c0.2-1.3,1-1.8,2.2-1.8c1.9,0,3.9-0.1,5.8,0c1.5,0.1,2.1,0.9,1.7,2.2c-1.2,4.2-1.6,8.6-2.3,13c-1,6.3-2,12.7-3,19
		c-0.4,2.9-0.9,5.7-1.3,8.6c-0.3,2.2-0.5,2.3-2.7,2.4c-1.8,0-3.5,0-5.3,0c-1.8,0-2-0.3-1.8-2c0.3-2.1,0.6-4.2,1.1-6.2
		c0.6-2.9,0.6-5.9,1.6-8.8c0.6-1.8-0.4-3-2.3-2.9c-4.7,0.3-9.3,0.3-14,0c-1.9-0.1-2.6,0.6-2.8,2.7c-0.4,4.3-1.3,8.5-1.8,12.8
		c0,0.2,0,0.4-0.1,0.5c-0.6,3.9-0.7,3.9-4.7,3.9c-1.1,0-2.3,0-3.4,0c-1.6-0.1-1.9-0.3-1.8-1.9c0.1-1.6,0.4-3.1,0.7-4.7
		c1-6.6,2.1-13.2,3.1-19.8c0.9-5.4,1.7-10.8,2.6-16.2c0.4-2.3,0.7-2.6,3-2.6c1.7,0,3.4-0.1,5,0c1.6,0.1,1.8,0.6,1.6,2.2
		c-0.6,3.8-1.3,7.6-1.8,11.5c-0.4,2.7,0,3.1,2.8,3.1C398.3,72.2,400.4,72.1,402.5,72.2C402.5,72.2,402.5,72.2,402.5,72.2z"/>
	<path class="st0" d="M460.4,101.7c-3.8-0.2-7.6-0.3-10.9-2.5c-3.9-2.5-5.6-6.2-6-10.6c-0.2-1.4,0.8-2.4,2.4-2.5
		c1.8-0.1,3.5-0.1,5.3,0c1.2,0,1.9,0.5,2.1,1.8c0.5,3.4,2.9,4.9,6,5.4c1.9,0.3,3.9,0.3,5.8,0.1c2.3-0.2,4.2-1.3,5.6-3.1
		c1.3-1.6,1.3-2.9,0-4.5c-1-1.3-2.5-1.9-4-2.5c-2.2-0.8-4.5-1.4-6.9-1.9c-2-0.4-3.9-1-5.8-1.8c-5.3-2-7.7-6.3-6.5-11.9
		c1.2-5.7,4.3-9.9,9.8-11.9c5.7-2.1,11.6-2.3,17.4-0.5c4,1.2,8.2,5.5,7.8,11.3c-0.1,1.7-0.4,2-2,2.1c-1.8,0.1-3.7,0-5.6,0
		c-1,0-1.4-0.5-1.5-1.4c-0.5-3.3-2.7-4.8-5.8-5.2c-3.5-0.5-6.8-0.3-9.6,2.5c-1.8,1.8-2.1,4.3,0.6,5.9c1.9,1.1,3.8,1.7,5.9,2.1
		c3.9,0.8,7.7,1.9,11.3,3.5c3.5,1.6,5.4,4.4,5.4,8.1c0,6.2-2.7,10.9-7.9,14.3C469.3,101.1,464.9,101.4,460.4,101.7z"/>
	<path class="st0" d="M221.8,101.6c-2.3-0.1-6-0.5-9.3-2.6c-4.3-2.7-6.9-6.6-7.7-11.5c-1.5-9.5,0.9-18.1,7.2-25.3
		c5.5-6.2,12.9-8.6,21.2-7.8c1.9,0.2,3.8,0.5,5.7,1.2c5.3,1.8,8.7,5.5,10.1,10.7c2.9,10.8-0.1,20.4-7.7,28.4
		C236.5,99.7,230.3,101.8,221.8,101.6z M240.3,74.6c0-0.9,0-1.8,0-2.6c-0.3-5.1-4-8.9-9.1-9.4c-4.8-0.5-9,0.9-12.1,4.5
		c-4.9,5.7-5.9,12.4-4.5,19.6c0.6,2.8,2.5,4.5,5,5.8c5.7,2.8,13.2,0.4,17-5.1C239.3,83.5,240.1,79.1,240.3,74.6z"/>
	<path class="st0" d="M324.1,100.5c-0.9,0-1.8,0-2.6,0c-1.9,0-2.5-0.4-2.9-2.3c-0.3-1.5-0.4-3-0.7-4.4c-0.3-2.1-1.1-2.8-3.2-2.6
		c-4.1,0.3-8.3,0.3-12.4,0c-1.6-0.1-2.9,0.6-3.7,2c-1,1.6-1.7,3.3-2.3,5c-0.6,1.7-1.8,2.5-3.6,2.4c-1.7-0.1-3.3,0-5,0
		c-2.1,0-2.3-0.4-1.3-2.3c1.1-2.1,2.2-4.2,3.3-6.3C294.7,82,299.8,72,305,62.1c0.9-1.6,1.8-3.2,2.6-4.9c0.7-1.4,1.7-2.1,3.4-1.9
		c1.9,0.2,3.9,0,5.8,0c1.9,0,2.2,0.2,2.8,2c0.5,1.5,0.8,3.1,1.1,4.6c1.6,7.2,3.1,14.4,4.7,21.7c1.1,5,2.1,10,3.2,14.9
		c0.4,1.7,0.3,1.8-1.4,1.9c-0.5,0-1.1,0-1.6,0C325.1,100.5,324.6,100.5,324.1,100.5C324.1,100.5,324.1,100.5,324.1,100.5z
		 M309.5,83.6C309.5,83.6,309.5,83.6,309.5,83.6c1.5,0,3,0.1,4.5,0c1.5-0.1,2-0.8,1.7-2.3c-0.2-1.1-0.6-2.2-0.7-3.3
		c-0.5-3.4-1.4-6.7-1.6-10.2c-0.1-0.8-0.1-1.7-1.1-1.8c-1-0.1-1.2,0.9-1.5,1.6c-0.7,1.9-1.6,3.7-2.6,5.5c-1.4,2.7-2.6,5.6-4.1,8.3
		c-0.9,1.6-0.4,2.2,1.5,2.2C306.9,83.6,308.2,83.6,309.5,83.6z"/>
	<path class="st0" d="M519.4,100.5c-0.7,0-1.4,0-2.1,0c-2.7,0-2.9-0.1-3.4-2.9c-0.3-1.3-0.4-2.6-0.7-3.9c-0.5-2.1-1.2-2.7-3.3-2.6
		c-4.1,0.3-8.3,0.3-12.4,0c-1.7-0.1-2.9,0.4-3.6,2c-0.8,1.9-1.8,3.6-2.6,5.5c-0.6,1.3-1.5,2-3.1,1.9c-1.8-0.1-3.5,0-5.3,0
		c-1.5,0-1.9-0.6-1.4-1.9c0.3-0.8,0.7-1.6,1.2-2.4c5.1-9.9,10.3-19.9,15.5-29.8c1.6-3.1,3.4-6.2,5-9.3c0.7-1.3,1.7-1.9,3.2-1.8
		c1.9,0.1,3.9,0,5.8,0c2.1,0,2.7,0.6,3.2,2.7c2.7,12.6,5.5,25.3,8.2,37.9c0.2,0.9,0.4,1.7,0.7,2.5c0.4,1.5,0.2,1.9-1.3,2
		C521.7,100.6,520.6,100.5,519.4,100.5z M504.9,83.6C504.9,83.6,504.9,83.6,504.9,83.6c1.4-0.1,2.8,0,4.2-0.1
		c1.9-0.1,2.2-0.6,1.9-2.5c-0.7-4.3-1.5-8.7-2.2-13c-0.1-0.4-0.1-0.9-0.3-1.3c-0.4-0.9-1.2-1-1.8-0.3c-0.3,0.3-0.5,0.7-0.6,1.1
		c-2,4.7-4.2,9.3-6.7,13.7c-0.8,1.4-0.3,2.2,1.3,2.3C502.1,83.7,503.5,83.6,504.9,83.6z"/>
	<path class="st0" d="M272.2,55.4c3.1,0,6.2,0,9.2,0c7.5,0.1,12.5,6.3,11,13.7c-0.6,3-1.3,5.8-2.9,8.4c-3.2,5-7.7,7.1-13.6,6.8
		c-3.1-0.2-6.2-0.1-9.2-0.1c-1.8,0-2.4,0.6-2.7,2.6c-0.6,3.6-1.1,7.1-1.6,10.7c-0.4,2.9-0.4,3-3.5,3c-1.5,0-3,0-4.5,0
		c-1.8-0.1-2-0.5-1.7-2.2c1.1-6.5,2.1-13,3.2-19.5c1.1-7.1,2.2-14.2,3.2-21.4c0.2-1.2,0.7-1.7,1.8-1.9c1.5-0.3,3-0.1,4.5-0.1
		C267.6,55.3,269.9,55.4,272.2,55.4C272.2,55.4,272.2,55.4,272.2,55.4z M274,63.3C274,63.3,274,63.3,274,63.3c-1.4,0-2.8,0-4.2,0
		c-1.3,0-2.2,0.6-2.4,1.9c-0.5,3-0.9,6.1-1.3,9.1c-0.2,1.3,0.6,2,1.9,2c3.1,0,6.1,0.2,9.2-0.2c2.5-0.3,4.3-1.7,5.3-3.9
		c2-4.5,0.6-8.8-5-8.9C276.2,63.3,275.1,63.3,274,63.3z"/>
	<path class="st0" d="M430.1,100.5c-0.8,0-1.6,0-2.4,0c-1.9,0-2.2-0.5-1.9-2.4c0.6-3.5,1.1-6.9,1.7-10.4c1.1-6.8,2.1-13.6,3.3-20.3
		c0.5-3.1,1-6.3,1.5-9.4c0.4-2.4,0.6-2.7,3-2.7c1.7,0,3.3,0,5,0c1.7,0,2,0.5,1.8,2.1c-2,12.1-4,24.1-5.9,36.2
		c-0.3,1.6-0.5,3.3-0.7,5c-0.2,1.4-0.9,2-2.3,1.9C432.1,100.5,431.1,100.5,430.1,100.5C430.1,100.5,430.1,100.5,430.1,100.5z"/>
	<path class="st0" d="M68,34.9c-0.7,4.1-1.4,8.1-2.1,12.2c-1,6.1-2.4,12.1-3,18.2c-0.1,1.2-0.7,2.3-1.3,3.4c-1.5,2.5-2.9,5-3.4,8
		c-0.7,3.7-0.8,7.3,0.2,11c0.3,0.9,0.3,1.7,0.1,2.6c-1.9,8.4-3.1,16.9-4.5,25.4c-0.3,1.6-0.7,3.3-1,4.9c-0.4,2-0.8,2.6-1.8,2.4
		c-1.5-0.3-2.6-1.8-2.3-3.3c0.4-2.2,1-4.5,1.4-6.7c1.3-7.3,2.5-14.5,3.7-21.8c1.3-7.1,2.2-14.2,3.7-21.3c1.2-5.8,2.1-11.8,3.1-17.6
		c0.7-4.1,1.5-8.1,2.3-12.2c0.2-1,0.2-1.9,0.3-2.9c0.2-1.9,1.4-3,3.1-3.6C67.6,33,68.2,33.6,68,34.9z"/>
	<path class="st0" d="M42.5,114.9c0-2.5,0.9-4.8,1.3-7.3c1.6-9.6,3.4-19.2,5-28.8c0.8-4.8,1.9-9.5,2.6-14.2
		c1.1-6.6,2.1-13.2,3.3-19.7c0.2-0.9,0.5-1.7,0.5-2.6C55.2,40,56.7,39,58.3,38c0.8-0.5,1.4-0.2,1.4,0.7c0,0.5,0,1.1-0.1,1.6
		c-0.9,5.2-1.9,10.4-2.8,15.6c-1.2,6.7-2.3,13.5-3.5,20.2c-1.5,8.6-2.9,17.1-4.5,25.7c-0.9,4.7-1.8,9.5-2.5,14.3
		c-0.1,1,0,2.3-1.4,2.5c-0.9,0.2-2.3-1.5-2.5-2.7C42.5,115.6,42.5,115.2,42.5,114.9z"/>
	<path class="st0" d="M36.2,108.7c0.1-0.4,0.1-0.9,0.2-1.3c1.7-9.1,3.5-18.1,5.1-27.2c1.2-6.7,2.4-13.5,3.6-20.2
		c0.7-3.6,1.2-7.3,1.7-10.9c0.3-2.2,1.6-3.9,3.3-5.2c0.3-0.3,0.8-0.5,1.2-0.3c0.6,0.3,0.6,0.9,0.5,1.4c-0.4,2.2-0.7,4.3-1.2,6.5
		c-1.3,6.6-2.5,13.3-3.6,19.9c-1.2,7.2-2.6,14.3-3.8,21.5c-1,5.9-2,11.8-3,17.6c-0.1,0.5-0.1,1.1-0.3,1.5c-0.3,0.6-1,0.9-1.5,0.4
		C37.3,111.4,36.3,110.3,36.2,108.7z"/>
	<path class="st0" d="M30.9,98.5c0.6-3.5,1.2-6.9,1.8-10.4c1.4-8,2.7-15.9,4.1-23.9c0.6-3.4,0.9-7,3.3-9.9c0.2-0.3,0.4-0.6,0.6-0.8
		c0.5-0.5,0.9-1.3,1.7-0.8c0.6,0.4,0.4,1.1,0.3,1.7C41.2,61.2,40.2,68,39,74.9c-1.6,9.1-3.5,18.1-4.7,27.2c-0.1,0.4-0.1,0.9-0.4,1.2
		c-0.3,0.5-1,0.7-1.3,0.1C31.9,101.8,31.1,100.2,30.9,98.5z"/>
	<path class="st0" d="M64,99.6c-0.5,1.9-0.9,4.1-1.3,6.2c-0.9,5.7-2,11.4-3,17.1c0,0.3-0.1,0.5-0.2,0.8c-0.5,2-1.1,2.7-2.2,2.3
		c-1.3-0.4-2.2-1.9-1.9-3.3c0.7-3.6,1.4-7.2,2-10.8c0.7-4.2,1.6-8.4,2.1-12.7c0.1-1,0.3-1.9,0.6-2.8c0.2-0.6,0.6-1.1,1.4-0.8
		C62.3,95.7,64,98.5,64,99.6z"/>
	<path class="st0" d="M75.6,31.8c-0.2,1.3-0.4,2.6-0.6,3.9c-1,5.4-2,10.7-2.9,16c-0.3,1.4-0.4,2.8-0.6,4.2c-0.3,2.2-1.8,3.4-3.3,4.6
		c-0.4,0.3-0.9,0.7-1.4,0.2c-0.4-0.3-0.2-0.8-0.1-1.2c0.6-2.8,1.2-5.5,1.7-8.3c1-5.7,1.9-11.4,2.9-17.1c0.3-1.6,0.9-2.8,2.5-3.5
		C75,29.9,75.6,30.3,75.6,31.8z"/>
	<path class="st0" d="M74.9,54c0.6-3.3,1.1-6.4,1.6-9.4c0.8-4.5,1.7-9,2.5-13.4c0.2-1.2,0.8-2.1,1.7-2.8c0.6-0.4,1.3-0.5,2-0.2
		c0.8,0.4,0.6,1.1,0.5,1.9c-0.8,4.4-1.7,8.8-2.5,13.2c-0.5,2.8-1,5.5-1.3,8.3c-0.2,2.1-1.8,2.7-3.2,3.5C75.4,55.5,74.9,54.8,74.9,54
		z"/>
	<path class="st0" d="M70.2,103.5c-1.1,6.4-2.1,12.1-3.1,17.9c-0.3,1.6-0.5,3.3-0.9,4.9c-0.4,1.6-1,2-2.1,1.7
		c-1.5-0.3-2-1.2-1.7-2.7c1.3-7.3,2.6-14.7,3.9-22c0.2-1,0-2.3,1.6-2.1C69.2,101.5,70.3,102.9,70.2,103.5z"/>
	<path class="st0" d="M69.1,127.2c0.5-2.6,1.1-5.4,1.6-8.2c0.8-4.2,1.4-8.5,2.2-12.7c0.3-1.5,0.9-2.1,2-1.9c1.1,0.2,1.7,1.3,1.5,2.7
		c-0.1,0.5-0.2,1-0.3,1.5c-0.2,0.8-0.3,1.5-0.4,2.3c-0.9,5.5-1.8,11.1-2.8,16.6c-0.3,1.6-1.1,2.4-2.1,2.2
		C69.7,129.5,69,128.5,69.1,127.2z"/>
	<path class="st0" d="M82.7,50.1c0.6-3.3,1.1-6.5,1.7-9.7c0.7-3.8,1.4-7.6,2-11.4c0.1-0.8,0.4-1.5,1-2c0.5-0.4,1.1-0.6,1.7-0.4
		c0.7,0.3,0.8,0.9,0.7,1.5c-0.2,1.5-0.4,2.9-0.7,4.4c-1,5-1.9,10-2.6,15c-0.2,1.2-0.4,2.5-1.3,3.4c-0.5,0.6-1.1,1.3-2,0.9
		C82.5,51.5,82.9,50.6,82.7,50.1z"/>
	<path class="st0" d="M28.6,88.1c-0.4-2.1-0.3-3.9-0.2-5.7c0.2-3.8,1.4-7.4,2.9-10.9c0.2-0.4,0.4-1.1,1.1-0.8
		c0.4,0.2,0.4,0.8,0.3,1.2c-0.8,4.6-1.7,9.3-2.5,13.9C30,86.6,29.8,87.4,28.6,88.1z"/>
	<path class="st0" d="M88.8,157.9c-3.7,0-7.4,0-11.1,0c-2.1,0-2.3-0.4-2-2.3c1.4-7.8,2.9-15.6,4.3-23.4c1.2-6.7,2.4-13.3,3.7-20
		c0.2-1,0.2-2.1,0.3-3.2c0.3-1.9,0.9-2.5,2.8-2.4c7.6,0.3,14.3-2.5,20.7-6.1c5.3-3,9.5-7.2,12.8-12.4c3.8-6,5.5-12.5,3.7-19.4
		c-1.8-6.8-5.8-12-12-15.4c-4.6-2.5-9.5-3.7-14.7-3.9c-2.1-0.1-2.5-0.4-2.1-2.3c1.1-6.2,2.2-12.5,3.3-18.7c0.6-3.2,1.2-3.5,4-2.5
		c3.5,1.3,7.2,1.6,10.8,2.2c5.5,0.9,10.8,2.6,15.7,5.2c9,4.8,15.7,11.8,20.2,21c0.6,1.2,0.9,2.5,1.3,3.7c2.1,7.2,2,14.4,0.2,21.7
		c-2.5,10.3-7.5,19.3-14.7,27c-7,7.5-15.2,13.3-24.8,17.1c-1.8,0.7-2.9,1.7-3.2,3.7c-0.9,6-2.1,12-3.1,17.9
		c-0.6,3.2-1.4,6.3-1.7,9.6c-0.2,2.3-1.1,2.8-3.4,2.8C96.2,157.9,92.5,157.9,88.8,157.9C88.8,157.9,88.8,157.9,88.8,157.9z"/>
	<path class="st0" d="M175.2,100.7c-2.2,0.1-5.4-0.3-8.4-1.8c-5.2-2.5-7.4-7.2-8.1-12.6c-0.8-6.6,0.8-13.1,3.6-19
		c3.6-7.5,10.1-11.3,18.2-12.2c3.4-0.3,6.9-0.4,10.2,0.5c4.1,1.1,7.5,3.1,8.9,7.4c0.5,1.5,0.7,3.1,1,4.6c0.2,1.2-0.5,1.8-1.7,1.9
		c-1.6,0.1-3.2,0.1-4.8,0c-1,0-1.5-0.6-1.9-1.6c-1.4-4.1-4.2-5.9-8.4-6.3c-9.3-0.7-14.6,6.7-16.1,12.8c-0.7,2.7-1.3,5.5-1,8.3
		c0.3,2.7,0.9,5.3,2.9,7.5c4,4.3,11.8,4.4,16.4,0.5c1.2-1,2.4-2.1,3.1-3.6c0.6-1.3,1.6-1.8,3-1.7c1.3,0.1,2.6,0,4,0.1
		c1.3,0.1,1.7,0.7,1.4,2c-0.2,0.7-0.5,1.3-0.9,1.9C192.3,97.7,185.2,100.8,175.2,100.7z"/>
	<path class="st0" d="M352.3,100.7c-4.2,0.1-7.8-0.4-11.1-2.4c-3.6-2.2-5.4-5.5-6.3-9.4c-1.1-5-0.5-10,0.8-14.9
		c0.9-3.6,2.2-7,4.6-10c4-5.2,9.3-8,15.7-8.7c4.2-0.4,8.4-0.5,12.5,1.1c4.9,1.9,7.4,5.5,7.9,10.6c0.3,2.3-0.3,2.8-2.6,2.8
		c-0.7,0-1.4,0-2.1,0c-2.8,0-2.7,0-3.8-2.7c-1.1-2.5-3.1-4.1-5.7-4.7c-6-1.4-12.2,0.7-15.7,6.1c-3.4,5.2-4.3,11-3.5,17.2
		c0.6,4,5.6,8.1,9.5,8.2c5.7,0.1,9.9-2,12.8-6.8c0.6-0.9,1.3-1.4,2.4-1.4c1.4,0,2.8,0.1,4.2-0.1c1.5-0.2,2.1,0.6,1.5,2.1
		c-1.9,4.7-5,8.3-9.6,10.5C360.1,100,356.1,101,352.3,100.7z"/>
	<g>
		<path class="st0" d="M175.7,121.2l-2.2,0.6c-0.2-2-0.8-3.4-1.7-4.2c-0.9-0.8-1.9-1.2-3.1-1.2c-1.4,0-2.6,0.5-3.5,1.4
			c-1,0.9-1.8,2.3-2.4,4.2c-0.6,1.9-0.9,3.6-0.9,5.2c0,2,0.4,3.6,1.3,4.7c0.9,1.1,2.1,1.7,3.6,1.7c2.3,0,4.2-1.6,5.5-4.8l2.1,0.8
			c-1.5,4.1-4.1,6.1-7.7,6.1c-2.4,0-4.2-0.8-5.5-2.5c-1.3-1.7-1.9-3.8-1.9-6.4c0-3.1,0.9-6,2.6-8.5c1.7-2.6,4-3.9,6.8-3.9
			c1.8,0,3.3,0.5,4.7,1.6C174.6,117.1,175.4,118.8,175.7,121.2z"/>
		<path class="st0" d="M197,135.8c-2.4,0-4.2-0.8-5.6-2.5c-1.4-1.7-2.1-3.9-2.1-6.7c0-3.1,0.9-5.9,2.6-8.4c1.7-2.5,4.1-3.7,6.9-3.7
			c2.3,0,4.1,0.8,5.6,2.4s2.2,3.8,2.2,6.5c0,3.3-0.9,6.2-2.6,8.7C202.3,134.6,199.9,135.8,197,135.8z M197,133.8
			c1.6,0,2.9-0.6,4-1.8c1.1-1.2,1.9-2.7,2.3-4.5c0.4-1.8,0.6-3.4,0.6-4.6c0-2-0.5-3.5-1.5-4.6s-2.2-1.7-3.8-1.7
			c-2.2,0-3.9,1.1-5,3.3c-1.2,2.2-1.8,4.6-1.8,7.3c0,2.1,0.5,3.8,1.4,4.9C194.3,133.2,195.5,133.8,197,133.8z"/>
		<path class="st0" d="M235.9,135.4h-2l-8-17.5l-3,17.5h-2l3.4-20.5h2.8l7.5,16.3l2.7-16.3h2L235.9,135.4z"/>
		<path class="st0" d="M268.8,119.2l-2.2,0.8c-0.4-1.1-1-2-2-2.7c-0.9-0.7-2-1-3.2-1c-1.5,0-2.6,0.4-3.3,1.1
			c-0.7,0.7-1.1,1.6-1.1,2.5c0,0.6,0.2,1.2,0.5,1.6c0.3,0.5,0.8,0.8,1.3,1c0.5,0.2,1.5,0.5,2.9,0.9c1.8,0.5,3.1,0.9,3.9,1.3
			c0.8,0.4,1.4,1,2,1.8c0.6,0.8,0.8,1.8,0.8,2.9c0,1.9-0.7,3.5-2.1,4.7s-3.3,1.8-5.7,1.8c-4.4,0-7.2-1.9-8.4-5.7l2.2-0.8
			c0.9,3,3,4.4,6.1,4.4c1.7,0,3-0.4,3.9-1.2c0.9-0.8,1.3-1.8,1.3-2.9c0-0.7-0.2-1.2-0.5-1.7c-0.3-0.5-0.7-0.9-1.3-1.1
			c-0.5-0.2-1.3-0.5-2.5-0.8c-1.8-0.4-3.1-0.8-4.1-1.3c-1-0.4-1.7-1.1-2.3-1.9c-0.5-0.8-0.8-1.7-0.8-2.8c0-1.6,0.6-3,1.9-4.1
			c1.2-1.1,2.9-1.7,4.9-1.7C265,114.4,267.5,116,268.8,119.2z"/>
		<path class="st0" d="M297.6,117h-5.9l-3.1,18.4h-2.5l3.1-18.4h-5.9l0.3-2.1H298L297.6,117z"/>
		<path class="st0" d="M319.8,126.4h-6l-1.5,9h-2.5l3.4-20.5h6.4c1.9,0,3.4,0.2,4.3,0.6s1.7,1,2.3,1.9c0.6,0.9,0.8,1.8,0.8,2.9
			c0,1.4-0.4,2.6-1.3,3.7c-0.9,1.1-2,1.7-3.4,1.9l2.9,9.4h-2.7L319.8,126.4z M314.1,124.4h4.7c3.8,0,5.7-1.4,5.7-4.1
			c0-2.3-1.5-3.4-4.4-3.4h-4.7L314.1,124.4z"/>
		<path class="st0" d="M358.5,114.9l-2.1,12.5c-0.4,2.3-0.8,3.9-1.4,5c-0.6,1.1-1.4,1.9-2.5,2.5c-1.1,0.6-2.5,0.9-4,0.9
			c-1.9,0-3.5-0.5-4.8-1.4c-1.3-0.9-2-2.4-2-4.4c0-0.6,0.2-1.9,0.5-3.8l1.9-11.3h2.5l-2,11.9c-0.3,1.7-0.4,2.7-0.4,3.2
			c0,1.2,0.4,2.2,1.2,2.8c0.8,0.7,1.9,1,3.1,1c1.1,0,2.1-0.2,2.9-0.7c0.8-0.5,1.4-1.1,1.8-1.8c0.4-0.8,0.7-2,1-3.7l2.1-12.7H358.5z"
			/>
		<path class="st0" d="M389.1,121.2l-2.2,0.6c-0.2-2-0.8-3.4-1.7-4.2c-0.9-0.8-1.9-1.2-3.1-1.2c-1.4,0-2.6,0.5-3.5,1.4
			c-1,0.9-1.8,2.3-2.4,4.2c-0.6,1.9-0.9,3.6-0.9,5.2c0,2,0.4,3.6,1.3,4.7c0.9,1.1,2.1,1.7,3.6,1.7c2.3,0,4.2-1.6,5.5-4.8l2.1,0.8
			c-1.5,4.1-4.1,6.1-7.7,6.1c-2.4,0-4.2-0.8-5.5-2.5c-1.3-1.7-1.9-3.8-1.9-6.4c0-3.1,0.9-6,2.6-8.5c1.7-2.6,4-3.9,6.8-3.9
			c1.8,0,3.3,0.5,4.7,1.6C388,117.1,388.8,118.8,389.1,121.2z"/>
		<path class="st0" d="M417.5,117h-5.9l-3.1,18.4h-2.5L409,117h-5.9l0.3-2.1h14.4L417.5,117z"/>
		<path class="st0" d="M437.1,135.8c-2.4,0-4.2-0.8-5.6-2.5c-1.4-1.7-2.1-3.9-2.1-6.7c0-3.1,0.9-5.9,2.6-8.4
			c1.7-2.5,4.1-3.7,6.9-3.7c2.3,0,4.1,0.8,5.6,2.4c1.4,1.6,2.2,3.8,2.2,6.5c0,3.3-0.9,6.2-2.6,8.7
			C442.3,134.6,440,135.8,437.1,135.8z M437.1,133.8c1.6,0,2.9-0.6,4-1.8c1.1-1.2,1.9-2.7,2.3-4.5c0.4-1.8,0.6-3.4,0.6-4.6
			c0-2-0.5-3.5-1.5-4.6s-2.2-1.7-3.8-1.7c-2.2,0-3.9,1.1-5,3.3c-1.2,2.2-1.8,4.6-1.8,7.3c0,2.1,0.5,3.8,1.4,4.9
			C434.3,133.2,435.6,133.8,437.1,133.8z"/>
		<path class="st0" d="M471,126.4h-6l-1.5,9H461l3.4-20.5h6.4c1.9,0,3.4,0.2,4.3,0.6s1.7,1,2.3,1.9c0.6,0.9,0.8,1.8,0.8,2.9
			c0,1.4-0.4,2.6-1.3,3.7c-0.9,1.1-2,1.7-3.4,1.9l2.9,9.4h-2.7L471,126.4z M465.3,124.4h4.7c3.8,0,5.7-1.4,5.7-4.1
			c0-2.3-1.5-3.4-4.4-3.4h-4.7L465.3,124.4z"/>
		<path class="st0" d="M503.4,129.4h-7.5l-2.9,6h-2.3l10.1-20.5h2.8l3.6,20.5h-2.6L503.4,129.4z M503.1,127.4l-1.6-9.4l-4.6,9.4
			H503.1z"/>
	</g>
</g>
</svg>
