<?xml version="1.0" encoding="utf-8"?>
<!-- Generator: Adobe Illustrator 23.0.1, SVG Export Plug-In . SVG Version: 6.00 Build 0)  -->
<svg version="1.1" id="Capa_1" xmlns="http://www.w3.org/2000/svg" xmlns:xlink="http://www.w3.org/1999/xlink" x="0px" y="0px"
	 viewBox="0 0 466 141.6" style="enable-background:new 0 0 466 141.6;" xml:space="preserve">
<style type="text/css">
	.st0{fill:#FFFFFF;}
</style>
<g>
	<path class="st0" d="M51.6,32.7c-10.4-1.7-20.9-0.3-31.4-0.8c-3.4-0.2-4.6,0.7-4.5,4.3c0.2,12,0.1,24,0.1,36c0,12.2,0,24.3,0,36.5
		c0,2.3,0.2,3.7,3.1,3.6c10.3-0.2,20.7,0.1,31-0.4c13.2-0.7,21-7.4,22.6-20.3c1.5-12.7,1.6-25.7,0-38.4
		C70.8,40.3,64.6,34.8,51.6,32.7z M53,82.8c-0.1,9.1-6.9,13.8-15.6,11.2c-2-0.6-1.5-1.9-1.5-3.1c-0.1-6.3,0-12.6,0-18.9l0,0
		c0-6,0.1-12-0.1-17.9c-0.1-2.9,0.5-4,3.8-4c9.8,0,13.2,3,13.4,12.9C53.1,69.5,53.1,76.2,53,82.8z"/>
	<path class="st0" d="M178.1,72.2c0-12.1-0.1-24.3,0.1-36.4c0-3-0.7-4.2-3.9-3.9c-4,0.3-8,0.3-12,0c-3.5-0.3-4.5,0.8-4.4,4.4
		c0.2,20.1,0,40.3,0.1,60.4c0,5.1-2.3,12.1,1,14.8c3.1,2.6,9.8,0.6,15,0.9c3.2,0.2,4.2-0.8,4.2-4.1C178,96.2,178.1,84.2,178.1,72.2z
		"/>
	<path class="st0" d="M126.7,31.9c-8.1,0.1-16.2,0-24.8,0c4.5,18.5,9,36.4,13.7,55.6c4.6-18.5,8.9-35.7,13.2-52.9
		C129.3,32.7,128.9,31.9,126.7,31.9z"/>
	<path class="st0" d="M93.3,61c-0.3,0-0.6,0-0.9,0.1c0,13.7,0,27.5,0,41.2c0,11.1,0.1,11.2,11.3,10c2-0.2,2.6-0.7,2.1-2.7
		C101.6,93.4,97.5,77.2,93.3,61z"/>
	<path class="st0" d="M138.9,60.4c-0.2-0.1-0.5-0.2-0.7-0.3c-3.6,14.1-7.1,28.2-10.7,42.3c-2.7,10.5-2.7,10.4,8.2,9.9
		c2.6-0.1,3.4-0.9,3.3-3.5C138.9,92.6,138.9,76.5,138.9,60.4z"/>
	<path class="st0" d="M195.3,87.7c-6,0.2-2.3,4.6-3.1,7c-0.5,1.5-0.1,3.3-0.1,4.9c0,1.7,0,3.3,0,5c0,8.3,0.4,8.6,8.6,7.3
		c4.2-0.6,6-3.3,6.2-7.1c0.3-3.3,0.3-6.6,0-9.9C206.5,89,203.5,87.4,195.3,87.7z M204,106.5c-1,3.8-4.2,3.8-7.2,3.5
		c-3.4-0.3-1.6-3-1.9-4.7c-0.3-1.8-0.1-3.6-0.1-5.5c0-1.8-0.2-3.7,0.1-5.5c0.3-1.6-1.5-4.3,2.1-4.4c2.9-0.1,6-0.3,6.9,3.2
		C205.1,97.6,205.1,102.1,204,106.5z"/>
	<path class="st0" d="M411.3,94.2c-0.2-4.4-2.8-6.6-6.9-7c-4.3-0.4-7.6,2.1-8,6.4c-0.4,4.4-0.5,8.9,0.3,13.4
		c0.8,4.2,3.4,5.8,7.4,5.8c4.1-0.1,6.5-2.1,7-6.2c0.3-2.3,0.3-4.6,0.4-7c-0.1,0-0.1,0-0.2,0C411.3,97.8,411.4,96,411.3,94.2z
		 M408.5,106.9c-0.5,2.6-2.2,4-5,3.8c-2.6-0.1-4.1-1.7-4.3-4c-0.3-4.5-0.3-9-0.1-13.4c0.1-2.4,1.9-3.9,4.3-4
		c2.7-0.2,4.6,1.2,5.1,3.8c0.4,2.3,0.3,4.6,0.5,7.2C408.9,102.3,408.9,104.7,408.5,106.9z"/>
	<path class="st0" d="M340.1,87.2c-4.4,0.1-6.9,2.6-7.2,7.3c-0.1,1.8,0,3.7,0,5.5l0,0c0,1.8-0.1,3.7,0,5.5c0.2,4.4,2.2,7.2,7,7.4
		c4.7,0.2,7.4-2,7.9-7c0.3-4,0.3-8,0-11.9C347.4,89.3,344.5,87,340.1,87.2z M345,106.8c-0.3,2.5-1.9,3.8-4.3,3.9s-4.2-0.9-4.7-3.5
		c-1-4.8-1-9.6-0.1-14.3c0.5-2.7,2.4-4,5.1-3.7s4.2,1.9,4.3,4.6c0,2,0,4,0,6c0.1,0,0.2,0,0.3,0C345.3,102.2,345.2,104.5,345,106.8z"
		/>
	<path class="st0" d="M321.1,99.9c3.4-2.8,3.6-6.4,1.3-9.7c-2.8-4-7.5-2.9-11-2.1c-3.1,0.7-1,4.5-1.4,6.9c-0.3,1.6-0.1,3.3-0.1,5
		c0,1.5-0.2,3,0,4.5c0.3,2.5-0.9,7.2,0.9,7c3-0.3,0.8-4.3,1.4-6.6c0-0.2,0-0.3,0-0.5c0.2-1.4-0.6-3.1,1.8-3.3c2.1-0.2,3.5,0.3,4,2.6
		c0.5,2.1,1.3,4.1,2.1,6.1c0.4,1,0.6,2.7,2.1,2.2c1.7-0.5,0.5-1.9,0.2-2.9c-0.6-1.9-1.3-3.8-2-5.6C320,102.1,319.7,101,321.1,99.9z
		 M315.2,99.1c-4,0.3-2.9-2.6-3.1-4.7c-0.2-2.7-0.4-5,3.6-4.7c3.2,0.2,5.1,1.3,5.1,4.7C320.9,98.2,318.4,98.9,315.2,99.1z"/>
	<path class="st0" d="M432.3,100.7c-2.2-1.5-4.6-2.7-6.7-4.3c-1.6-1.2-2.1-3.1-1.1-4.9s2.7-2.4,4.7-2c1.6,0.3,2.7,1.3,3,2.9
		c0.3,1.2,1.1,1.8,2.2,1.4c1.2-0.5,0.7-1.7,0.4-2.6c-0.9-3-3.5-3.8-6.4-4.1c-2.9,0.3-5.7,1.2-6.8,4.6c-1,3.2,0.3,5.5,2.8,7.3
		c1.8,1.2,3.8,2.1,5.6,3.3c1.8,1.2,2.9,2.7,2.4,5c-0.4,1.9-1.8,2.8-3.5,3.2c-2.2,0.5-3.8-0.3-5.1-2.2c-0.6-1-0.6-3.4-2.3-2.3
		c-1.5,1-0.6,3.1,0.5,4.4c2,2.6,4.9,2.7,7.8,2.2c2.5-0.4,4.8-1.6,5.4-4.5C435.6,105.2,434.9,102.5,432.3,100.7z"/>
	<path class="st0" d="M250.1,101.6c-1.8-1.4-3.9-2.5-5.9-3.7c-1.9-1.2-3.5-2.6-3.3-5.1c0.2-2,1.6-2.9,3.3-3.2
		c2.5-0.4,4.2,0.6,4.8,3.1c0.3,1.3,1.4,1.6,2.3,1.1c1.1-0.6,0.6-1.7,0.3-2.7c-1-3-3.5-3.7-6.4-4c-3.1,0.1-5.8,1.2-6.8,4.6
		c-1,3.1,0.3,5.5,2.9,7.3c1.6,1.1,3.4,2,5.1,3c2,1.2,3.2,2.9,2.8,5.3c-0.3,1.9-1.7,2.8-3.4,3.1c-2.4,0.5-4.2-0.4-5.3-2.6
		c-0.5-0.9-0.4-2.8-2.1-2c-1.5,0.8-0.7,2.5-0.2,3.6c1.3,2.8,3.9,3.3,6.7,3.3c3,0,5.7-1,6.8-4C252.7,106.2,252.5,103.5,250.1,101.6z"
		/>
	<path class="st0" d="M271.2,89.7c-0.3-1-0.6-1.9-1.9-1.9c-1.1,0-1.9,0.2-2.3,1.4c-2.4,7.5-4.7,15-7.1,22.4c1.6,0.8,2.4,0.2,2.6-0.6
		c0.7-3.5,2.4-5.1,6.4-5.1c3.9,0.1,5.9,1.2,6.4,5c0.1,0.9,1,1.3,1.9,1.1c1.5-0.4,0.8-1.6,0.6-2.4C275.5,103,273.3,96.3,271.2,89.7z
		 M272.2,103.5c-1.8,0.8-4.2,0.6-6.3,0.4c-1.4-0.2-0.8-1.5-0.5-2.4c1-3.3,2-6.7,3.3-11.2c1.3,4,2.3,6.6,2.9,9.2
		C272,100.8,273.4,103,272.2,103.5z"/>
	<path class="st0" d="M298.1,99.8c3.2-2.7,3.2-6.4,1.2-9.5c-2.6-4.2-7.4-3-11-2.2c-3.4,0.7-1.1,4.5-1.5,6.9c-0.3,1.4-0.1,3-0.1,4.5
		c0,1.8-0.2,3.7,0,5.5c0.3,2.3-0.9,6.8,0.9,6.6c3-0.4,0.8-4.3,1.4-6.7c0.4-1.4-0.9-3.5,1.8-3.8c2.2-0.2,3.4,0.5,4,2.6
		c0.7,2.4,1.6,4.7,2.5,7c0.3,0.8,0.8,1.6,1.8,1.3c1.1-0.4,0.7-1.3,0.4-2.1c-0.6-1.7-1.2-3.4-1.8-5.2
		C297.4,103.1,296,101.6,298.1,99.8z M292.4,99.1c-3.9,0.3-3.3-2.2-3.2-4.5c0-2.3-0.8-5.1,3.4-4.8c3.1,0.2,5.2,1.1,5.3,4.5
		C298,97.9,295.6,98.8,292.4,99.1z"/>
	<path class="st0" d="M224.5,110.1c-3.6,0.4-4.9-0.7-4.8-4.6c0.1-3.7,0.9-5.2,4.7-4.7c1.4,0.2,3.3,0.7,4.6-1.3
		c-1.8-1.4-3.7-1-5.3-0.8c-3.7,0.5-4-1.5-4-4.4c0.1-2.7,0-4.9,3.8-4.5c1.9,0.2,4.1,0.8,5.8-1.5c-3.6-0.6-7.1-0.6-10.6-0.6
		c-2.1,0-1.7,1.6-1.7,2.9c0,6.2,0,12.3,0,18.5c0,1.1-0.5,2.8,1.2,2.8c3.8,0.1,7.7,0.9,12.1-0.8C228.1,109.6,226.2,109.9,224.5,110.1
		z"/>
	<path class="st0" d="M365.5,110.1c-4,0.6-5.1-1.1-4.9-5c0.3-5,0.1-10,0.1-14.9c0-1-0.1-2.2-1.4-2.3c-1.4-0.1-1.4,1.1-1.4,2.1
		c0,6.6,0,13.3,0,19.9c0,1,0,2.2,1.4,2.2c3.5,0,7.1,0.7,11.1-0.7C368.5,109.5,366.8,109.9,365.5,110.1z"/>
	<path class="st0" d="M384.9,110.1c-4.3,0.6-5.4-1.1-5.1-5.2c0.4-4.8,0.1-9.6,0.1-14.4c0-1.1,0.3-2.6-1.5-2.6
		c-1.7,0.1-1.3,1.6-1.3,2.7c0,4,0,8,0,11.9c0,10.9,0,10.9,10.9,9.6c0.3,0,0.6-0.3,1.1-0.7C387.9,109.3,386.2,109.9,384.9,110.1z"/>
</g>
</svg>
