<?xml version="1.0" encoding="utf-8"?>
<!-- Generator: Adobe Illustrator 23.0.1, SVG Export Plug-In . SVG Version: 6.00 Build 0)  -->
<svg version="1.1" id="Capa_1" xmlns="http://www.w3.org/2000/svg" xmlns:xlink="http://www.w3.org/1999/xlink" x="0px" y="0px"
	 viewBox="0 0 340 290.6" style="enable-background:new 0 0 340 290.6;" xml:space="preserve">
<style type="text/css">
	.st0{fill:#C6C6C6;}
	.st1{fill:#FFFFFF;}
</style>
<g>
	<path class="st0" d="M217.8,16.9h-42.7V160h42.7c5.9,0,10.6-4.8,10.6-10.6V27.5C228.4,21.7,223.7,16.9,217.8,16.9z"/>
	<path class="st1" d="M187.3,120.5c0-5.9,4.8-10.6,10.6-10.6h30.6V85.4h-30.6c-5.9,0-10.6-4.8-10.6-10.6V60.6
		c0-5.9,4.8-10.6,10.6-10.6h30.6V27.5c0-5.9-4.8-10.6-10.6-10.6h-87.4c-5.9,0-10.6,4.8-10.6,10.6v121.9c0,5.9,4.8,10.6,10.6,10.6
		h56.8V120.5z"/>
	<g>
		<polygon class="st1" points="28.5,244 33.1,244 33.1,229.4 48.1,229.4 48.1,225.5 33.1,225.5 33.1,216 54.8,216 54.8,212 
			28.5,212 		"/>
		<rect x="62.5" y="212" class="st1" width="4.6" height="32"/>
		<polygon class="st1" points="77.8,244 104.9,244 104.9,240 82.4,240 82.4,229.4 97.5,229.4 97.5,225.5 82.4,225.5 82.4,216 
			104.3,216 104.3,212 77.8,212 		"/>
		<path class="st1" d="M111.7,240.3c5.2,2.9,9.7,4.3,13.5,4.3c2.2,0,4.2-0.3,6.1-0.9c2.4-0.8,4.3-1.9,5.4-3.5
			c1.2-1.7,1.9-3.7,1.9-5.8c0-1.4-0.3-2.7-0.8-3.9s-1.2-2.2-2.1-2.9c-0.9-0.7-2-1.2-3.2-1.6c-1.2-0.4-2.9-0.7-5-1l-3.6-0.4
			c-2.5-0.3-4.1-0.5-4.9-0.8c-2.4-0.7-2.9-2.2-2.9-3.3c0-1,0.4-1.9,1.1-2.7c0.7-0.7,1.6-1.3,2.7-1.7c1.4-0.4,2.9-0.7,4.6-0.7
			c4.4,0.2,8.1,1.6,11.1,4.2l2-3.9c-2.7-1.8-5-3-7.1-3.6c-2.2-0.6-4.3-0.9-6.2-0.9c-4.4,0-7.8,1.1-9.9,3.4c-1.6,1.7-2.4,3.9-2.4,6.5
			c0,1.6,0.3,3,0.9,4.2c0.7,1.3,1.7,2.4,2.9,3c0.9,0.5,1.8,0.8,2.6,1.1c0.9,0.2,2.5,0.5,4.8,0.7l3.5,0.4c2.5,0.3,4.1,0.6,5,1
			c2,0.7,2.4,2,2.4,3c0,0.9-0.3,1.8-0.9,2.6c-0.6,0.8-1.4,1.4-2.3,1.9c-1.6,0.8-3.5,1.2-5.7,1.2c-2,0-4.3-0.5-7-1.6
			c-2.2-0.9-3.9-1.7-5.1-2.6L111.7,240.3z"/>
		<polygon class="st1" points="155.2,244 159.8,244 159.8,216 171.8,216 171.8,212 143.1,212 143.1,216 155.2,216 		"/>
		<path class="st1" d="M203.7,244h4.9l-14.2-32H190l-13.8,32h4l4-8.5h15.6L203.7,244z M198.8,232.4h-13.6L192,218L198.8,232.4z"/>
		<rect x="228.3" y="212" class="st1" width="4.6" height="32"/>
		<polygon class="st1" points="269.7,244 273.6,244 273.6,212 269.6,212 269.6,235.6 248,212 243.6,212 243.6,244 247.6,244 
			247.6,220 		"/>
		<polygon class="st1" points="310.5,244 314.4,244 314.4,212 310.3,212 310.3,235.6 288.7,212 284.3,212 284.3,244 288.4,244 
			288.4,220 		"/>
	</g>
	<g>
		<polygon class="st1" points="29.4,269.9 30.9,269.9 30.9,258.9 29.4,258.9 29.4,263.6 21.5,263.6 21.5,258.9 20,258.9 20,269.9 
			21.5,269.9 21.5,264.8 29.4,264.8 		"/>
		<path class="st1" d="M42,258.7c-2.6,0-4.4,0.9-5.4,2.7c-0.6,0.9-0.8,2-0.8,3.1c0,0.8,0.1,1.5,0.4,2.2c0.3,0.8,0.8,1.5,1.3,2
			c1.1,1,2.6,1.6,4.5,1.6c2.6,0,4.3-0.9,5.4-2.7c0.6-0.9,0.8-1.9,0.8-3c0-1.8-0.6-3.1-1.8-4.2C45.5,259.2,43.9,258.7,42,258.7z
			 M42,268.9c-1.3,0-2.3-0.4-3.2-1.1c-1-0.9-1.5-2-1.5-3.4s0.5-2.5,1.5-3.4c0.8-0.7,1.9-1.1,3.1-1.1l0,0c1.2,0,2.3,0.4,3.2,1.1
			c1,0.8,1.5,2,1.5,3.4c0,0.6-0.1,1.2-0.4,1.7c-0.3,0.6-0.7,1.2-1.2,1.6C44.4,268.5,43.3,268.9,42,268.9z"/>
		<polygon class="st1" points="56.2,269.9 57.8,269.9 57.8,260.1 62.4,260.1 62.4,258.9 51.7,258.9 51.7,260.1 56.2,260.1 		"/>
		<polygon class="st1" points="66.5,269.9 76.6,269.9 76.6,268.7 68.1,268.7 68.1,264.8 73.8,264.8 73.8,263.6 68.1,263.6 
			68.1,260.1 76.4,260.1 76.4,258.9 66.5,258.9 		"/>
		<polygon class="st1" points="81.4,269.9 91.1,269.9 91.1,268.7 83,268.7 83,258.9 81.4,258.9 		"/>
		<polygon class="st1" points="95.3,269.9 105.4,269.9 105.4,268.7 96.9,268.7 96.9,264.8 102.6,264.8 102.6,263.6 96.9,263.6 
			96.9,260.1 105.2,260.1 105.2,258.9 95.3,258.9 		"/>
		<path class="st1" d="M109.6,268.7c1.9,1,3.6,1.5,5,1.5c0.8,0,1.6-0.1,2.3-0.3c0.9-0.3,1.6-0.7,2-1.2c0.5-0.6,0.7-1.2,0.7-2
			c0-0.5-0.1-0.9-0.3-1.3c-0.2-0.4-0.4-0.7-0.8-1c-0.3-0.2-0.7-0.4-1.2-0.6c-0.5-0.1-1.1-0.3-1.9-0.4l-1.4-0.1
			c-1-0.1-1.6-0.2-1.9-0.3c-1-0.3-1.2-0.8-1.2-1.3c0-0.4,0.1-0.7,0.4-1s0.6-0.5,1-0.6c0.5-0.2,1.1-0.2,1.8-0.2
			c1.6,0.1,3,0.6,4.2,1.4l0.6-1.2c-1-0.6-1.8-1-2.6-1.2c-0.8-0.2-1.6-0.3-2.3-0.3c-1.7,0-2.9,0.4-3.7,1.2c-0.6,0.6-0.9,1.3-0.9,2.2
			c0,0.5,0.1,1,0.3,1.4c0.3,0.5,0.6,0.8,1,1c0.3,0.2,0.7,0.3,1,0.4s1,0.2,1.8,0.3l1.3,0.1c1,0.1,1.6,0.2,1.9,0.4
			c0.8,0.3,1,0.8,1,1.2c0,0.4-0.1,0.7-0.4,1c-0.2,0.3-0.5,0.5-0.9,0.7c-1.1,0.5-2.7,0.6-4.9-0.2c-0.8-0.3-1.4-0.6-1.9-0.9V268.7z"/>
		<path class="st1" d="M130.2,269.9h7c0.7,0,1.3-0.1,1.8-0.2c0.4-0.1,0.8-0.3,1.2-0.6c0.7-0.5,1-1.3,1-2.2c0-1.2-0.6-2-2-2.4
			l-0.9-0.3l0.9-0.4c1.1-0.4,1.6-1.2,1.6-2.2c0-0.9-0.3-1.6-0.9-2.1c-0.3-0.2-0.6-0.4-1-0.5s-1-0.2-1.7-0.2h-6.9v11.1H130.2z
			 M136.7,268.7h-4.9v-4h4.9c0.9,0,1.6,0.1,2,0.4c0.6,0.3,0.9,0.9,0.9,1.6s-0.3,1.3-0.9,1.6C138.2,268.6,137.6,268.7,136.7,268.7z
			 M136.8,263.6h-5v-3.5h5c0.8,0,1.4,0.1,1.8,0.4c0.4,0.3,0.6,0.7,0.6,1.4c0,0.8-0.4,1.2-0.7,1.4
			C138.2,263.5,137.6,263.6,136.8,263.6z"/>
		<path class="st1" d="M145.7,258.9v7.2c0,0.8,0.1,1.5,0.3,2s0.5,0.9,1,1.3c0.9,0.6,2.3,0.8,4,0.8c2.4,0,4-0.5,4.8-1.5
			c0.4-0.6,0.6-1.4,0.6-2.6v-7.2H155v6.4c0,0.7,0,1.2-0.1,1.6s-0.3,0.7-0.5,1c-0.7,0.7-1.7,1-3.2,1s-2.5-0.3-3.2-1
			c-0.3-0.3-0.5-0.6-0.5-1c-0.1-0.4-0.1-0.9-0.1-1.6v-6.4L145.7,258.9L145.7,258.9z"/>
		<path class="st1" d="M161.2,268.7c1.9,1,3.6,1.5,5,1.5c0.8,0,1.6-0.1,2.3-0.3c0.9-0.3,1.6-0.7,2-1.2c0.5-0.6,0.7-1.2,0.7-2
			c0-0.5-0.1-0.9-0.3-1.3s-0.4-0.7-0.8-1c-0.3-0.2-0.7-0.4-1.2-0.6c-0.5-0.1-1.1-0.3-1.9-0.4l-1.4-0.1c-1-0.1-1.6-0.2-1.9-0.3
			c-1-0.3-1.2-0.8-1.2-1.3c0-0.4,0.1-0.7,0.4-1c0.3-0.3,0.6-0.5,1-0.6c0.5-0.2,1.1-0.2,1.8-0.2c1.6,0.1,3,0.6,4.2,1.4l0.6-1.2
			c-1-0.6-1.8-1-2.6-1.2s-1.6-0.3-2.3-0.3c-1.7,0-2.9,0.4-3.7,1.2c-0.6,0.6-0.9,1.3-0.9,2.2c0,0.5,0.1,1,0.3,1.4
			c0.3,0.5,0.6,0.8,1,1c0.3,0.2,0.7,0.3,1,0.4s1,0.2,1.8,0.3l1.3,0.1c1,0.1,1.6,0.2,1.9,0.4c0.8,0.3,1,0.8,1,1.2
			c0,0.4-0.1,0.7-0.4,1c-0.2,0.3-0.5,0.5-0.9,0.7c-1.1,0.5-2.7,0.6-4.9-0.2c-0.8-0.3-1.4-0.6-1.9-0.9L161.2,268.7z"/>
		<rect x="175.9" y="258.9" class="st1" width="1.6" height="11.1"/>
		<polygon class="st1" points="193,269.9 194.4,269.9 194.4,258.9 193,258.9 193,267.3 184.7,258.9 183.2,258.9 183.2,269.9 
			184.5,269.9 184.5,261.3 		"/>
		<polygon class="st1" points="200,269.9 210.1,269.9 210.1,268.7 201.6,268.7 201.6,264.8 207.3,264.8 207.3,263.6 201.6,263.6 
			201.6,260.1 209.9,260.1 209.9,258.9 200,258.9 		"/>
		<path class="st1" d="M214.3,268.7c1.9,1,3.6,1.5,5,1.5c0.8,0,1.6-0.1,2.3-0.3c0.9-0.3,1.6-0.7,2-1.2c0.5-0.6,0.7-1.2,0.7-2
			c0-0.5-0.1-0.9-0.3-1.3s-0.4-0.7-0.8-1c-0.3-0.2-0.7-0.4-1.2-0.6c-0.5-0.1-1.1-0.3-1.9-0.4l-1.4-0.1c-1-0.1-1.6-0.2-1.9-0.3
			c-1-0.3-1.2-0.8-1.2-1.3c0-0.4,0.1-0.7,0.4-1c0.3-0.3,0.6-0.5,1-0.6c0.5-0.2,1.1-0.2,1.8-0.2c1.6,0.1,3,0.6,4.2,1.4l0.6-1.2
			c-1-0.6-1.8-1-2.6-1.2s-1.6-0.3-2.3-0.3c-1.7,0-2.9,0.4-3.7,1.2c-0.6,0.6-0.9,1.3-0.9,2.2c0,0.5,0.1,1,0.3,1.4
			c0.3,0.5,0.6,0.8,1,1c0.3,0.2,0.7,0.3,1,0.4s1,0.2,1.8,0.3l1.3,0.1c1,0.1,1.6,0.2,1.9,0.4c0.8,0.3,1,0.8,1,1.2
			c0,0.4-0.1,0.7-0.4,1c-0.2,0.3-0.5,0.5-0.9,0.7c-1.1,0.5-2.7,0.6-4.9-0.2c-0.8-0.3-1.4-0.6-1.9-0.9L214.3,268.7z"/>
		<path class="st1" d="M228.5,268.7c1.9,1,3.6,1.5,5,1.5c0.8,0,1.6-0.1,2.3-0.3c0.9-0.3,1.6-0.7,2-1.2c0.5-0.6,0.7-1.2,0.7-2
			c0-0.5-0.1-0.9-0.3-1.3s-0.5-0.7-0.8-1c-0.3-0.2-0.7-0.4-1.2-0.6c-0.5-0.1-1.1-0.3-1.9-0.4l-1.4-0.1c-1-0.1-1.6-0.2-1.9-0.3
			c-1-0.3-1.2-0.8-1.2-1.3c0-0.4,0.1-0.7,0.4-1c0.3-0.3,0.6-0.5,1-0.6c0.5-0.2,1.1-0.2,1.8-0.2c1.6,0.1,3,0.6,4.2,1.4l0.6-1.2
			c-1-0.6-1.8-1-2.6-1.2s-1.6-0.3-2.3-0.3c-1.7,0-2.9,0.4-3.7,1.2c-0.6,0.6-0.9,1.3-0.9,2.2c0,0.5,0.1,1,0.3,1.4
			c0.3,0.5,0.6,0.8,1,1c0.3,0.2,0.7,0.3,1,0.4s1,0.2,1.8,0.3l1.3,0.1c1,0.1,1.6,0.2,1.9,0.4c0.8,0.3,1,0.8,1,1.2
			c0,0.4-0.1,0.7-0.4,1c-0.2,0.3-0.5,0.5-0.9,0.7c-1.1,0.5-2.7,0.6-4.9-0.2c-0.8-0.3-1.4-0.6-1.9-0.9L228.5,268.7z"/>
		<path class="st1" d="M254.7,258.7c-2.4,0-4.1,0.8-5.3,2.2c-0.8,1-1.2,2.2-1.2,3.5c0,1,0.2,1.9,0.6,2.7c0.4,0.7,0.9,1.3,1.5,1.8
			c1.1,0.8,2.5,1.2,4.3,1.2c0.9,0,1.6-0.1,2.3-0.3c0.6-0.2,1.4-0.6,2.4-1.1c0.3-0.2,0.6-0.4,0.8-0.5l-0.6-1
			c-0.4,0.3-0.7,0.6-1.1,0.8c-1.1,0.6-2.3,0.9-3.5,0.9c-1.5,0-2.7-0.4-3.6-1.1c-1.1-0.9-1.6-2-1.6-3.4s0.5-2.5,1.6-3.4
			c0.9-0.7,2.1-1.1,3.6-1.1c1.2,0,2.4,0.3,3.5,0.9c0.3,0.2,0.7,0.4,1.1,0.8l0.6-1c-0.2-0.2-0.5-0.4-0.8-0.5c-1-0.6-1.8-0.9-2.4-1.1
			S255.6,258.7,254.7,258.7z"/>
		<polygon class="st1" points="265.3,269.9 275.1,269.9 275.1,268.7 266.9,268.7 266.9,258.9 265.3,258.9 		"/>
		<path class="st1" d="M288.8,269.9h1.6l-5.3-11.1h-1.6l-5.1,11.1h1.3l1.5-3h6L288.8,269.9z M287,266.1h-5.5l2.8-5.4L287,266.1z"/>
		<path class="st1" d="M294.5,268.7c1.9,1,3.6,1.5,5,1.5c0.8,0,1.6-0.1,2.3-0.3c0.9-0.3,1.6-0.7,2-1.2c0.5-0.6,0.7-1.2,0.7-2
			c0-0.5-0.1-0.9-0.3-1.3c-0.2-0.4-0.4-0.7-0.8-1c-0.3-0.2-0.7-0.4-1.2-0.6c-0.5-0.1-1.1-0.3-1.9-0.4l-1.4-0.1
			c-1-0.1-1.6-0.2-1.9-0.3c-1-0.3-1.2-0.8-1.2-1.3c0-0.4,0.1-0.7,0.4-1s0.6-0.5,1-0.6c0.5-0.2,1.1-0.2,1.8-0.2
			c1.6,0.1,3,0.6,4.2,1.4l0.6-1.2c-1-0.6-1.8-1-2.6-1.2c-0.8-0.2-1.6-0.3-2.3-0.3c-1.7,0-2.9,0.4-3.7,1.2c-0.6,0.6-0.9,1.3-0.9,2.2
			c0,0.5,0.1,1,0.3,1.4c0.3,0.5,0.6,0.8,1,1c0.3,0.2,0.7,0.3,1,0.4s1,0.2,1.8,0.3l1.3,0.1c1,0.1,1.6,0.2,1.9,0.4
			c0.8,0.3,1,0.8,1,1.2c0,0.4-0.1,0.7-0.4,1c-0.2,0.3-0.5,0.5-0.9,0.7c-1.1,0.5-2.7,0.6-4.9-0.2c-0.8-0.3-1.4-0.6-1.9-0.9V268.7z"/>
		<path class="st1" d="M308.7,268.7c1.9,1,3.6,1.5,5,1.5c0.8,0,1.6-0.1,2.3-0.3c0.9-0.3,1.6-0.7,2-1.2c0.5-0.6,0.7-1.2,0.7-2
			c0-0.5-0.1-0.9-0.3-1.3c-0.2-0.4-0.4-0.7-0.8-1c-0.3-0.2-0.7-0.4-1.2-0.6c-0.5-0.1-1.1-0.3-1.9-0.4l-1.4-0.1
			c-1-0.1-1.6-0.2-1.9-0.3c-1-0.3-1.2-0.8-1.2-1.3c0-0.4,0.1-0.7,0.4-1s0.6-0.5,1-0.6c0.5-0.2,1.1-0.2,1.8-0.2
			c1.6,0.1,3,0.6,4.2,1.4l0.6-1.2c-1-0.6-1.8-1-2.6-1.2c-0.8-0.2-1.6-0.3-2.3-0.3c-1.7,0-2.9,0.4-3.7,1.2c-0.6,0.6-0.9,1.3-0.9,2.2
			c0,0.5,0.1,1,0.3,1.4c0.3,0.5,0.6,0.8,1,1c0.3,0.2,0.7,0.3,1,0.4s1,0.2,1.8,0.3l1.3,0.1c1,0.1,1.6,0.2,1.9,0.4
			c0.8,0.3,1,0.8,1,1.2c0,0.4-0.1,0.7-0.4,1c-0.2,0.3-0.5,0.5-0.9,0.7c-1.1,0.5-2.7,0.6-4.9-0.2c-0.8-0.3-1.4-0.6-1.9-0.9V268.7z"/>
	</g>
</g>
</svg>
