<?xml version="1.0" encoding="utf-8"?>
<!-- Generator: Adobe Illustrator 23.0.1, SVG Export Plug-In . SVG Version: 6.00 Build 0)  -->
<svg version="1.1" id="Capa_1" xmlns="http://www.w3.org/2000/svg" xmlns:xlink="http://www.w3.org/1999/xlink" x="0px" y="0px"
	 viewBox="0 0 380.2 171.8" style="enable-background:new 0 0 380.2 171.8;" xml:space="preserve">
<style type="text/css">
	.st0{fill:#FFFFFF;}
</style>
<g>
	<g>
		<g>
			<path class="st0" d="M76.8,154.3c-0.1,0-0.3,0-0.3-0.1c-0.1-0.1-0.1-0.2-0.1-0.4v-10.6c0-0.2,0-0.3,0.1-0.4
				c0.1-0.1,0.2-0.1,0.3-0.1c0.2,0,0.3,0,0.4,0.1c0.1,0.1,0.1,0.2,0.1,0.4v10.6c0,0.2,0,0.3-0.1,0.4
				C77.1,154.2,76.9,154.3,76.8,154.3z"/>
		</g>
		<g>
			<path class="st0" d="M76.8,154.5c-0.2,0-0.4-0.1-0.5-0.2c-0.1-0.1-0.2-0.3-0.2-0.5v-10.6c0-0.2,0.1-0.4,0.2-0.5
				c0.3-0.3,0.8-0.3,1,0c0.1,0.1,0.2,0.3,0.2,0.5v10.6c0,0.2-0.1,0.4-0.2,0.5C77.2,154.4,77,154.5,76.8,154.5z M76.8,142.8
				c-0.1,0-0.2,0-0.2,0.1c-0.1,0.1-0.1,0.2-0.1,0.2v10.6c0,0.1,0,0.2,0.1,0.2c0,0,0.1,0.1,0.2,0.1c0.1,0,0.2,0,0.2-0.1
				c0-0.1,0.1-0.1,0.1-0.2v-10.6c0-0.1,0-0.2-0.1-0.2C77,142.8,76.9,142.8,76.8,142.8z"/>
		</g>
	</g>
	<g>
		<g>
			<path class="st0" d="M82.2,154.3c-0.1,0-0.3,0-0.3-0.1c-0.1-0.1-0.1-0.2-0.1-0.4v-10.7c0-0.2,0-0.3,0.1-0.4
				c0.1-0.1,0.2-0.1,0.3-0.1c0.1,0,0.2,0,0.3,0.1c0.1,0,0.1,0.1,0.2,0.2l7.1,10.1h-0.4v-9.9c0-0.2,0-0.3,0.1-0.4
				c0.1-0.1,0.2-0.1,0.3-0.1c0.1,0,0.2,0,0.3,0.1c0.1,0.1,0.1,0.2,0.1,0.4v10.7c0,0.2,0,0.3-0.1,0.4c-0.1,0.1-0.2,0.1-0.3,0.1
				c-0.1,0-0.2,0-0.3-0.1c-0.1,0-0.1-0.1-0.2-0.2l-7.1-10.1h0.3v9.9c0,0.2,0,0.3-0.1,0.4C82.5,154.2,82.4,154.3,82.2,154.3z"/>
		</g>
		<g>
			<path class="st0" d="M89.9,154.5c-0.2,0-0.3,0-0.4-0.1c-0.1-0.1-0.2-0.2-0.3-0.3l-6.3-9v8.7c0,0.2-0.1,0.4-0.2,0.5
				c-0.2,0.3-0.7,0.3-1,0c-0.1-0.1-0.2-0.3-0.2-0.5v-10.7c0-0.2,0.1-0.4,0.2-0.5c0.2-0.3,0.7-0.3,0.9-0.1c0.1,0.1,0.2,0.2,0.3,0.3
				l6.3,9v-8.7c0-0.2,0.1-0.4,0.2-0.5c0.1-0.1,0.3-0.2,0.5-0.2c0.2,0,0.4,0.1,0.5,0.2c0.1,0.1,0.2,0.3,0.2,0.5v10.7
				c0,0.2,0,0.4-0.1,0.5C90.3,154.4,90.1,154.5,89.9,154.5z M82.9,144.3l6.7,9.6c0.1,0.1,0.1,0.2,0.2,0.2c0.1,0.1,0.2,0,0.3,0
				c0,0,0.1-0.1,0.1-0.2v-0.6h-0.9v-0.7l-6.7-9.5c-0.1-0.1-0.1-0.2-0.1-0.2c0,0,0,0-0.2,0c-0.1,0-0.1,0-0.1,0.1c0,0-0.1,0.1-0.1,0.2
				v0.5h0.9V144.3z M82,143.8v10c0,0.1,0,0.2,0.1,0.2c0,0,0.1,0.1,0.2,0.1c0.1,0,0.1,0,0.2-0.1c0.1-0.1,0.1-0.2,0.1-0.2v-9.3
				L82,143.8z M89.6,152.4l0.4,0.6v-10c0-0.1,0-0.2-0.1-0.2c0,0-0.1-0.1-0.2-0.1c-0.1,0-0.2,0-0.2,0.1c0,0-0.1,0.1-0.1,0.2V152.4z"
				/>
		</g>
	</g>
	<g>
		<g>
			<path class="st0" d="M98.1,154.3c-0.2,0-0.3,0-0.4-0.1c-0.1-0.1-0.1-0.2-0.1-0.4v-10.2h-3.7c-0.1,0-0.3,0-0.3-0.1
				c-0.1-0.1-0.1-0.2-0.1-0.3c0-0.1,0-0.2,0.1-0.3c0.1-0.1,0.2-0.1,0.3-0.1h8.3c0.1,0,0.3,0,0.3,0.1c0.1,0.1,0.1,0.2,0.1,0.3
				c0,0.1,0,0.3-0.1,0.3c-0.1,0.1-0.2,0.1-0.3,0.1h-3.7v10.2c0,0.2,0,0.3-0.1,0.4C98.4,154.2,98.3,154.3,98.1,154.3z"/>
		</g>
		<g>
			<path class="st0" d="M98.1,154.5c-0.3,0-0.4-0.1-0.5-0.2c-0.1-0.1-0.2-0.3-0.2-0.5v-10h-3.5c-0.2,0-0.4-0.1-0.5-0.2
				c-0.1-0.1-0.2-0.3-0.2-0.5c0-0.3,0.1-0.4,0.2-0.5c0.1-0.1,0.3-0.2,0.5-0.2h8.3c0.2,0,0.4,0.1,0.5,0.2c0.1,0.1,0.2,0.3,0.2,0.5
				c0,0.2-0.1,0.4-0.2,0.5c-0.1,0.1-0.3,0.2-0.5,0.2h-3.5v10c0,0.2-0.1,0.4-0.2,0.5C98.5,154.4,98.3,154.5,98.1,154.5z M93.9,142.9
				c-0.1,0-0.2,0-0.2,0.1c0,0-0.1,0-0.1,0.2c0,0.1,0,0.1,0.1,0.2c0,0,0.1,0.1,0.2,0.1h3.9v10.4c0,0.1,0,0.2,0.1,0.2
				c0,0,0.1,0.1,0.2,0.1c0.1,0,0.2,0,0.2-0.1c0-0.1,0.1-0.1,0.1-0.2v-10.4h3.9c0.1,0,0.2,0,0.2-0.1c0,0,0.1-0.1,0.1-0.2
				c0-0.1,0-0.1,0-0.2c0,0-0.1-0.1-0.2-0.1H93.9z"/>
		</g>
	</g>
	<g>
		<g>
			<path class="st0" d="M106.2,154.2c-0.2,0-0.3,0-0.4-0.1c-0.1-0.1-0.1-0.2-0.1-0.4v-10.4c0-0.2,0-0.3,0.1-0.4
				c0.1-0.1,0.2-0.1,0.4-0.1h5.8c0.1,0,0.3,0,0.3,0.1c0.1,0.1,0.1,0.2,0.1,0.3c0,0.2,0,0.3-0.1,0.3c-0.1,0.1-0.2,0.1-0.3,0.1h-5.4
				v4.4h5.1c0.1,0,0.3,0,0.3,0.1c0.1,0.1,0.1,0.2,0.1,0.3c0,0.1,0,0.3-0.1,0.3c-0.1,0.1-0.2,0.1-0.3,0.1h-5.1v4.5h5.4
				c0.1,0,0.3,0,0.3,0.1c0.1,0.1,0.1,0.2,0.1,0.3c0,0.1,0,0.2-0.1,0.3c-0.1,0.1-0.2,0.1-0.3,0.1H106.2z"/>
		</g>
		<g>
			<path class="st0" d="M112,154.4h-5.8c-0.2,0-0.4-0.1-0.5-0.2c-0.1-0.1-0.2-0.3-0.2-0.6v-10.4c0-0.2,0.1-0.4,0.2-0.6
				c0.1-0.1,0.3-0.2,0.5-0.2h5.8c0.2,0,0.4,0.1,0.5,0.2c0.1,0.1,0.2,0.3,0.2,0.5c0,0.2-0.1,0.4-0.2,0.5c-0.1,0.1-0.3,0.2-0.5,0.2
				h-5.2v3.9h4.9c0.2,0,0.4,0.1,0.5,0.2c0.1,0.1,0.2,0.3,0.2,0.5c0,0.2-0.1,0.4-0.2,0.5c-0.1,0.1-0.3,0.2-0.5,0.2h-4.9v4.1h5.2
				c0.2,0,0.4,0.1,0.5,0.2c0.1,0.1,0.2,0.3,0.2,0.5c0,0.2-0.1,0.4-0.2,0.5C112.4,154.3,112.2,154.4,112,154.4z M106.2,142.9
				c-0.1,0-0.2,0-0.2,0.1c-0.1,0.1-0.1,0.1-0.1,0.3v10.4c0,0.1,0,0.2,0.1,0.3c0,0,0.1,0.1,0.2,0.1h5.8c0.1,0,0.1,0,0.2,0
				c0,0,0-0.1,0-0.2c0,0,0-0.1,0-0.2c0,0-0.1,0-0.2,0h-5.7v-5h5.3c0.1,0,0.1,0,0.2,0c0,0,0-0.1,0-0.2c0-0.1,0-0.1,0-0.2
				c0,0-0.1,0-0.2,0h-5.3v-4.8h5.7c0.1,0,0.1,0,0.2,0c0,0,0-0.1,0-0.2c0-0.1,0-0.1,0-0.2c0,0-0.1,0-0.2,0H106.2z"/>
		</g>
	</g>
	<g>
		<g>
			<path class="st0" d="M116.2,154.2c-0.1,0-0.3,0-0.3-0.1c-0.1-0.1-0.1-0.2-0.1-0.4v-10.5c0-0.2,0-0.3,0.1-0.4
				c0.1-0.1,0.2-0.1,0.3-0.1c0.2,0,0.3,0,0.4,0.1c0.1,0.1,0.1,0.2,0.1,0.4v10.2h5.3c0.2,0,0.3,0,0.3,0.1c0.1,0.1,0.1,0.2,0.1,0.3
				c0,0.2,0,0.3-0.1,0.3c-0.1,0.1-0.2,0.1-0.3,0.1H116.2z"/>
		</g>
		<g>
			<path class="st0" d="M122,154.4h-5.8c-0.2,0-0.4-0.1-0.5-0.2c-0.1-0.1-0.2-0.3-0.2-0.5v-10.5c0-0.2,0.1-0.4,0.2-0.5
				c0.1-0.1,0.2-0.2,0.5-0.2c0.2,0,0.4,0.1,0.5,0.2c0.1,0.1,0.2,0.3,0.2,0.5v9.9h5.1c0.2,0,0.4,0.1,0.5,0.2c0.1,0.1,0.2,0.3,0.2,0.5
				c0,0.2-0.1,0.4-0.2,0.5C122.4,154.3,122.2,154.4,122,154.4z M116.2,142.8c-0.1,0-0.2,0-0.2,0.1c-0.1,0.1-0.1,0.2-0.1,0.2v10.5
				c0,0.1,0,0.2,0.1,0.2c0,0,0.1,0.1,0.2,0.1h5.8c0.1,0,0.1,0,0.2-0.1c0,0,0.1-0.1,0.1-0.2c0-0.1,0-0.1,0-0.2c0,0-0.1-0.1-0.2-0.1
				h-5.5v-10.4c0-0.1,0-0.2-0.1-0.2C116.4,142.9,116.3,142.8,116.2,142.8z"/>
		</g>
	</g>
	<g>
		<g>
			<path class="st0" d="M125.3,154.3c-0.1,0-0.3,0-0.3-0.1c-0.1-0.1-0.1-0.2-0.1-0.4v-10.6c0-0.2,0-0.3,0.1-0.4
				c0.1-0.1,0.2-0.1,0.3-0.1c0.2,0,0.3,0,0.4,0.1c0.1,0.1,0.1,0.2,0.1,0.4v10.6c0,0.2,0,0.3-0.1,0.4
				C125.6,154.2,125.4,154.3,125.3,154.3z"/>
		</g>
		<g>
			<path class="st0" d="M125.3,154.5c-0.2,0-0.4-0.1-0.5-0.2c-0.1-0.1-0.2-0.3-0.2-0.5v-10.6c0-0.2,0.1-0.4,0.2-0.5
				c0.3-0.3,0.8-0.3,1,0c0.1,0.1,0.2,0.3,0.2,0.5v10.6c0,0.2-0.1,0.4-0.2,0.5C125.7,154.4,125.5,154.5,125.3,154.5z M125.3,142.8
				c-0.1,0-0.2,0-0.2,0.1c-0.1,0.1-0.1,0.2-0.1,0.2v10.6c0,0.1,0,0.2,0.1,0.2c0,0,0.1,0.1,0.2,0.1c0.1,0,0.2,0,0.2-0.1
				c0-0.1,0.1-0.1,0.1-0.2v-10.6c0-0.1,0-0.2-0.1-0.2C125.5,142.8,125.4,142.8,125.3,142.8z"/>
		</g>
	</g>
	<g>
		<g>
			<path class="st0" d="M143.7,154.2c-0.2,0-0.3,0-0.4-0.1c-0.1-0.1-0.1-0.2-0.1-0.4v-10.4c0-0.2,0-0.3,0.1-0.4
				c0.1-0.1,0.2-0.1,0.4-0.1h5.8c0.1,0,0.3,0,0.3,0.1c0.1,0.1,0.1,0.2,0.1,0.3c0,0.2,0,0.3-0.1,0.3c-0.1,0.1-0.2,0.1-0.3,0.1h-5.4
				v4.4h5.1c0.1,0,0.3,0,0.3,0.1c0.1,0.1,0.1,0.2,0.1,0.3c0,0.1,0,0.3-0.1,0.3c-0.1,0.1-0.2,0.1-0.3,0.1h-5.1v4.5h5.4
				c0.1,0,0.3,0,0.3,0.1c0.1,0.1,0.1,0.2,0.1,0.3c0,0.1,0,0.2-0.1,0.3c-0.1,0.1-0.2,0.1-0.3,0.1H143.7z"/>
		</g>
		<g>
			<path class="st0" d="M149.6,154.4h-5.8c-0.2,0-0.4-0.1-0.5-0.2c-0.1-0.1-0.2-0.3-0.2-0.6v-10.4c0-0.2,0.1-0.4,0.2-0.6
				c0.1-0.1,0.3-0.2,0.5-0.2h5.8c0.2,0,0.4,0.1,0.5,0.2c0.1,0.1,0.2,0.3,0.2,0.5c0,0.2-0.1,0.4-0.2,0.5c-0.1,0.1-0.3,0.2-0.5,0.2
				h-5.2v3.9h4.9c0.2,0,0.4,0.1,0.5,0.2c0.1,0.1,0.2,0.3,0.2,0.5c0,0.2-0.1,0.4-0.2,0.5c-0.1,0.1-0.3,0.2-0.5,0.2h-4.9v4.1h5.2
				c0.2,0,0.4,0.1,0.5,0.2c0.1,0.1,0.2,0.3,0.2,0.5c0,0.2-0.1,0.4-0.2,0.5C149.9,154.3,149.8,154.4,149.6,154.4z M143.7,142.9
				c-0.1,0-0.2,0-0.2,0.1c-0.1,0.1-0.1,0.1-0.1,0.3v10.4c0,0.1,0,0.2,0.1,0.3c0,0,0.1,0.1,0.2,0.1h5.8c0.1,0,0.1,0,0.2,0
				c0,0,0-0.1,0-0.2c0,0,0-0.1,0-0.2c0,0-0.1,0-0.2,0h-5.7v-5h5.3c0.1,0,0.1,0,0.2,0c0,0,0-0.1,0-0.2c0-0.1,0-0.1,0-0.2
				c0,0-0.1,0-0.2,0h-5.3v-4.8h5.7c0.1,0,0.1,0,0.2,0c0,0,0-0.1,0-0.2c0-0.1,0-0.1,0-0.2c0,0-0.1,0-0.2,0H143.7z"/>
		</g>
	</g>
	<g>
		<g>
			<path class="st0" d="M154.2,154.3c-0.1,0-0.3,0-0.3-0.1c-0.1-0.1-0.1-0.2-0.1-0.4v-10.7c0-0.2,0-0.3,0.1-0.4
				c0.1-0.1,0.2-0.1,0.3-0.1c0.1,0,0.2,0,0.3,0.1c0.1,0,0.1,0.1,0.2,0.2l7.1,10.1h-0.4v-9.9c0-0.2,0-0.3,0.1-0.4
				c0.1-0.1,0.2-0.1,0.3-0.1c0.1,0,0.2,0,0.3,0.1c0.1,0.1,0.1,0.2,0.1,0.4v10.7c0,0.2,0,0.3-0.1,0.4c-0.1,0.1-0.2,0.1-0.3,0.1
				c-0.1,0-0.2,0-0.3-0.1c-0.1,0-0.1-0.1-0.2-0.2l-7.1-10.1h0.3v9.9c0,0.2,0,0.3-0.1,0.4C154.5,154.2,154.4,154.3,154.2,154.3z"/>
		</g>
		<g>
			<path class="st0" d="M161.9,154.5c-0.2,0-0.3,0-0.4-0.1c-0.1-0.1-0.2-0.2-0.3-0.3l-6.3-9v8.7c0,0.2-0.1,0.4-0.2,0.5
				c-0.2,0.3-0.7,0.3-1,0c-0.1-0.1-0.2-0.3-0.2-0.5v-10.7c0-0.2,0.1-0.4,0.2-0.5c0.2-0.3,0.7-0.3,0.9-0.1c0.1,0.1,0.2,0.2,0.3,0.3
				l6.3,9v-8.7c0-0.2,0.1-0.4,0.2-0.5c0.1-0.1,0.3-0.2,0.5-0.2c0.2,0,0.4,0.1,0.5,0.2c0.1,0.1,0.2,0.3,0.2,0.5v10.7
				c0,0.2,0,0.4-0.1,0.5C162.3,154.4,162.1,154.5,161.9,154.5z M154.9,144.3l6.7,9.6c0.1,0.1,0.1,0.2,0.2,0.2c0,0,0.1,0,0.2,0
				c0.1,0,0.1,0,0.1,0c0,0,0.1-0.1,0.1-0.2v-0.6h-0.9v-0.7l-6.7-9.5c-0.1-0.1-0.1-0.2-0.1-0.2c0,0,0,0-0.2,0c-0.1,0-0.1,0-0.1,0.1
				c0,0-0.1,0.1-0.1,0.2v0.5h0.9V144.3z M154,143.8v10c0,0.1,0,0.2,0.1,0.2c0,0,0.1,0.1,0.2,0.1c0.1,0,0.1,0,0.2-0.1
				c0.1-0.1,0.1-0.2,0.1-0.2v-9.3L154,143.8z M161.6,152.4l0.4,0.6v-10c0-0.1,0-0.2-0.1-0.2c0,0-0.1-0.1-0.2-0.1
				c-0.1,0-0.2,0-0.2,0.1c0,0-0.1,0.1-0.1,0.2V152.4z"/>
		</g>
	</g>
	<g>
		<g>
			<path class="st0" d="M171.4,154.3c-1,0-1.9-0.2-2.7-0.7c-0.7-0.5-1.3-1.2-1.7-2c-0.4-0.9-0.6-1.9-0.6-3.1c0-0.9,0.1-1.7,0.3-2.5
				c0.2-0.7,0.5-1.3,1-1.8c0.4-0.5,1-0.9,1.6-1.2c0.6-0.3,1.3-0.4,2.1-0.4c0.7,0,1.3,0.1,1.9,0.3c0.6,0.2,1.1,0.5,1.5,0.9
				c0.1,0.1,0.2,0.2,0.2,0.3c0,0.1,0,0.2,0,0.3c0,0.1-0.1,0.2-0.1,0.2c-0.1,0.1-0.2,0.1-0.3,0.1c-0.1,0-0.2-0.1-0.3-0.2
				c-0.4-0.4-0.8-0.6-1.3-0.8s-1-0.3-1.6-0.3c-0.9,0-1.6,0.2-2.2,0.6c-0.6,0.4-1,0.9-1.3,1.7c-0.3,0.7-0.5,1.6-0.5,2.7
				c0,1.1,0.2,2,0.5,2.7c0.3,0.7,0.8,1.3,1.3,1.7c0.6,0.4,1.3,0.6,2.2,0.6c0.6,0,1.1-0.1,1.6-0.3c0.5-0.2,0.9-0.4,1.3-0.8
				c0.1-0.1,0.2-0.1,0.3-0.1c0.1,0,0.2,0,0.2,0.1s0.1,0.1,0.1,0.2c0,0.1,0,0.2,0,0.3c0,0.1-0.1,0.2-0.2,0.3c-0.4,0.4-1,0.7-1.5,1
				C172.7,154.2,172.1,154.3,171.4,154.3z"/>
		</g>
		<g>
			<path class="st0" d="M171.4,154.5c-1.1,0-2-0.2-2.8-0.7c-0.8-0.5-1.4-1.2-1.8-2.1c-0.4-0.9-0.6-2-0.6-3.2c0-0.9,0.1-1.8,0.3-2.5
				c0.2-0.7,0.6-1.4,1-1.9c0.4-0.5,1-0.9,1.7-1.2c0.6-0.3,1.4-0.4,2.2-0.4c0.7,0,1.4,0.1,2,0.3c0.6,0.2,1.1,0.5,1.6,1
				c0.1,0.1,0.2,0.3,0.3,0.4c0,0.1,0,0.3,0,0.4c0,0.1-0.1,0.3-0.2,0.3c-0.1,0.1-0.3,0.1-0.4,0.1c-0.1,0-0.3-0.1-0.4-0.2
				c-0.4-0.3-0.8-0.6-1.2-0.8c-0.5-0.2-1-0.2-1.5-0.2c-0.8,0-1.5,0.2-2,0.5c-0.6,0.4-1,0.9-1.3,1.6c-0.3,0.7-0.4,1.6-0.4,2.6
				c0,1,0.1,1.9,0.4,2.6c0.3,0.7,0.7,1.2,1.3,1.6c0.6,0.4,1.2,0.5,2,0.5c0.5,0,1-0.1,1.5-0.3c0.5-0.2,0.9-0.4,1.3-0.8
				c0.3-0.3,0.6-0.3,0.9-0.1c0.1,0.1,0.2,0.2,0.2,0.3c0,0.1,0,0.3,0,0.4c0,0.1-0.1,0.3-0.2,0.4c-0.5,0.4-1,0.8-1.6,1
				C172.8,154.4,172.1,154.5,171.4,154.5z M171.4,142.8c-0.7,0-1.4,0.1-2,0.4c-0.6,0.3-1.1,0.6-1.5,1.1c-0.4,0.5-0.7,1.1-0.9,1.8
				c-0.2,0.7-0.3,1.5-0.3,2.4c0,1.2,0.2,2.2,0.6,3.1c0.4,0.8,0.9,1.5,1.6,1.9c0.7,0.4,1.6,0.7,2.5,0.7c0.7,0,1.3-0.1,1.8-0.3
				c0.5-0.2,1-0.5,1.5-0.9c0.1-0.1,0.1-0.1,0.1-0.2c0-0.1,0-0.1,0-0.2c0-0.1,0-0.1-0.1-0.1c0,0,0,0-0.1,0c0,0-0.1,0-0.2,0.1
				c-0.4,0.4-0.9,0.7-1.4,0.8c-0.5,0.2-1.1,0.3-1.7,0.3c-0.9,0-1.7-0.2-2.3-0.6c-0.6-0.4-1.1-1-1.4-1.8c-0.3-0.8-0.5-1.7-0.5-2.8
				c0-1.1,0.2-2,0.5-2.8c0.3-0.8,0.8-1.4,1.4-1.8c0.6-0.4,1.4-0.6,2.3-0.6c0.6,0,1.2,0.1,1.7,0.3c0.5,0.2,1,0.5,1.4,0.8
				c0.1,0.1,0.2,0.1,0.2,0.1c0,0,0.1,0,0.1,0c0,0,0.1-0.1,0.1-0.1c0-0.1,0-0.1,0-0.2c0-0.1-0.1-0.1-0.1-0.2
				c-0.4-0.4-0.9-0.7-1.4-0.9C172.6,142.9,172,142.8,171.4,142.8z"/>
		</g>
	</g>
	<g>
		<g>
			<path class="st0" d="M178.4,154.3c-0.1,0-0.3,0-0.3-0.1c-0.1-0.1-0.1-0.2-0.1-0.4v-10.6c0-0.2,0-0.3,0.1-0.4
				c0.1-0.1,0.2-0.1,0.3-0.1c0.2,0,0.3,0,0.4,0.1c0.1,0.1,0.1,0.2,0.1,0.4v10.6c0,0.2,0,0.3-0.1,0.4
				C178.6,154.2,178.5,154.3,178.4,154.3z"/>
		</g>
		<g>
			<path class="st0" d="M178.4,154.5c-0.2,0-0.4-0.1-0.5-0.2c-0.1-0.1-0.2-0.3-0.2-0.5v-10.6c0-0.2,0.1-0.4,0.2-0.5
				c0.3-0.3,0.8-0.3,1,0c0.1,0.1,0.2,0.3,0.2,0.5v10.6c0,0.2-0.1,0.4-0.2,0.5C178.8,154.4,178.6,154.5,178.4,154.5z M178.4,142.8
				c-0.1,0-0.2,0-0.2,0.1c-0.1,0.1-0.1,0.2-0.1,0.2v10.6c0,0.1,0,0.2,0.1,0.2c0,0,0.1,0.1,0.2,0.1c0.1,0,0.2,0,0.2-0.1
				c0-0.1,0.1-0.1,0.1-0.2v-10.6c0-0.1,0-0.2-0.1-0.2C178.5,142.8,178.5,142.8,178.4,142.8z"/>
		</g>
	</g>
	<g>
		<g>
			<path class="st0" d="M248.1,154.3c-0.2,0-0.3,0-0.4-0.1s-0.1-0.2-0.1-0.4v-10.6c0-0.2,0-0.3,0.1-0.4c0.1-0.1,0.2-0.1,0.4-0.1
				c0.2,0,0.3,0,0.4,0.1c0.1,0.1,0.1,0.2,0.1,0.4v10.6c0,0.2,0,0.3-0.1,0.4S248.2,154.3,248.1,154.3z"/>
			<path class="st0" d="M248.1,154.5c-0.2,0-0.4-0.1-0.5-0.2c-0.1-0.1-0.2-0.3-0.2-0.5v-10.6c0-0.2,0.1-0.4,0.2-0.6
				c0.3-0.3,0.8-0.3,1.1,0c0.1,0.1,0.2,0.3,0.2,0.6v10.6c0,0.2-0.1,0.4-0.2,0.5C248.5,154.5,248.3,154.5,248.1,154.5z M248.1,142.9
				c-0.1,0-0.2,0-0.2,0.1c0,0-0.1,0.1-0.1,0.2v10.6c0,0.1,0,0.2,0.1,0.2c0,0,0.1,0.1,0.2,0.1c0.1,0,0.2,0,0.2-0.1
				c0,0,0.1-0.1,0.1-0.2v-10.6c0-0.1,0-0.2-0.1-0.2C248.2,142.9,248.2,142.9,248.1,142.9z"/>
		</g>
		<g>
			<path class="st0" d="M253.3,154.3c-0.2,0-0.3,0-0.4-0.1c-0.1-0.1-0.1-0.2-0.1-0.4v-10.6c0-0.2,0-0.3,0.1-0.4
				c0.1-0.1,0.2-0.1,0.3-0.1c0.1,0,0.3,0,0.3,0.1c0.1,0,0.1,0.1,0.2,0.2l7.9,10.1h-0.4v-9.9c0-0.2,0-0.3,0.1-0.4
				c0.1-0.1,0.2-0.1,0.4-0.1c0.1,0,0.3,0,0.4,0.1c0.1,0.1,0.1,0.2,0.1,0.4v10.7c0,0.2,0,0.3-0.1,0.4c-0.1,0.1-0.2,0.1-0.3,0.1
				c-0.1,0-0.2,0-0.3-0.1c-0.1,0-0.2-0.1-0.3-0.2l-7.9-10.1h0.4v9.9c0,0.2,0,0.3-0.1,0.4C253.5,154.3,253.4,154.3,253.3,154.3z"/>
			<path class="st0" d="M261.8,154.5c-0.2,0-0.3,0-0.4-0.1c-0.1-0.1-0.2-0.2-0.3-0.3l-7.1-9.1v8.7c0,0.2-0.1,0.4-0.2,0.5
				c-0.3,0.3-0.8,0.3-1.1,0c-0.1-0.1-0.2-0.3-0.2-0.5v-10.6c0-0.2,0.1-0.4,0.2-0.5c0.2-0.3,0.7-0.2,1-0.1c0.1,0.1,0.2,0.2,0.3,0.3
				l7.1,9v-8.7c0-0.2,0.1-0.4,0.2-0.5c0.3-0.2,0.8-0.3,1,0c0.1,0.1,0.2,0.3,0.2,0.5v10.7c0,0.2-0.1,0.4-0.2,0.5
				C262.2,154.4,262.1,154.5,261.8,154.5z M254,144.3l7.5,9.5c0.1,0.1,0.2,0.2,0.2,0.2c0,0,0.1,0,0.2,0c0.1,0,0.1,0,0.1,0
				c0,0,0.1-0.1,0.1-0.2v-0.5h-1v-0.7l-7.5-9.5c-0.1-0.1-0.1-0.2-0.2-0.2c0,0-0.1,0-0.2,0c-0.1,0-0.1,0-0.2,0.1c0,0-0.1,0.1-0.1,0.2
				v0.5h1V144.3z M253,143.8v10c0,0.1,0,0.2,0.1,0.2c0,0,0.1,0.1,0.2,0.1c0.1,0,0.2,0,0.2-0.1c0,0,0.1-0.1,0.1-0.2v-9.3L253,143.8z
				 M261.5,152.4l0.5,0.7v-10c0-0.1,0-0.2-0.1-0.2c0,0-0.1-0.1-0.2-0.1c-0.1,0-0.2,0-0.2,0.1c0,0-0.1,0.1-0.1,0.2V152.4z"/>
		</g>
		<g>
			<path class="st0" d="M267.9,154.3c-0.1,0-0.3,0-0.4-0.1c-0.1-0.1-0.1-0.2-0.1-0.4v-10.7c0-0.2,0-0.3,0.1-0.4
				c0.1-0.1,0.2-0.1,0.3-0.1c0.1,0,0.3,0,0.3,0.1c0.1,0.1,0.2,0.1,0.2,0.3l4.9,8.8h-0.5l4.9-8.8c0.1-0.1,0.2-0.2,0.2-0.3
				c0.1-0.1,0.2-0.1,0.3-0.1c0.1,0,0.2,0,0.3,0.1c0.1,0.1,0.1,0.2,0.1,0.4v10.7c0,0.2,0,0.3-0.1,0.4c-0.1,0.1-0.2,0.1-0.4,0.1
				c-0.2,0-0.3,0-0.4-0.1c-0.1-0.1-0.1-0.2-0.1-0.4v-9.9h0.4l-4.6,8.3c-0.1,0.1-0.1,0.2-0.2,0.2c-0.1,0.1-0.2,0.1-0.3,0.1
				c-0.1,0-0.2,0-0.3-0.1c-0.1-0.1-0.1-0.1-0.2-0.2l-4.7-8.3h0.4v9.9c0,0.2,0,0.3-0.1,0.4C268.2,154.3,268.1,154.3,267.9,154.3z"/>
			<path class="st0" d="M278.4,154.5c-0.2,0-0.4-0.1-0.5-0.2c-0.1-0.1-0.2-0.3-0.2-0.5v-8.2l-3.8,6.7c-0.1,0.1-0.2,0.2-0.2,0.3
				c-0.2,0.2-0.7,0.2-0.9,0c-0.1-0.1-0.2-0.2-0.3-0.3l-3.8-6.8v8.3c0,0.2-0.1,0.4-0.2,0.5c-0.2,0.3-0.8,0.3-1.1,0
				c-0.1-0.1-0.2-0.3-0.2-0.5v-10.7c0-0.2,0.1-0.4,0.2-0.5c0.3-0.2,0.7-0.2,1-0.1c0.1,0.1,0.2,0.2,0.3,0.3l4.5,8l4.5-8
				c0.1-0.2,0.2-0.3,0.3-0.3c0.2-0.2,0.7-0.2,1,0.1c0.1,0.1,0.2,0.3,0.2,0.5v10.7c0,0.2-0.1,0.4-0.2,0.5
				C278.8,154.5,278.6,154.5,278.4,154.5z M278.1,144.7v9.1c0,0.1,0,0.2,0.1,0.2c0.1,0.1,0.3,0.1,0.4,0c0,0,0.1-0.1,0.1-0.2v-10
				L278.1,144.7z M267.7,143.8v10c0,0.1,0,0.2,0.1,0.2c0,0,0.1,0.1,0.2,0.1c0.1,0,0.2,0,0.2-0.1c0,0,0.1-0.1,0.1-0.2v-9.1
				L267.7,143.8z M272.9,152.1L272.9,152.1c0.1,0.1,0.1,0.2,0.2,0.2c0,0,0.1,0,0.2,0c0.1,0,0.1,0,0.1,0c0,0,0.1-0.1,0.1-0.2l0,0
				H272.9z M268.7,144.6l4,7.2l0.2-0.4l-4.3-7.6V144.6z M273.4,151.4l0.2,0.4l4-7.1v-0.8L273.4,151.4z M277.7,143.7h0.9v-0.6
				c0-0.1,0-0.2-0.1-0.2c0,0-0.1-0.1-0.2-0.1c-0.1,0-0.2,0-0.2,0c0,0-0.1,0.1-0.2,0.2L277.7,143.7z M267.7,143.7h0.9l-0.3-0.6
				c-0.1-0.1-0.1-0.2-0.2-0.2c0,0-0.1,0-0.2,0c-0.1,0-0.1,0-0.2,0.1c0,0-0.1,0.1-0.1,0.2V143.7z"/>
		</g>
		<g>
			<path class="st0" d="M288,154.3c-1.1,0-2.1-0.2-2.9-0.7c-0.8-0.5-1.4-1.2-1.9-2c-0.4-0.9-0.7-1.9-0.7-3.1c0-0.9,0.1-1.7,0.4-2.4
				c0.2-0.7,0.6-1.3,1.1-1.8c0.5-0.5,1-0.9,1.7-1.2c0.7-0.3,1.4-0.4,2.3-0.4c1.1,0,2.1,0.2,2.9,0.7c0.8,0.5,1.4,1.1,1.9,2
				c0.4,0.9,0.7,1.9,0.7,3.1c0,0.9-0.1,1.7-0.4,2.5c-0.3,0.7-0.6,1.3-1.1,1.9c-0.5,0.5-1,0.9-1.7,1.2
				C289.6,154.2,288.8,154.3,288,154.3z M288,153.4c0.9,0,1.7-0.2,2.3-0.6c0.6-0.4,1.1-1,1.5-1.7c0.3-0.7,0.5-1.6,0.5-2.7
				c0-1.6-0.4-2.8-1.1-3.7c-0.8-0.9-1.8-1.3-3.2-1.3c-0.9,0-1.7,0.2-2.3,0.6c-0.6,0.4-1.1,1-1.5,1.7c-0.3,0.7-0.5,1.6-0.5,2.7
				c0,1.6,0.4,2.8,1.1,3.7C285.6,153,286.6,153.4,288,153.4z"/>
			<path class="st0" d="M288,154.6c-1.1,0-2.1-0.3-3-0.7c-0.9-0.5-1.5-1.2-2-2.1c-0.5-0.9-0.7-2-0.7-3.2c0-0.9,0.1-1.8,0.4-2.5
				c0.3-0.7,0.6-1.4,1.1-1.9c0.5-0.5,1.1-0.9,1.8-1.2c0.7-0.3,1.5-0.4,2.4-0.4c1.2,0,2.2,0.2,3,0.7c0.9,0.5,1.5,1.2,2,2.1
				c0.5,0.9,0.7,2,0.7,3.2c0,0.9-0.1,1.8-0.4,2.5c-0.3,0.8-0.6,1.4-1.1,1.9c-0.5,0.5-1.1,0.9-1.8,1.2
				C289.6,154.4,288.9,154.6,288,154.6z M288,142.8c-0.8,0-1.5,0.1-2.2,0.4c-0.6,0.3-1.2,0.6-1.6,1.1c-0.4,0.5-0.8,1.1-1,1.8
				c-0.2,0.7-0.4,1.5-0.4,2.4c0,1.2,0.2,2.2,0.6,3c0.4,0.8,1,1.5,1.8,1.9c0.8,0.5,1.7,0.7,2.8,0.7c0.8,0,1.5-0.1,2.2-0.4
				c0.6-0.3,1.2-0.6,1.6-1.1c0.4-0.5,0.8-1.1,1-1.8c0.2-0.7,0.4-1.5,0.4-2.4c0-1.2-0.2-2.2-0.6-3c-0.4-0.8-1-1.5-1.8-1.9
				C290,143.1,289.1,142.8,288,142.8z M288,153.7c-1.4,0-2.5-0.5-3.3-1.4c-0.8-0.9-1.2-2.2-1.2-3.8c0-1.1,0.2-2,0.5-2.8
				c0.4-0.8,0.9-1.4,1.6-1.8c0.7-0.4,1.5-0.6,2.4-0.6c1.4,0,2.6,0.5,3.4,1.4c0.8,0.9,1.2,2.2,1.2,3.8c0,1.1-0.2,2-0.5,2.8
				c-0.4,0.8-0.9,1.4-1.6,1.8C289.8,153.5,288.9,153.7,288,153.7z M288,143.8c-0.9,0-1.6,0.2-2.2,0.6c-0.6,0.4-1.1,0.9-1.4,1.6
				c-0.3,0.7-0.5,1.6-0.5,2.6c0,1.5,0.4,2.7,1.1,3.5c0.7,0.8,1.7,1.2,3,1.2c0.9,0,1.6-0.2,2.2-0.6c0.6-0.4,1.1-0.9,1.4-1.6
				c0.3-0.7,0.5-1.6,0.5-2.6c0-1.5-0.4-2.7-1.1-3.5C290.3,144.2,289.3,143.8,288,143.8z"/>
		</g>
		<g>
			<path class="st0" d="M296.7,154.2c-0.2,0-0.3,0-0.4-0.1c-0.1-0.1-0.2-0.2-0.2-0.4v-10.3c0-0.2,0.1-0.3,0.2-0.4
				c0.1-0.1,0.2-0.1,0.4-0.1h4c0.8,0,1.5,0.1,2.1,0.4c0.6,0.2,1,0.6,1.3,1c0.3,0.4,0.5,1,0.5,1.6c0,0.7-0.2,1.3-0.7,1.8
				s-1.1,0.8-1.8,0.9v-0.2c0.9,0.1,1.5,0.4,2,0.9c0.5,0.5,0.7,1.1,0.7,2c0,1-0.3,1.8-1,2.3c-0.7,0.5-1.7,0.8-2.9,0.8H296.7z
				 M297.2,148h3.5c1,0,1.7-0.2,2.2-0.6c0.5-0.4,0.8-0.9,0.8-1.6c0-0.7-0.3-1.3-0.8-1.6c-0.5-0.4-1.2-0.6-2.2-0.6h-3.5V148z
				 M297.2,153.4h3.7c1,0,1.7-0.2,2.2-0.6c0.5-0.4,0.7-0.9,0.7-1.7c0-0.8-0.2-1.4-0.7-1.7c-0.5-0.4-1.2-0.6-2.2-0.6h-3.7V153.4z"/>
			<path class="st0" d="M301,154.4h-4.3c-0.2,0-0.4-0.1-0.6-0.2c-0.2-0.1-0.2-0.3-0.2-0.6v-10.3c0-0.3,0.1-0.5,0.2-0.6
				c0.1-0.1,0.3-0.2,0.6-0.2h4c0.9,0,1.6,0.1,2.2,0.4c0.6,0.2,1.1,0.6,1.4,1.1c0.3,0.5,0.5,1.1,0.5,1.8c0,0.8-0.2,1.4-0.7,2
				c-0.2,0.2-0.5,0.4-0.8,0.6c0.4,0.2,0.7,0.4,1,0.7c0.5,0.5,0.8,1.3,0.8,2.1c0,1.1-0.4,1.9-1.1,2.5
				C303.3,154.2,302.3,154.4,301,154.4z M296.7,143c-0.1,0-0.2,0-0.3,0.1c0,0-0.1,0.1-0.1,0.3v10.3c0,0.2,0.1,0.2,0.1,0.3
				c0.1,0.1,0.1,0.1,0.3,0.1h4.3c1.2,0,2.1-0.3,2.8-0.7c0.6-0.5,0.9-1.2,0.9-2.1c0-0.8-0.2-1.3-0.7-1.8c-0.3-0.3-0.8-0.6-1.3-0.7
				c-0.2,0.1-0.3,0.1-0.5,0.1l0,0c0.4,0.1,0.8,0.3,1.1,0.5c0.6,0.4,0.8,1.1,0.8,1.9c0,0.8-0.3,1.5-0.8,1.9c-0.5,0.4-1.3,0.6-2.4,0.6
				h-4v-5h4c0.4,0,0.7,0,1,0.1v-0.6c-0.4,0.1-0.8,0.1-1.3,0.1h-3.7v-4.9h3.7c1,0,1.8,0.2,2.3,0.6c0.6,0.4,0.9,1,0.9,1.8
				c0,0.8-0.3,1.4-0.9,1.8c-0.2,0.2-0.5,0.3-0.9,0.4l0,0c0.2,0,0.3,0,0.5,0.1c0.5-0.2,0.8-0.4,1.1-0.7c0.4-0.4,0.6-1,0.6-1.6
				c0-0.6-0.1-1.1-0.4-1.5c-0.3-0.4-0.7-0.7-1.2-0.9c-0.5-0.2-1.2-0.3-2-0.3H296.7z M297.4,153.1h3.5c0.9,0,1.6-0.2,2.1-0.5
				c0.4-0.3,0.6-0.8,0.6-1.5c0-0.7-0.2-1.2-0.6-1.5c-0.5-0.3-1.2-0.5-2.1-0.5h-3.5V153.1z M297.4,147.7h3.2c0.9,0,1.6-0.2,2.1-0.5
				c0.4-0.3,0.7-0.8,0.7-1.4c0-0.6-0.2-1.1-0.7-1.4c-0.5-0.3-1.2-0.5-2.1-0.5h-3.2V147.7z"/>
		</g>
		<g>
			<path class="st0" d="M308.2,154.3c-0.2,0-0.3,0-0.4-0.1c-0.1-0.1-0.1-0.2-0.1-0.4v-10.6c0-0.2,0-0.3,0.1-0.4
				c0.1-0.1,0.2-0.1,0.4-0.1c0.2,0,0.3,0,0.4,0.1c0.1,0.1,0.1,0.2,0.1,0.4v10.6c0,0.2,0,0.3-0.1,0.4
				C308.5,154.3,308.4,154.3,308.2,154.3z"/>
			<path class="st0" d="M308.2,154.5c-0.2,0-0.4-0.1-0.5-0.2c-0.1-0.1-0.2-0.3-0.2-0.5v-10.6c0-0.2,0.1-0.4,0.2-0.6
				c0.3-0.3,0.8-0.3,1.1,0c0.1,0.1,0.2,0.3,0.2,0.6v10.6c0,0.2-0.1,0.4-0.2,0.5C308.6,154.5,308.5,154.5,308.2,154.5z M308.2,142.9
				c-0.1,0-0.2,0-0.2,0.1c0,0-0.1,0.1-0.1,0.2v10.6c0,0.1,0.1,0.2,0.1,0.2c0,0,0.1,0.1,0.2,0.1c0.1,0,0.2,0,0.2-0.1
				c0,0,0.1-0.1,0.1-0.2v-10.6c0-0.1,0-0.2-0.1-0.2C308.4,142.9,308.3,142.9,308.2,142.9z"/>
		</g>
		<g>
			<path class="st0" d="M313.4,154.2c-0.2,0-0.3,0-0.4-0.1c-0.1-0.1-0.1-0.2-0.1-0.4v-10.5c0-0.2,0-0.3,0.1-0.4
				c0.1-0.1,0.2-0.1,0.4-0.1c0.2,0,0.3,0,0.4,0.1c0.1,0.1,0.1,0.2,0.1,0.4v10.1h5.9c0.2,0,0.3,0,0.4,0.1c0.1,0.1,0.1,0.2,0.1,0.3
				c0,0.2,0,0.3-0.1,0.3c-0.1,0.1-0.2,0.1-0.4,0.1H313.4z"/>
			<path class="st0" d="M319.9,154.4h-6.4c-0.2,0-0.4-0.1-0.5-0.2c-0.1-0.1-0.2-0.3-0.2-0.6v-10.5c0-0.2,0.1-0.4,0.2-0.6
				c0.3-0.3,0.8-0.3,1.1,0c0.1,0.1,0.2,0.3,0.2,0.6v9.9h5.7c0.2,0,0.4,0.1,0.5,0.2c0.1,0.1,0.2,0.2,0.2,0.5c0,0.2-0.1,0.4-0.2,0.5
				C320.3,154.4,320.1,154.4,319.9,154.4z M313.4,142.9c-0.1,0-0.2,0-0.2,0.1c0,0-0.1,0.1-0.1,0.2v10.5c0,0.1,0,0.2,0.1,0.2
				c0,0,0.1,0.1,0.2,0.1h6.4c0.1,0,0.2,0,0.2-0.1c0,0,0-0.1,0-0.2c0-0.1,0-0.1-0.1-0.2c0,0-0.1-0.1-0.2-0.1h-6.2v-10.4
				c0-0.1,0-0.2-0.1-0.2C313.6,142.9,313.5,142.9,313.4,142.9z"/>
		</g>
		<g>
			<path class="st0" d="M323,154.5c-0.2,0-0.3,0-0.4-0.1c-0.1-0.1-0.1-0.2-0.1-0.4v-10.6c0-0.2,0-0.3,0.1-0.4
				c0.1-0.1,0.2-0.1,0.4-0.1c0.2,0,0.3,0,0.4,0.1c0.1,0.1,0.1,0.2,0.1,0.4V154c0,0.2,0,0.3-0.1,0.4
				C323.3,154.5,323.2,154.5,323,154.5z"/>
			<path class="st0" d="M323,154.8c-0.2,0-0.4-0.1-0.5-0.2c-0.1-0.1-0.2-0.3-0.2-0.5v-10.6c0-0.2,0.1-0.4,0.2-0.6
				c0.3-0.3,0.8-0.3,1.1,0c0.1,0.1,0.2,0.3,0.2,0.6V154c0,0.2-0.1,0.4-0.2,0.5C323.4,154.7,323.2,154.8,323,154.8z M323,143.1
				c-0.1,0-0.2,0-0.2,0.1c0,0-0.1,0.1-0.1,0.2V154c0,0.1,0.1,0.2,0.1,0.2c0,0,0.1,0.1,0.2,0.1c0.1,0,0.2,0,0.2-0.1
				c0,0,0.1-0.1,0.1-0.2v-10.6c0-0.1,0-0.2-0.1-0.2C323.2,143.1,323.1,143.1,323,143.1z"/>
		</g>
		<g>
			<path class="st0" d="M326.6,154.3c-0.1,0-0.2,0-0.3-0.1c-0.1-0.1-0.1-0.1-0.1-0.3c0-0.1,0-0.2,0.1-0.4l3.6-10.5
				c0.1-0.2,0.1-0.3,0.2-0.3s0.2-0.1,0.3-0.1c0.1,0,0.2,0,0.3,0.1s0.1,0.2,0.2,0.3l3.6,10.5c0.1,0.1,0.1,0.3,0.1,0.4
				c0,0.1,0,0.2-0.1,0.3c-0.1,0.1-0.1,0.1-0.3,0.1c-0.1,0-0.2,0-0.3-0.1c-0.1-0.1-0.1-0.2-0.2-0.3l-1-2.9l0.4,0.2h-5.6l0.4-0.2
				l-1,2.9c-0.1,0.2-0.1,0.3-0.2,0.4C326.7,154.3,326.6,154.3,326.6,154.3z M330.3,144l-2.2,6.5l-0.3-0.2h5l-0.3,0.2L330.3,144
				L330.3,144z"/>
			<path class="st0" d="M334.2,154.5c-0.2,0-0.3-0.1-0.4-0.2c-0.1-0.1-0.2-0.2-0.2-0.4l-0.9-2.6H328l-0.9,2.6
				c-0.1,0.2-0.1,0.3-0.2,0.4c-0.2,0.2-0.6,0.2-0.8,0c-0.1-0.1-0.2-0.2-0.2-0.4c0-0.1,0-0.3,0.1-0.4l0.8-2.2h0l0.1,0l0.4-1.2l-0.1,0
				h0.1l2.4-7.1c0.1-0.2,0.2-0.3,0.3-0.4c0.3-0.2,0.6-0.2,0.8,0c0.1,0.1,0.2,0.2,0.3,0.4l2.4,7.1l0,0l0.4,1.3h0l0.8,2.2
				c0.1,0.1,0.1,0.3,0.1,0.4c0,0.2-0.1,0.3-0.1,0.4C334.5,154.4,334.4,154.5,334.2,154.5z M333.1,151.4l0.8,2.4
				c0,0.1,0.1,0.2,0.1,0.3c0,0,0.1,0.1,0.1,0.1c0.1,0,0.1,0,0.1,0c0,0,0-0.1,0-0.1c0-0.1,0-0.2-0.1-0.3l-0.8-2.3H333.1z
				 M327.2,151.4l-0.8,2.3c0,0.1,0,0.2,0,0.3c0,0.1,0,0.1,0,0.1c0,0,0,0,0.1,0c0,0,0.1,0,0.1,0c0,0,0.1-0.1,0.1-0.3l0.8-2.4H327.2z
				 M332.7,150.7l0.7,0.4l-0.2-0.7L332.7,150.7z M327.6,150.4l-0.2,0.7l0.7-0.4L327.6,150.4z M328.2,150.9h4.3l-0.2-0.5h-4l-0.1,0.3
				l0,0L328.2,150.9z M332.6,150.1h0.4l-2.4-6.9c0-0.2-0.1-0.2-0.1-0.3c-0.1-0.1-0.2-0.1-0.3,0c0,0-0.1,0.1-0.2,0.3l-2.4,6.9h0.4
				l2.1-6.3h0.3L332.6,150.1z M328.5,150.1h3.7l-1.9-5.5L328.5,150.1z"/>
		</g>
		<g>
			<path class="st0" d="M353.7,154.3c-0.1,0-0.2,0-0.3-0.1c-0.1-0.1-0.1-0.1-0.1-0.3c0-0.1,0-0.2,0.1-0.4l3.6-10.5
				c0.1-0.2,0.1-0.3,0.2-0.3c0.1-0.1,0.2-0.1,0.3-0.1c0.1,0,0.2,0,0.3,0.1s0.1,0.2,0.2,0.3l3.6,10.5c0.1,0.1,0.1,0.3,0.1,0.4
				c0,0.1,0,0.2-0.1,0.3c-0.1,0.1-0.1,0.1-0.3,0.1c-0.1,0-0.2,0-0.3-0.1c-0.1-0.1-0.1-0.2-0.2-0.3l-1-2.9l0.4,0.2h-5.6l0.4-0.2
				l-1,2.9c-0.1,0.2-0.1,0.3-0.2,0.4C353.9,154.3,353.8,154.3,353.7,154.3z M357.5,144l-2.2,6.5l-0.3-0.2h5l-0.3,0.2L357.5,144
				L357.5,144z"/>
			<path class="st0" d="M361.3,154.5c-0.2,0-0.3-0.1-0.4-0.2c-0.1-0.1-0.2-0.2-0.2-0.4l-0.9-2.6h-4.6l-0.9,2.6
				c-0.1,0.2-0.1,0.3-0.2,0.4c-0.2,0.2-0.6,0.2-0.8,0c-0.1-0.1-0.2-0.2-0.2-0.4c0-0.1,0-0.3,0.1-0.4l0.8-2.2h0l0,0l0.4-1.2l-0.1,0
				h0.1l2.4-7.1c0.1-0.2,0.2-0.3,0.3-0.4c0.3-0.2,0.6-0.2,0.8,0c0.1,0.1,0.2,0.2,0.3,0.4l2.4,7.1l0,0l0.4,1.3h0l0.8,2.2
				c0.1,0.1,0.1,0.3,0.1,0.4c0,0.2-0.1,0.3-0.1,0.4C361.6,154.5,361.5,154.5,361.3,154.5z M360.2,151.4l0.8,2.4
				c0,0.1,0.1,0.2,0.1,0.3c0,0,0.1,0.1,0.1,0.1c0,0,0.1,0,0.1,0c0,0,0-0.1,0-0.1c0-0.1,0-0.2-0.1-0.3l-0.8-2.3H360.2z M354.4,151.4
				l-0.8,2.3c0,0.1-0.1,0.2,0,0.3c0,0.1,0,0.1,0,0.1c0,0,0.2,0.1,0.2,0c0,0,0.1-0.1,0.1-0.3l0.8-2.4H354.4z M359.8,150.7l0.7,0.4
				l-0.2-0.7L359.8,150.7z M354.7,150.4l-0.2,0.7l0.7-0.4L354.7,150.4z M355.3,150.9h4.3l-0.2-0.5h-4l-0.1,0.3l0,0L355.3,150.9z
				 M359.8,150.1h0.4l-2.4-6.9c-0.1-0.2-0.1-0.2-0.1-0.3c-0.1-0.1-0.2-0.1-0.3,0c0,0-0.1,0.1-0.2,0.3l-2.4,6.9h0.4l2.1-6.3h0.3
				L359.8,150.1z M355.6,150.1h3.7l-1.9-5.5L355.6,150.1z"/>
		</g>
		<g>
			<path class="st0" d="M182.1,154.3c-0.1,0-0.2,0-0.3-0.1c-0.1-0.1-0.1-0.1-0.1-0.3c0-0.1,0-0.2,0.1-0.4l3.6-10.5
				c0.1-0.2,0.1-0.3,0.2-0.3c0.1-0.1,0.2-0.1,0.3-0.1c0.1,0,0.2,0,0.3,0.1s0.1,0.2,0.2,0.3l3.6,10.5c0.1,0.1,0.1,0.3,0.1,0.4
				c0,0.1,0,0.2-0.1,0.3c-0.1,0.1-0.1,0.1-0.3,0.1c-0.1,0-0.2,0-0.3-0.1c-0.1-0.1-0.1-0.2-0.2-0.3l-1-2.9l0.4,0.2h-5.6l0.4-0.2
				l-1,2.9c-0.1,0.2-0.1,0.3-0.2,0.4C182.2,154.3,182.2,154.3,182.1,154.3z M185.8,144l-2.2,6.5l-0.3-0.2h5l-0.3,0.2L185.8,144
				L185.8,144z"/>
			<path class="st0" d="M189.7,154.5c-0.2,0-0.3-0.1-0.4-0.2c-0.1-0.1-0.2-0.2-0.2-0.4l-0.9-2.6h-4.6l-0.9,2.6
				c-0.1,0.2-0.1,0.3-0.2,0.4c-0.2,0.2-0.6,0.2-0.8,0c-0.1-0.1-0.2-0.2-0.2-0.4c0-0.1,0-0.3,0.1-0.4l0.8-2.2h0l0.1,0l0.4-1.2l-0.1,0
				h0.1l2.4-7.1c0.1-0.2,0.2-0.3,0.3-0.4c0.3-0.2,0.6-0.2,0.8,0c0.1,0.1,0.2,0.2,0.3,0.4l2.4,7.1l0,0l0.4,1.3h0l0.8,2.2
				c0.1,0.1,0.1,0.3,0.1,0.4c0,0.2-0.1,0.3-0.1,0.4C190,154.5,189.9,154.5,189.7,154.5z M188.6,151.4l0.8,2.4c0,0.1,0.1,0.2,0.1,0.3
				c0,0,0.1,0.1,0.1,0.1c0,0,0.1,0,0.1,0c0,0,0-0.1,0-0.1c0-0.1,0-0.2-0.1-0.3l-0.8-2.3H188.6z M182.8,151.4l-0.8,2.3
				c0,0.1-0.1,0.2,0,0.3c0,0.1,0,0.1,0,0.1c0,0,0,0,0.1,0c0,0,0.1,0,0.1,0c0,0,0.1-0.1,0.1-0.3l0.8-2.4H182.8z M188.2,150.7l0.7,0.4
				l-0.2-0.7L188.2,150.7z M183.1,150.4l-0.2,0.7l0.7-0.4L183.1,150.4z M183.7,150.9h4.3l-0.2-0.5h-4l-0.1,0.3l0,0L183.7,150.9z
				 M188.2,150.1h0.4l-2.4-6.9c-0.1-0.2-0.1-0.2-0.1-0.3c-0.1-0.1-0.2-0.1-0.3,0c0,0-0.1,0.1-0.2,0.3l-2.4,6.9h0.4l2.1-6.3h0.3
				L188.2,150.1z M184,150.1h3.7l-1.9-5.5L184,150.1z"/>
		</g>
		<g>
			<path class="st0" d="M337.3,154.3c-0.2,0-0.3,0-0.4-0.1c-0.1-0.1-0.1-0.2-0.1-0.4v-10.5c0-0.2,0-0.3,0.1-0.4
				c0.1-0.1,0.2-0.1,0.4-0.1h4c1.3,0,2.3,0.3,3,0.8c0.7,0.6,1,1.4,1,2.4c0,0.7-0.2,1.3-0.5,1.7c-0.3,0.5-0.8,0.8-1.4,1.1
				c-0.6,0.2-1.3,0.4-2.2,0.4l0.2-0.2h0.2c0.4,0,0.8,0.1,1.1,0.3c0.3,0.2,0.6,0.6,0.9,1.1l1.8,3.2c0.1,0.1,0.1,0.2,0.1,0.3
				c0,0.1,0,0.2-0.1,0.3c-0.1,0.1-0.2,0.1-0.3,0.1c-0.1,0-0.3,0-0.4-0.1c-0.1-0.1-0.2-0.2-0.2-0.3l-1.9-3.4c-0.3-0.5-0.6-0.9-1-1
				c-0.4-0.2-0.9-0.3-1.5-0.3h-2.5v4.5c0,0.2,0,0.3-0.1,0.4C337.6,154.3,337.5,154.3,337.3,154.3z M337.8,148.4h3.4
				c1,0,1.8-0.2,2.3-0.6c0.5-0.4,0.8-1,0.8-1.8c0-0.8-0.3-1.4-0.8-1.8c-0.5-0.4-1.3-0.6-2.3-0.6h-3.4V148.4z"/>
			<path class="st0" d="M345.3,154.5c-0.2,0-0.4,0-0.5-0.1c-0.1-0.1-0.2-0.2-0.3-0.4l-1.9-3.4c-0.3-0.5-0.6-0.8-0.9-0.9
				c-0.3-0.2-0.8-0.2-1.4-0.2h-2.2v4.3c0,0.2-0.1,0.4-0.2,0.5c-0.1,0.1-0.3,0.2-0.6,0.2c-0.2,0-0.4-0.1-0.5-0.2
				c-0.1-0.1-0.2-0.3-0.2-0.5v-10.5c0-0.2,0.1-0.4,0.2-0.6c0.1-0.1,0.3-0.2,0.5-0.2h4c1.3,0,2.4,0.3,3.1,0.9
				c0.7,0.6,1.1,1.5,1.1,2.6c0,0.7-0.2,1.3-0.5,1.9c-0.3,0.5-0.8,0.9-1.5,1.2c-0.1,0.1-0.3,0.1-0.4,0.2c0.3,0.2,0.6,0.6,0.9,1.1
				l1.8,3.2c0.1,0.1,0.2,0.3,0.1,0.5c0,0.2-0.1,0.3-0.2,0.4C345.7,154.5,345.5,154.5,345.3,154.5z M342.1,149.4
				c0.3,0.2,0.6,0.6,0.9,1l1.9,3.4c0,0.1,0.1,0.2,0.2,0.2c0.1,0.1,0.3,0.1,0.4,0c0,0,0-0.1,0-0.1c0-0.1,0-0.1-0.1-0.2l-1.8-3.2
				c-0.2-0.5-0.5-0.8-0.8-1c-0.1-0.1-0.2-0.1-0.3-0.2C342.4,149.4,342.2,149.4,342.1,149.4z M337.3,143c-0.1,0-0.2,0-0.2,0.1
				c0,0-0.1,0.1-0.1,0.2v10.5c0,0.1,0,0.2,0.1,0.2c0,0,0.1,0.1,0.2,0.1c0.1,0,0.2,0,0.2-0.1c0,0,0.1-0.1,0.1-0.2V149h2.7
				c0.3,0,0.6,0,0.9,0.1l0.3-0.3h0.3c0.3,0,0.5,0,0.8,0.1c0.3-0.1,0.6-0.1,0.9-0.3c0.6-0.2,1-0.6,1.3-1c0.3-0.4,0.4-1,0.4-1.6
				c0-1-0.3-1.7-0.9-2.2c-0.6-0.5-1.6-0.8-2.8-0.8H337.3z M341.2,148.6h-3.6v-5.3h3.6c1.1,0,1.9,0.2,2.4,0.7c0.6,0.5,0.9,1.1,0.9,2
				c0,0.9-0.3,1.5-0.9,2C343.1,148.4,342.3,148.6,341.2,148.6z M338.1,148.2h3.2c1,0,1.7-0.2,2.2-0.6c0.5-0.4,0.7-0.9,0.7-1.6
				c0-0.7-0.2-1.2-0.7-1.6c-0.5-0.4-1.2-0.6-2.2-0.6h-3.2V148.2z"/>
		</g>
		<g>
			<path class="st0" d="M349.7,154.3c-0.2,0-0.3,0-0.4-0.1c-0.1-0.1-0.1-0.2-0.1-0.4v-10.6c0-0.2,0-0.3,0.1-0.4
				c0.1-0.1,0.2-0.1,0.4-0.1c0.2,0,0.3,0,0.4,0.1c0.1,0.1,0.1,0.2,0.1,0.4v10.6c0,0.2,0,0.3-0.1,0.4
				C350,154.3,349.9,154.3,349.7,154.3z"/>
			<path class="st0" d="M349.7,154.5c-0.2,0-0.4-0.1-0.5-0.2c-0.1-0.1-0.2-0.3-0.2-0.5v-10.6c0-0.2,0.1-0.4,0.2-0.6
				c0.3-0.3,0.8-0.3,1.1,0c0.1,0.1,0.2,0.3,0.2,0.6v10.6c0,0.2-0.1,0.4-0.2,0.5C350.1,154.5,349.9,154.5,349.7,154.5z M349.7,142.9
				c-0.1,0-0.2,0-0.2,0.1c0,0-0.1,0.1-0.1,0.2v10.6c0,0.1,0,0.2,0.1,0.2c0,0,0.1,0.1,0.2,0.1c0.1,0,0.2,0,0.2-0.1
				c0,0,0.1-0.1,0.1-0.2v-10.6c0-0.1,0-0.2-0.1-0.2C349.9,142.9,349.8,142.9,349.7,142.9z"/>
		</g>
	</g>
	<g>
		<path class="st0" d="M138,152.5l0.4-0.2l-0.4,1.2c0.1,0,0.2-0.1,0.3-0.1c0.1,0,0.1-0.1,0.1-0.1c0-0.1,0-0.1,0-0.2v-4.4
			c0-0.1,0-0.1-0.1-0.2c0,0-0.1,0-0.2,0h-0.7v0.4h0.5V152.5z"/>
	</g>
	<g>
		<path class="st0" d="M135.1,153.6c-1.5,0-2.6-0.5-3.4-1.4c-0.7-0.9-1.1-2.2-1.1-3.8c0-1.1,0.2-2,0.5-2.8c0.3-0.8,0.8-1.4,1.4-1.8
			c0.6-0.4,1.4-0.6,2.3-0.6c0.6,0,1.2,0.1,1.7,0.3c0.5,0.2,1,0.5,1.5,0.9c0.1,0,0.1,0.1,0.1,0c0,0,0.1,0,0.1,0c0,0,0.1-0.1,0.1-0.1
			c0-0.1,0-0.1,0-0.2c0,0,0-0.1-0.1-0.2c-0.4-0.4-0.9-0.7-1.5-0.9c-0.6-0.2-1.2-0.3-1.9-0.3c-0.8,0-1.4,0.1-2,0.4
			c-0.6,0.3-1.1,0.6-1.5,1.1c-0.4,0.5-0.7,1.1-0.9,1.8c-0.2,0.7-0.3,1.5-0.3,2.4c0,1.2,0.2,2.2,0.6,3.1c0.4,0.8,0.9,1.5,1.7,1.9
			c0.7,0.4,1.7,0.7,2.8,0.7c0.6,0,1.1-0.1,1.7-0.2c0.3-0.1,0.5-0.1,0.8-0.2v-0.5c-0.3,0.1-0.6,0.2-0.9,0.3
			C136.2,153.5,135.7,153.6,135.1,153.6z"/>
	</g>
	<g>
		<path class="st0" d="M138.7,148.3c-0.1-0.1-0.3-0.2-0.5-0.2h-0.7v0.2h0.7c0.1,0,0.3,0,0.3,0.1c0.1,0.1,0.1,0.2,0.1,0.3v4.4
			c0,0.1,0,0.2-0.1,0.3c0,0.1-0.1,0.2-0.2,0.2c-0.4,0.2-0.9,0.3-1.5,0.5c-0.6,0.1-1.2,0.2-1.8,0.2c-1.1,0-2.1-0.2-2.9-0.7
			c-0.8-0.5-1.4-1.1-1.8-2c-0.4-0.9-0.6-1.9-0.6-3.2c0-0.9,0.1-1.7,0.3-2.5c0.2-0.7,0.6-1.3,1-1.8c0.4-0.5,1-0.9,1.6-1.2
			c0.6-0.3,1.3-0.4,2.1-0.4c0.7,0,1.3,0.1,2,0.3c0.6,0.2,1.2,0.5,1.6,1c0.1,0.1,0.1,0.2,0.2,0.3c0,0.1,0,0.2,0,0.3
			c0,0.1-0.1,0.2-0.1,0.2c-0.1,0.1-0.1,0.1-0.2,0.1c-0.1,0-0.2,0-0.3-0.1c-0.4-0.4-0.9-0.7-1.4-0.9c-0.5-0.2-1.1-0.3-1.7-0.3
			c-0.9,0-1.6,0.2-2.2,0.6c-0.6,0.4-1,0.9-1.4,1.7c-0.3,0.7-0.5,1.6-0.5,2.7c0,1.6,0.4,2.9,1.1,3.7c0.7,0.8,1.8,1.3,3.2,1.3
			c0.5,0,1-0.1,1.5-0.2c0.4-0.1,0.8-0.2,1.2-0.4v-3.7h-0.2v0.2h0v3.4c-0.3,0.1-0.6,0.2-1,0.3c-0.5,0.1-1,0.2-1.5,0.2
			c-1.4,0-2.4-0.4-3-1.2c-0.7-0.8-1-2-1-3.6c0-1,0.2-1.9,0.4-2.6c0.3-0.7,0.7-1.2,1.3-1.6c0.6-0.4,1.2-0.5,2.1-0.5
			c0.6,0,1.1,0.1,1.6,0.2c0.5,0.2,0.9,0.4,1.3,0.8c0.1,0.1,0.3,0.2,0.4,0.1c0.1,0,0.3-0.1,0.4-0.2c0.1-0.1,0.2-0.2,0.2-0.3
			c0-0.1,0.1-0.3,0-0.4c0-0.1-0.1-0.3-0.2-0.4c-0.5-0.5-1-0.8-1.7-1c-0.6-0.2-1.3-0.3-2-0.3c-0.8,0-1.6,0.1-2.2,0.4
			c-0.7,0.3-1.2,0.7-1.7,1.2c-0.4,0.5-0.8,1.2-1,1.9c-0.2,0.7-0.3,1.6-0.3,2.5c0,1.3,0.2,2.4,0.6,3.3c0.4,0.9,1,1.6,1.9,2.1
			c0.8,0.5,1.8,0.7,3,0.7c0.6,0,1.2-0.1,1.8-0.2c0.2,0,0.5-0.1,0.7-0.2l0.1,0l0.1,0c0.2-0.1,0.5-0.2,0.7-0.3
			c0.1-0.1,0.2-0.2,0.3-0.3c0-0.1,0.1-0.2,0.1-0.4v-4.4C138.9,148.5,138.8,148.4,138.7,148.3z"/>
	</g>
	<g>
		<path class="st0" d="M138.2,148.5c0.1,0,0.1,0,0.2,0c0,0,0.1,0.1,0.1,0.2v4.4c0,0.1,0,0.2,0,0.2c0,0,0,0.1-0.1,0.1
			c-0.1,0-0.2,0.1-0.3,0.1l0.4-1.2l-0.4,0.2v-3.6h-0.5v0.2h0.2v3.7c0.1,0,0.2-0.1,0.2-0.1l-0.2,0.7v-0.6c-0.4,0.1-0.7,0.3-1.2,0.4
			c-0.5,0.1-1,0.2-1.5,0.2c-1.4,0-2.5-0.4-3.2-1.3c-0.7-0.8-1.1-2.1-1.1-3.7c0-1,0.2-1.9,0.5-2.7c0.3-0.7,0.8-1.3,1.4-1.7
			c0.6-0.4,1.3-0.6,2.2-0.6c0.6,0,1.2,0.1,1.7,0.3c0.5,0.2,1,0.5,1.4,0.9c0.1,0.1,0.2,0.1,0.3,0.1c0.1,0,0.2,0,0.2-0.1
			c0.1-0.1,0.1-0.1,0.1-0.2c0-0.1,0-0.2,0-0.3c0-0.1-0.1-0.2-0.2-0.3c-0.5-0.4-1-0.8-1.6-1c-0.6-0.2-1.3-0.3-2-0.3
			c-0.8,0-1.5,0.1-2.1,0.4c-0.6,0.3-1.1,0.7-1.6,1.2c-0.4,0.5-0.8,1.1-1,1.8c-0.2,0.7-0.3,1.5-0.3,2.5c0,1.2,0.2,2.3,0.6,3.2
			c0.4,0.9,1,1.6,1.8,2c0.8,0.5,1.7,0.7,2.9,0.7c0.6,0,1.2-0.1,1.8-0.2c0.6-0.1,1.1-0.3,1.5-0.5c0.1,0,0.2-0.1,0.2-0.2
			c0-0.1,0.1-0.2,0.1-0.3v-4.4c0-0.1,0-0.3-0.1-0.3c-0.1-0.1-0.2-0.1-0.3-0.1h-0.7v0.2H138.2z M137.6,153.7
			c-0.2,0.1-0.5,0.1-0.8,0.2c-0.6,0.1-1.2,0.2-1.7,0.2c-1.1,0-2-0.2-2.8-0.7c-0.7-0.4-1.3-1.1-1.7-1.9c-0.4-0.8-0.6-1.9-0.6-3.1
			c0-0.9,0.1-1.7,0.3-2.4c0.2-0.7,0.5-1.3,0.9-1.8c0.4-0.5,0.9-0.8,1.5-1.1c0.6-0.3,1.3-0.4,2-0.4c0.7,0,1.3,0.1,1.9,0.3
			c0.6,0.2,1.1,0.5,1.5,0.9c0.1,0.1,0.1,0.1,0.1,0.2c0,0.1,0,0.1,0,0.2c0,0.1,0,0.1-0.1,0.1c0,0-0.1,0-0.1,0c0,0-0.1,0-0.1,0
			c-0.4-0.4-0.9-0.7-1.5-0.9c-0.5-0.2-1.1-0.3-1.7-0.3c-0.9,0-1.7,0.2-2.3,0.6c-0.6,0.4-1.1,1-1.4,1.8c-0.3,0.8-0.5,1.7-0.5,2.8
			c0,1.7,0.4,3,1.1,3.8c0.8,0.9,1.9,1.4,3.4,1.4c0.5,0,1.1-0.1,1.6-0.2c0.3-0.1,0.6-0.2,0.9-0.3V153.7z"/>
	</g>
	<g>
		<path class="st0" d="M138.1,152.8c-0.1,0-0.2,0.1-0.2,0.1v0.6L138.1,152.8z"/>
	</g>
	<g>
		<rect x="211.8" y="14.1" class="st0" width="14.4" height="140.3"/>
	</g>
	<g>
		<rect x="247.5" y="44.8" class="st0" width="15.3" height="80.6"/>
	</g>
	<g>
		<rect x="175.6" y="44.8" class="st0" width="15.3" height="80.6"/>
	</g>
	<g>
		<path class="st0" d="M57.5,42.2H44.9l-29.3,80.7h13.5l8.1-23.5h28.6l8.6,23.5h14.3L57.5,42.2z M54.8,68.4l7,19.5H41.1l7.4-20.8
			c1.1-3.1,2-6.2,2.8-9.3C52.2,61,53.4,64.5,54.8,68.4z"/>
	</g>
	<g>
		<path class="st0" d="M153.3,86.2c-2-2.8-4.7-5-8.1-6.5c2.4-1.7,4.3-3.7,5.6-6c1.8-3.1,2.8-6.6,2.8-10.1c0-3.8-1-7.5-3.1-11
			c-2.1-3.5-5-6.2-8.6-7.9c-3.6-1.7-8.3-2.5-14.1-2.5H98.7v80.7h29.5c4.8,0,8.9-0.5,12.2-1.3c3.4-0.9,6.3-2.3,8.6-4.1
			c2.3-1.8,4.3-4.4,5.8-7.8c1.5-3.3,2.3-6.9,2.3-10.8C157.2,94,155.9,89.7,153.3,86.2z M128.2,110.7h-16.8V87h15.5
			c4.5,0,7.9,0.4,10.3,1.2c2.2,0.8,3.8,2,5.1,3.9c1.2,1.9,1.9,4.1,1.9,6.7c0,2.2-0.4,4.2-1.3,5.9c-0.8,1.6-1.9,2.9-3.2,3.7
			c-1.3,0.9-3,1.5-5.1,1.9C133.4,110.5,131.3,110.7,128.2,110.7z M139.4,70.7c-1.1,1.5-2.6,2.6-4.8,3.3c-1.7,0.5-4.7,0.8-8.8,0.8
			h-14.4V54.3h13.2c5.1,0,8.7,0.3,10.7,1c1.8,0.6,3.2,1.7,4.2,3.4c1,1.7,1.5,3.7,1.5,6C141.1,67.1,140.5,69.1,139.4,70.7z"/>
	</g>
	<g>
		<path class="st0" d="M322.1,42.2h-12.6l-29.3,80.7h13.5l8.1-23.5h28.6l8.6,23.5h14.3L322.1,42.2z M319.4,68.4l7,19.5h-20.7
			l7.4-20.8c1.1-3.1,2-6.2,2.8-9.3C316.8,61,318,64.5,319.4,68.4z"/>
	</g>
</g>
</svg>
