<?xml version="1.0" encoding="utf-8"?>
<!-- Generator: Adobe Illustrator 23.0.1, SVG Export Plug-In . SVG Version: 6.00 Build 0)  -->
<svg version="1.1" id="Capa_1" xmlns="http://www.w3.org/2000/svg" xmlns:xlink="http://www.w3.org/1999/xlink" x="0px" y="0px"
	 viewBox="0 0 554 211.6" style="enable-background:new 0 0 554 211.6;" xml:space="preserve">
<style type="text/css">
	.st0{fill:#606060;}
</style>
<g>
	<path class="st0" d="M23.6,67.1c4.7,0,9.4-0.1,14,0.1c0.9,0,1.9,1.1,2.7,1.9c15.7,17.4,31.4,34.9,47.1,52.3
		c0.9,1.1,1.9,2.1,3.4,3.7c0-19.7,0-38.6,0-57.8c5.7,0,11,0,16.6,0c0,27.7,0,55.4,0,83.6c-4.8,0-9.5,0.1-14.3-0.1
		c-1,0-2-1.3-2.8-2.2C74.6,131.1,58.8,113.6,43,96c-0.8-0.8-1.6-1.7-2.9-3.1c0,19.7,0,38.6,0,57.8c-5.7,0-11,0-16.6,0
		C23.6,123,23.6,95.2,23.6,67.1z"/>
	<path class="st0" d="M355.7,150.7c-5.7,0-11,0-16.7,0c0-2.9,0-5.7,0-8.5c0-6.9,1.3-14.2-0.6-20.5c-1.9-6.3-7-11.7-10.7-17.5
		C320.5,93,313.3,81.8,306,70.6c-0.6-1-1.2-1.9-2.2-3.5c4.7,0,8.9,0.3,13.1-0.1c4.5-0.4,7.1,1.2,9.5,5.1
		c6.6,10.7,13.7,21.2,20.9,32.1c0.8-1.1,1.5-1.9,2.1-2.8c7-10.6,14-21.3,20.9-32c1.1-1.7,2.2-2.4,4.3-2.3C379.8,67.1,385,67,391,67
		c-0.9,1.4-1.4,2.4-2,3.3c-10.4,16-20.7,32.1-31.1,48c-1.6,2.4-2.2,4.8-2.2,7.6C355.8,134.1,355.7,142.2,355.7,150.7z"/>
	<path class="st0" d="M167,150.9c1.6-3.8,2.9-7.2,4.3-10.5c9.6-23.5,19.3-46.9,28.9-70.5c0.9-2.2,2-3,4.3-2.9c4.7,0.2,9.4,0,14.4,0
		c-0.5,1.4-0.8,2.4-1.3,3.5c-10.6,25.8-21.2,51.6-31.7,77.4c-0.9,2.3-2.1,3.2-4.6,3C176.8,150.8,172.1,150.9,167,150.9z"/>
	<path class="st0" d="M487.9,67c-4.6,11.1-8.9,21.6-13.2,32.1c-6.7,16.4-13.5,32.7-20.1,49.1c-0.8,2.1-1.9,2.8-4.1,2.7
		c-4.8-0.2-9.5,0-14.7,0c2.9-7,5.5-13.5,8.2-20c8.3-20.3,16.7-40.6,25-61c0.9-2.1,1.9-3,4.3-2.9C478,67.2,482.7,67,487.9,67z"/>
	<path class="st0" d="M261.1,150.9c-5.8,0-11.2,0.1-16.6-0.1c-0.7,0-1.6-0.8-1.9-1.5c-4.1-9.8-8.1-19.6-12.4-30.1c3.6,0,6.7,0,9.9,0
		c8.1,0,8.2,0,11.2,7.4c2.9,7,5.8,14.1,8.6,21.1C260.3,148.7,260.7,149.6,261.1,150.9z"/>
	<path class="st0" d="M530.1,150.9c-5.9,0-11.1,0-16.3-0.1c-0.8,0-1.9-0.6-2.2-1.2c-4.2-9.9-8.3-19.9-12.6-30.4c6,0,11.5,0,16.9,0.1
		c0.5,0,1.4,0.6,1.6,1.2C521.7,130.4,525.8,140.4,530.1,150.9z"/>
</g>
</svg>
