<?xml version="1.0" encoding="utf-8"?>
<!-- Generator: Adobe Illustrator 23.0.1, SVG Export Plug-In . SVG Version: 6.00 Build 0)  -->
<svg version="1.1" id="Capa_1" xmlns="http://www.w3.org/2000/svg" xmlns:xlink="http://www.w3.org/1999/xlink" x="0px" y="0px"
	 viewBox="0 0 425.2 117.8" style="enable-background:new 0 0 425.2 117.8;" xml:space="preserve">
<style type="text/css">
	.st0{fill:#FFFFFF;}
</style>
<g>
	<g>
		<path class="st0" d="M81,102.5c-4.1,0-7.5-3.4-7.5-7.5V66.1c-1-16.9-18.6-17.9-19.4-18c-8.2-0.4-14,2.2-17.7,7.9
			c-2.7,4.1-3.3,8.6-3.5,9.6v27.4c0,4.1-3.4,7.5-7.5,7.5S18,97.2,18,93.1V65.3c0-0.2,0-0.4,0-0.5c0.8-11.5,9.6-32.8,36.9-31.6
			c11.1,0.6,32.4,8,33.7,32.4c0,0.1,0,0.3,0,0.4V95C88.5,99.1,85.2,102.5,81,102.5z"/>
	</g>
	<g>
		<path class="st0" d="M388.6,102.5c-4.1,0-7.5-3.4-7.5-7.5V66.1c-1-16.4-17.6-17.9-19.4-18c-8.4-0.4-14.2,2.3-17.9,8.3
			c-2.5,4.1-3.1,8.3-3.2,9.2v27.4c0,4.1-3.4,7.5-7.5,7.5s-7.5-3.4-7.5-7.5V65.3c0-0.2,0-0.4,0-0.5c0.8-11.5,9.6-32.9,36.9-31.6
			c11.1,0.6,32.4,8,33.7,32.4c0,0.1,0,0.3,0,0.4V95C396.1,99.1,392.8,102.5,388.6,102.5z"/>
	</g>
	<g>
		<path class="st0" d="M120.9,102.5c-0.8,0-1.5,0-2.3-0.1c-11.1-0.6-32.4-8-33.7-32.4c0-0.1,0-0.3,0-0.4V40.6c0-4.1,3.4-7.5,7.5-7.5
			s7.5,3.4,7.5,7.5v28.8c1,16.4,17.6,17.9,19.4,18c8.4,0.4,14.2-2.3,17.9-8.3c2.5-4.1,3.1-8.3,3.2-9.2V42.5c0-4.1,3.4-7.5,7.5-7.5
			s7.5,3.4,7.5,7.5v27.8c0,0.2,0,0.4,0,0.5C154.6,82,146.3,102.5,120.9,102.5z"/>
	</g>
	<g>
		<path class="st0" d="M158.7,101.2c-4.1,0-7.5-3.4-7.5-7.5V62.1c0-0.6,0.1-1.2,0.2-1.8c2.7-10.8,11.3-30.9,35.6-29.7
			c4.1,0.2,7.3,3.7,7.1,7.9s-3.7,7.3-7.9,7.1c-16.3-0.8-19,13.9-20.1,17.5v30.5C166.2,97.9,162.9,101.2,158.7,101.2z"/>
	</g>
	<g>
		<path class="st0" d="M201.3,100.5c-3.4,0-6.1-2.7-6.1-6.1V21.1c0-3.4,2.7-6.1,6.1-6.1s6.1,2.7,6.1,6.1v73.3
			C207.4,97.7,204.7,100.5,201.3,100.5z"/>
	</g>
	<g>
		<path class="st0" d="M287.1,100.9c-7.6,0-14.3-1.9-19-5.6c-12.1-9.7-7.7-34.2,9.5-34.2c0,0,23.4,0,23.4,0c3.4,0,6.1,2.7,6.1,6.1
			c0,3.4-2.7,6.1-6.1,6.1c-5.1,0-10.1,0-15.2,0c-2.5,0-5.1-0.2-7.6,0c-6.2,0.5-6.5,9.1-2.5,12.4c3.8,3,11.6,3.8,19.8,2
			c6.5-1.5,12.4-6.6,15.2-13.4c2.6-6.3,2.3-12.8-0.9-18c-6.5-10.5-23.4-12.6-36.4-10.2c-3.3,0.6-6.5-1.6-7.2-4.9
			c-0.6-3.3,1.6-6.5,4.9-7.2c17.5-3.3,39.5,0.3,49.1,15.8c5.3,8.6,6,19.2,1.8,29.2c-4.4,10.6-13.4,18.3-23.9,20.7
			C294.4,100.5,290.6,100.9,287.1,100.9z"/>
	</g>
	<g>
		<path class="st0" d="M228.6,98.7c-4.7,0-9.6-0.8-14.4-2.4c-3.2-1.1-4.8-4.5-3.8-7.6c1.1-3.2,4.5-4.8,7.6-3.8
			c17.4,5.9,26-2.9,28.5-9c3.9-9.9,0.8-24-9.2-28.1c-9.2-3.7-21.1-0.7-27.1,7c-2,2.6-5.8,3.1-8.5,1c-2.6-2-3.1-5.8-1-8.5
			c9.3-11.9,27-16.5,41.1-10.7c8,3.2,13.9,10,16.7,19c2.5,8,2.2,17-0.8,24.6c-3.4,8.6-10,14.5-19,17.1
			C235.5,98.2,232.1,98.7,228.6,98.7z"/>
	</g>
	<g>
		<path class="st0" d="M405.6,41c0,3.3-2.6,5.8-5.9,5.8c-3.3,0-5.9-2.6-5.9-5.8c0-3.2,2.6-5.8,5.9-5.8C403,35.2,405.6,37.8,405.6,41
			z M395.2,41c0,2.6,1.9,4.6,4.5,4.6c2.5,0,4.4-2,4.4-4.6c0-2.6-1.9-4.6-4.4-4.6C397.1,36.4,395.2,38.5,395.2,41z M398.8,44h-1.3
			v-5.8c0.5-0.1,1.3-0.2,2.2-0.2c1.1,0,1.6,0.2,2,0.4c0.3,0.2,0.6,0.7,0.6,1.3c0,0.6-0.5,1.1-1.2,1.3v0.1c0.6,0.2,0.9,0.6,1.1,1.4
			c0.2,0.9,0.3,1.2,0.4,1.4h-1.4c-0.2-0.2-0.3-0.7-0.5-1.4c-0.1-0.6-0.5-0.9-1.2-0.9h-0.6V44z M398.8,40.7h0.6
			c0.7,0,1.3-0.2,1.3-0.8c0-0.5-0.4-0.9-1.2-0.9c-0.4,0-0.6,0-0.7,0.1V40.7z"/>
	</g>
</g>
</svg>
